<svg width="439" height="249" viewBox="0 0 439 249" fill="none" xmlns="http://www.w3.org/2000/svg">
<path opacity="0.79" d="M68.9551 156.791L10.4606 198.72L7.21094 202.532V223.67H402.745V21.6475L374.426 43.4784H334.501L306.182 51.4484L282.97 54.2206L243.046 117.981L207.299 110.011L159.018 133.921L132.092 125.951H122.343L110.737 162.682L68.9551 156.791Z" fill="url(#paint0_linear)"/>
<path opacity="0.79" d="M402.745 22.6865L374.426 44.5174H334.501L306.183 52.4874L282.97 55.2596L243.046 119.02L207.299 111.05L159.018 134.96L132.092 126.99H122.343L110.737 163.721L68.955 157.83L10.4606 199.76L7.21094 203.571" stroke="#FFDD2D" stroke-width="5"/>
<path opacity="0.2" d="M204.979 0.509766V223.67" stroke="#B8B8B8"/>
<path opacity="0.2" d="M402.745 0.509766V223.67" stroke="#B8B8B8"/>
<path opacity="0.2" d="M7.21094 223.611H402.745" stroke="#B8B8B8"/>
<path opacity="0.2" d="M7.21094 111.397H402.745" stroke="#B8B8B8"/>
<circle cx="400.495" cy="21.3563" r="7.35635" fill="#FFDD2D" stroke="white" stroke-width="2"/>
<path d="M4.65867 246.368L3.47467 245.488L5.98667 242.272C5.80534 242.315 5.61334 242.336 5.41067 242.336C4.40801 242.336 3.57601 242.005 2.91467 241.344C2.26401 240.693 1.93867 239.883 1.93867 238.912C1.93867 237.856 2.29067 236.965 2.99467 236.24C3.69867 235.515 4.61601 235.152 5.74667 235.152C6.89867 235.152 7.81601 235.504 8.49867 236.208C9.11734 236.848 9.42667 237.653 9.42667 238.624C9.42667 239.317 9.25601 239.995 8.91467 240.656C8.84001 240.805 8.76001 240.949 8.67467 241.088C8.60001 241.216 8.50934 241.355 8.40267 241.504C8.30667 241.653 8.23201 241.765 8.17867 241.84C8.12534 241.904 8.02401 242.032 7.87467 242.224C7.73601 242.405 7.65067 242.517 7.61867 242.56L4.65867 246.368ZM5.66667 240.944C6.27467 240.944 6.78667 240.731 7.20267 240.304C7.61867 239.867 7.82667 239.339 7.82667 238.72C7.82667 238.101 7.61867 237.595 7.20267 237.2C6.77601 236.795 6.26934 236.592 5.68267 236.592C5.09601 236.592 4.58934 236.795 4.16267 237.2C3.74667 237.616 3.53867 238.139 3.53867 238.768C3.53867 239.408 3.74667 239.936 4.16267 240.352C4.57867 240.747 5.08001 240.944 5.66667 240.944ZM16.1192 234.544V242.48H17.2712V243.984H16.1192V246H14.5512V243.984H9.27117L16.1192 234.544ZM12.1192 242.512H14.5512V239.072L12.1192 242.512ZM18.2049 248.064L19.8369 244L21.2449 244.544L19.2609 248.496L18.2049 248.064ZM30.1299 245.024C29.4579 245.792 28.6526 246.176 27.7139 246.176C26.7753 246.176 25.9699 245.792 25.2979 245.024C24.3913 243.989 23.9379 242.539 23.9379 240.672C23.9379 238.795 24.3913 237.339 25.2979 236.304C25.9699 235.536 26.7753 235.152 27.7139 235.152C28.6526 235.152 29.4579 235.536 30.1299 236.304C31.0366 237.339 31.4899 238.795 31.4899 240.672C31.4899 242.539 31.0366 243.989 30.1299 245.024ZM29.1539 237.472C28.7699 236.885 28.2899 236.592 27.7139 236.592C27.1379 236.592 26.6579 236.885 26.2739 237.472C25.7833 238.197 25.5379 239.259 25.5379 240.656C25.5379 242.043 25.7833 243.109 26.2739 243.856C26.6579 244.443 27.1379 244.736 27.7139 244.736C28.2899 244.736 28.7699 244.443 29.1539 243.856C29.6446 243.109 29.8899 242.043 29.8899 240.656C29.8899 239.259 29.6446 238.197 29.1539 237.472ZM39.9757 244.496V246H32.8077L36.5037 241.52C37.0583 240.848 37.485 240.293 37.7837 239.856C38.157 239.301 38.3437 238.789 38.3437 238.32C38.3437 237.84 38.189 237.435 37.8797 237.104C37.5703 236.763 37.133 236.592 36.5677 236.592C36.0023 236.592 35.5543 236.779 35.2237 237.152C34.893 237.525 34.7117 237.984 34.6797 238.528H33.1117C33.1543 237.589 33.453 236.811 34.0077 236.192C34.6263 235.499 35.4583 235.152 36.5037 235.152C37.581 235.152 38.4237 235.467 39.0317 236.096C39.6397 236.725 39.9437 237.483 39.9437 238.368C39.9437 239.104 39.6877 239.851 39.1757 240.608C38.8983 241.024 38.3917 241.664 37.6557 242.528L35.9917 244.496H39.9757ZM48.9734 236.928L47.6614 237.696C47.5548 237.44 47.3948 237.216 47.1814 237.024C46.8828 236.768 46.4988 236.64 46.0294 236.64C45.5281 236.64 45.1334 236.784 44.8454 237.072C44.6321 237.285 44.5254 237.557 44.5254 237.888C44.5254 238.251 44.6641 238.549 44.9414 238.784C45.1548 238.965 45.4908 239.147 45.9494 239.328L46.7494 239.648C47.5601 239.979 48.1521 240.352 48.5254 240.768C49.0161 241.312 49.2614 241.984 49.2614 242.784C49.2614 243.744 48.9521 244.555 48.3334 245.216C47.8428 245.739 47.2561 246.048 46.5734 246.144V247.76H45.3894V246.192C44.5681 246.128 43.8748 245.776 43.3094 245.136C42.7868 244.549 42.4881 243.856 42.4134 243.056L44.0294 242.704C44.0294 243.216 44.1788 243.669 44.4774 244.064C44.8188 244.491 45.2828 244.704 45.8694 244.704C46.3814 244.704 46.8028 244.533 47.1334 244.192C47.4641 243.861 47.6294 243.435 47.6294 242.912C47.6294 242.453 47.4748 242.064 47.1654 241.744C46.9628 241.531 46.6054 241.312 46.0934 241.088L45.0694 240.656C44.4508 240.389 43.9494 240.064 43.5654 239.68C43.1174 239.221 42.8934 238.677 42.8934 238.048C42.8934 237.195 43.1654 236.507 43.7094 235.984C44.1681 235.547 44.7281 235.28 45.3894 235.184V233.76H46.5734V235.168C47.0854 235.211 47.5494 235.387 47.9654 235.696C48.4028 236.037 48.7388 236.448 48.9734 236.928Z" fill="#424242"/>
<path d="M368.851 244.496V246H361.683L365.379 241.52C365.933 240.848 366.36 240.293 366.659 239.856C367.032 239.301 367.219 238.789 367.219 238.32C367.219 237.84 367.064 237.435 366.755 237.104C366.445 236.763 366.008 236.592 365.443 236.592C364.877 236.592 364.429 236.779 364.099 237.152C363.768 237.525 363.587 237.984 363.555 238.528H361.987C362.029 237.589 362.328 236.811 362.883 236.192C363.501 235.499 364.333 235.152 365.379 235.152C366.456 235.152 367.299 235.467 367.907 236.096C368.515 236.725 368.819 237.483 368.819 238.368C368.819 239.104 368.563 239.851 368.051 240.608C367.773 241.024 367.267 241.664 366.531 242.528L364.867 244.496H368.851ZM372.888 238.048H371.32C371.363 237.205 371.667 236.512 372.232 235.968C372.798 235.424 373.576 235.152 374.568 235.152C375.539 235.152 376.307 235.445 376.872 236.032C377.384 236.555 377.64 237.232 377.64 238.064C377.64 238.597 377.518 239.067 377.272 239.472C377.027 239.856 376.707 240.155 376.312 240.368C376.76 240.539 377.112 240.821 377.368 241.216C377.667 241.653 377.816 242.203 377.816 242.864C377.816 243.845 377.512 244.64 376.904 245.248C376.286 245.867 375.416 246.176 374.296 246.176C373.262 246.176 372.467 245.877 371.912 245.28C371.39 244.725 371.086 244 371 243.104H372.568C372.654 243.584 372.846 243.968 373.144 244.256C373.486 244.576 373.918 244.736 374.44 244.736C374.942 244.736 375.358 244.587 375.688 244.288C376.062 243.936 376.248 243.435 376.248 242.784C376.248 242.251 376.088 241.829 375.768 241.52C375.438 241.2 374.979 241.04 374.392 241.04H374.072V239.664H374.296C374.894 239.664 375.347 239.509 375.656 239.2C375.934 238.923 376.072 238.544 376.072 238.064C376.072 237.627 375.934 237.269 375.656 236.992C375.379 236.725 375 236.592 374.52 236.592C374.008 236.592 373.614 236.736 373.336 237.024C373.23 237.141 373.139 237.285 373.064 237.456C372.99 237.616 372.942 237.744 372.92 237.84C372.899 237.936 372.888 238.005 372.888 238.048ZM382.674 246.368L381.49 245.488L384.002 242.272C383.821 242.315 383.629 242.336 383.426 242.336C382.424 242.336 381.592 242.005 380.93 241.344C380.28 240.693 379.954 239.883 379.954 238.912C379.954 237.856 380.306 236.965 381.01 236.24C381.714 235.515 382.632 235.152 383.762 235.152C384.914 235.152 385.832 235.504 386.514 236.208C387.133 236.848 387.442 237.653 387.442 238.624C387.442 239.317 387.272 239.995 386.93 240.656C386.856 240.805 386.776 240.949 386.69 241.088C386.616 241.216 386.525 241.355 386.418 241.504C386.322 241.653 386.248 241.765 386.194 241.84C386.141 241.904 386.04 242.032 385.89 242.224C385.752 242.405 385.666 242.517 385.634 242.56L382.674 246.368ZM383.682 240.944C384.29 240.944 384.802 240.731 385.218 240.304C385.634 239.867 385.842 239.339 385.842 238.72C385.842 238.101 385.634 237.595 385.218 237.2C384.792 236.795 384.285 236.592 383.698 236.592C383.112 236.592 382.605 236.795 382.178 237.2C381.762 237.616 381.554 238.139 381.554 238.768C381.554 239.408 381.762 239.936 382.178 240.352C382.594 240.747 383.096 240.944 383.682 240.944ZM388.408 248.064L390.04 244L391.448 244.544L389.464 248.496L388.408 248.064ZM396.029 238.048H394.461C394.504 237.205 394.808 236.512 395.373 235.968C395.938 235.424 396.717 235.152 397.709 235.152C398.68 235.152 399.448 235.445 400.013 236.032C400.525 236.555 400.781 237.232 400.781 238.064C400.781 238.597 400.658 239.067 400.413 239.472C400.168 239.856 399.848 240.155 399.453 240.368C399.901 240.539 400.253 240.821 400.509 241.216C400.808 241.653 400.957 242.203 400.957 242.864C400.957 243.845 400.653 244.64 400.045 245.248C399.426 245.867 398.557 246.176 397.437 246.176C396.402 246.176 395.608 245.877 395.053 245.28C394.53 244.725 394.226 244 394.141 243.104H395.709C395.794 243.584 395.986 243.968 396.285 244.256C396.626 244.576 397.058 244.736 397.581 244.736C398.082 244.736 398.498 244.587 398.829 244.288C399.202 243.936 399.389 243.435 399.389 242.784C399.389 242.251 399.229 241.829 398.909 241.52C398.578 241.2 398.12 241.04 397.533 241.04H397.213V239.664H397.437C398.034 239.664 398.488 239.509 398.797 239.2C399.074 238.923 399.213 238.544 399.213 238.064C399.213 237.627 399.074 237.269 398.797 236.992C398.52 236.725 398.141 236.592 397.661 236.592C397.149 236.592 396.754 236.736 396.477 237.024C396.37 237.141 396.28 237.285 396.205 237.456C396.13 237.616 396.082 237.744 396.061 237.84C396.04 237.936 396.029 238.005 396.029 238.048ZM408.275 241.648C407.944 241.317 407.523 241.152 407.011 241.152C406.499 241.152 406.077 241.317 405.747 241.648C405.416 241.979 405.251 242.411 405.251 242.944C405.251 243.424 405.411 243.84 405.731 244.192C406.051 244.555 406.477 244.736 407.011 244.736C407.544 244.736 407.971 244.555 408.291 244.192C408.611 243.84 408.771 243.424 408.771 242.944C408.771 242.411 408.605 241.979 408.275 241.648ZM408.179 237.024C407.869 236.736 407.48 236.592 407.011 236.592C406.541 236.592 406.152 236.736 405.843 237.024C405.544 237.323 405.395 237.717 405.395 238.208C405.395 238.667 405.539 239.04 405.827 239.328C406.125 239.648 406.52 239.808 407.011 239.808C407.501 239.808 407.896 239.648 408.195 239.328C408.483 239.04 408.627 238.667 408.627 238.208C408.627 237.717 408.477 237.323 408.179 237.024ZM408.771 240.448C409.251 240.651 409.624 240.939 409.891 241.312C410.211 241.739 410.371 242.272 410.371 242.912C410.371 243.84 410.088 244.597 409.523 245.184C408.904 245.845 408.067 246.176 407.011 246.176C405.955 246.176 405.117 245.845 404.499 245.184C403.933 244.597 403.651 243.84 403.651 242.912C403.651 242.272 403.811 241.739 404.131 241.312C404.397 240.939 404.771 240.651 405.251 240.448C404.867 240.288 404.552 240.021 404.307 239.648C404.051 239.243 403.923 238.757 403.923 238.192C403.923 237.285 404.221 236.544 404.819 235.968C405.395 235.424 406.125 235.152 407.011 235.152C407.896 235.152 408.627 235.424 409.203 235.968C409.8 236.544 410.099 237.285 410.099 238.192C410.099 238.757 409.971 239.243 409.715 239.648C409.469 240.021 409.155 240.288 408.771 240.448ZM419.177 236.928L417.865 237.696C417.758 237.44 417.598 237.216 417.385 237.024C417.086 236.768 416.702 236.64 416.233 236.64C415.731 236.64 415.337 236.784 415.049 237.072C414.835 237.285 414.729 237.557 414.729 237.888C414.729 238.251 414.867 238.549 415.145 238.784C415.358 238.965 415.694 239.147 416.153 239.328L416.953 239.648C417.763 239.979 418.355 240.352 418.729 240.768C419.219 241.312 419.465 241.984 419.465 242.784C419.465 243.744 419.155 244.555 418.537 245.216C418.046 245.739 417.459 246.048 416.777 246.144V247.76H415.593V246.192C414.771 246.128 414.078 245.776 413.513 245.136C412.99 244.549 412.691 243.856 412.617 243.056L414.233 242.704C414.233 243.216 414.382 243.669 414.681 244.064C415.022 244.491 415.486 244.704 416.073 244.704C416.585 244.704 417.006 244.533 417.337 244.192C417.667 243.861 417.833 243.435 417.833 242.912C417.833 242.453 417.678 242.064 417.369 241.744C417.166 241.531 416.809 241.312 416.297 241.088L415.273 240.656C414.654 240.389 414.153 240.064 413.769 239.68C413.321 239.221 413.097 238.677 413.097 238.048C413.097 237.195 413.369 236.507 413.913 235.984C414.371 235.547 414.931 235.28 415.593 235.184V233.76H416.777V235.168C417.289 235.211 417.753 235.387 418.169 235.696C418.606 236.037 418.942 236.448 419.177 236.928Z" fill="#424242"/>
<path d="M32.5337 56V31.835H28.2587V25.985H39.4637V56H32.5337ZM67.0873 25.985V31.835H56.9623L56.1523 35.84C56.9923 35.69 57.8173 35.615 58.6273 35.615C61.8373 35.615 64.3873 36.59 66.2773 38.54C68.1073 40.37 69.0223 42.785 69.0223 45.785C69.0223 48.905 68.0023 51.485 65.9623 53.525C63.8323 55.625 60.8023 56.675 56.8723 56.675C53.0323 56.675 49.7023 55.58 46.8823 53.39L48.4573 46.955C49.3873 48.005 50.3473 48.83 51.3373 49.43C52.6873 50.3 54.2023 50.735 55.8823 50.735C57.7123 50.735 59.1373 50.33 60.1573 49.52C61.3273 48.62 61.9123 47.36 61.9123 45.74C61.9123 44.3 61.4023 43.13 60.3823 42.23C59.1823 41.18 57.5173 40.655 55.3873 40.655C53.2273 40.655 51.1873 41.18 49.2673 42.23L52.3273 25.985H67.0873ZM94.0698 25.985V44.84H97.6698V50.33H94.0698V56H87.4098V50.33H72.7398V46.37L85.9698 25.985H94.0698ZM80.0298 44.84H87.4098V33.185L80.0298 44.84ZM99.9472 61.76L104.897 49.07L110.792 49.385L103.997 61.94L99.9472 61.76ZM127.604 25.31L135.029 26.075L127.109 35.93C128.039 35.6 129.089 35.435 130.259 35.435C133.349 35.435 135.824 36.395 137.684 38.315C139.424 40.115 140.294 42.425 140.294 45.245C140.294 48.545 139.349 51.23 137.459 53.3C135.389 55.55 132.314 56.675 128.234 56.675C123.914 56.675 120.674 55.505 118.514 53.165C116.774 51.305 115.904 48.875 115.904 45.875C115.904 43.715 116.309 41.78 117.119 40.07C117.959 38.33 119.159 36.425 120.719 34.355L127.604 25.31ZM124.364 49.61C125.354 50.54 126.569 51.005 128.009 51.005C129.449 51.005 130.649 50.555 131.609 49.655C132.659 48.665 133.184 47.345 133.184 45.695C133.184 44.165 132.659 42.935 131.609 42.005C130.649 41.165 129.449 40.745 128.009 40.745C126.479 40.745 125.264 41.18 124.364 42.05C123.344 42.98 122.834 44.255 122.834 45.875C122.834 47.435 123.344 48.68 124.364 49.61ZM149.951 55.91L167.546 25.49L170.696 26.165L153.056 56.63L149.951 55.91ZM153.416 30.26C152.786 29.57 151.931 29.225 150.851 29.225C149.771 29.225 148.916 29.57 148.286 30.26C147.626 30.92 147.296 31.79 147.296 32.87C147.296 33.95 147.626 34.82 148.286 35.48C148.916 36.17 149.771 36.515 150.851 36.515C151.931 36.515 152.786 36.17 153.416 35.48C154.076 34.82 154.406 33.95 154.406 32.87C154.406 31.79 154.076 30.92 153.416 30.26ZM156.791 27.83C158.081 29.12 158.726 30.8 158.726 32.87C158.726 34.94 158.081 36.62 156.791 37.91C155.351 39.41 153.371 40.16 150.851 40.16C148.331 40.16 146.351 39.41 144.911 37.91C143.621 36.62 142.976 34.94 142.976 32.87C142.976 30.8 143.621 29.12 144.911 27.83C146.351 26.33 148.331 25.58 150.851 25.58C153.371 25.58 155.351 26.33 156.791 27.83ZM172.316 46.505C171.686 45.815 170.831 45.47 169.751 45.47C168.671 45.47 167.816 45.815 167.186 46.505C166.526 47.165 166.196 48.035 166.196 49.115C166.196 50.195 166.526 51.065 167.186 51.725C167.816 52.415 168.671 52.76 169.751 52.76C170.831 52.76 171.686 52.415 172.316 51.725C172.976 51.065 173.306 50.195 173.306 49.115C173.306 48.035 172.976 47.165 172.316 46.505ZM175.691 44.075C176.981 45.365 177.626 47.045 177.626 49.115C177.626 51.185 176.981 52.865 175.691 54.155C174.251 55.655 172.271 56.405 169.751 56.405C167.231 56.405 165.251 55.655 163.811 54.155C162.521 52.865 161.876 51.185 161.876 49.115C161.876 47.045 162.521 45.365 163.811 44.075C165.251 42.575 167.231 41.825 169.751 41.825C172.271 41.825 174.251 42.575 175.691 44.075Z" fill="#424242"/>
<path d="M23.1554 78.7467H28.4994V85.3867H27.3474V79.8027H24.3074V85.3867H23.1554V78.7467ZM31.823 84.4587V89.0667H30.671V78.7467H31.823V79.6747C32.4097 78.9494 33.167 78.5867 34.095 78.5867C35.087 78.5867 35.871 78.9387 36.447 79.6427C37.0337 80.3361 37.327 81.1574 37.327 82.1067C37.327 83.0667 37.039 83.8881 36.463 84.5707C35.887 85.2427 35.1137 85.5787 34.143 85.5787C33.1723 85.5787 32.399 85.2054 31.823 84.4587ZM33.983 84.5547C34.6337 84.5547 35.1563 84.3201 35.551 83.8507C35.9457 83.3707 36.143 82.7894 36.143 82.1067C36.143 81.3387 35.9243 80.7307 35.487 80.2827C35.0497 79.8347 34.543 79.6107 33.967 79.6107C33.391 79.6107 32.879 79.8347 32.431 80.2827C31.983 80.7307 31.759 81.3334 31.759 82.0907C31.759 82.7841 31.9617 83.3707 32.367 83.8507C32.783 84.3201 33.3217 84.5547 33.983 84.5547ZM39.0929 78.7467H40.2449V83.1307L44.7889 78.2347V85.3867H43.6369V80.9547L39.0929 85.8507V78.7467ZM52.0879 74.1867H53.3679C53.2505 74.5814 53.0479 74.9174 52.7599 75.1947C52.4825 75.4614 52.2265 75.6427 51.9919 75.7387C51.7679 75.8347 51.5012 75.9201 51.1919 75.9947C51.1385 76.0054 51.0105 76.0374 50.8079 76.0907C50.6052 76.1334 50.4505 76.1707 50.3439 76.2027C50.2372 76.2347 50.0985 76.2774 49.9279 76.3307C49.7572 76.3841 49.6025 76.4481 49.4639 76.5227C49.3252 76.5974 49.1972 76.6774 49.0799 76.7627C48.6745 77.0721 48.3439 77.5041 48.0879 78.0587C47.8425 78.6027 47.7092 79.1841 47.6879 79.8027H47.7199C48.1999 78.9921 49.0052 78.5867 50.1359 78.5867C51.1279 78.5867 51.9492 78.9227 52.5999 79.5947C53.2612 80.2667 53.5919 81.0987 53.5919 82.0907C53.5919 83.0934 53.2559 83.9254 52.5839 84.5867C51.9119 85.2481 51.0372 85.5787 49.9599 85.5787C49.0319 85.5787 48.2692 85.3014 47.6719 84.7467C46.9252 84.0641 46.5519 82.9227 46.5519 81.3227C46.5519 78.5387 47.1812 76.7147 48.4399 75.8507C48.5359 75.7867 48.6372 75.7281 48.7439 75.6747C48.8505 75.6107 48.9625 75.5574 49.0799 75.5147C49.2079 75.4614 49.3145 75.4187 49.3999 75.3867C49.4852 75.3441 49.6025 75.3067 49.7519 75.2747C49.9119 75.2321 50.0185 75.2054 50.0719 75.1947C50.1359 75.1734 50.2532 75.1467 50.4239 75.1147C50.6052 75.0721 50.7172 75.0454 50.7599 75.0347C51.1865 74.9387 51.4959 74.8267 51.6879 74.6987C51.8799 74.5601 52.0132 74.3894 52.0879 74.1867ZM51.7199 80.2667C51.2719 79.8294 50.7225 79.6107 50.0719 79.6107C49.4212 79.6107 48.8665 79.8347 48.4079 80.2827C47.9599 80.7201 47.7359 81.3227 47.7359 82.0907C47.7359 82.8587 47.9652 83.4614 48.4239 83.8987C48.8825 84.3361 49.4319 84.5547 50.0719 84.5547C50.7119 84.5547 51.2612 84.3361 51.7199 83.8987C52.1785 83.4614 52.4079 82.8587 52.4079 82.0907C52.4079 81.3121 52.1785 80.7041 51.7199 80.2667ZM55.3585 85.3867V78.7467H56.5105V81.2907H57.6945C58.6118 81.2907 59.2838 81.5094 59.7105 81.9467C60.0518 82.2881 60.2225 82.7521 60.2225 83.3387C60.2225 83.9574 60.0252 84.4534 59.6305 84.8267C59.2358 85.2001 58.5852 85.3867 57.6785 85.3867H55.3585ZM56.5105 84.3627H57.5825C58.0625 84.3627 58.4038 84.3041 58.6065 84.1867C58.8945 83.9947 59.0385 83.7121 59.0385 83.3387C59.0385 82.9547 58.8998 82.6774 58.6225 82.5067C58.4305 82.3787 58.0892 82.3147 57.5985 82.3147H56.5105V84.3627ZM61.0225 85.3867V78.7467H62.1745V85.3867H61.0225ZM69.3669 78.7467V85.3867H68.2149V79.8027H65.8469V82.7947C65.8469 83.6587 65.6762 84.2987 65.3349 84.7147C64.9509 85.1841 64.4175 85.4187 63.7349 85.4187C63.6495 85.4187 63.5322 85.4081 63.3829 85.3867V84.3307C63.4895 84.3521 63.5749 84.3627 63.6389 84.3627C64.0122 84.3627 64.2895 84.2187 64.4709 83.9307C64.6202 83.6961 64.6949 83.3174 64.6949 82.7947V78.7467H69.3669ZM71.546 78.7467H72.698V83.1307L77.242 78.2347V85.3867H76.09V80.9547L71.546 85.8507V78.7467ZM84.0194 80.4427L83.2194 79.7867C83.4754 79.4134 83.758 79.1361 84.0674 78.9547C84.4834 78.7094 84.9687 78.5867 85.5234 78.5867C86.1954 78.5867 86.718 78.7414 87.0914 79.0507C87.4754 79.3814 87.6674 79.8027 87.6674 80.3147C87.6674 80.9334 87.4167 81.3974 86.9154 81.7067C87.2354 81.7814 87.4914 81.9254 87.6834 82.1387C87.9927 82.4694 88.1474 82.8747 88.1474 83.3547C88.1474 84.0694 87.8594 84.6401 87.2834 85.0667C86.814 85.4081 86.1847 85.5787 85.3954 85.5787C84.6914 85.5787 84.0994 85.3921 83.6194 85.0187C83.2567 84.7521 82.9634 84.3734 82.7394 83.8827L83.7314 83.4667C83.8487 83.7654 84.046 84.0161 84.3234 84.2187C84.622 84.4427 84.9847 84.5547 85.4114 84.5547C85.9127 84.5547 86.286 84.4694 86.5314 84.2987C86.8407 84.0961 86.9954 83.7867 86.9954 83.3707C86.9954 83.0294 86.862 82.7734 86.5954 82.6027C86.3714 82.4534 86.0087 82.3787 85.5074 82.3787H84.8354V81.3227H85.3954C85.8007 81.3227 86.0887 81.2641 86.2594 81.1467C86.494 80.9974 86.6114 80.7947 86.6114 80.5387C86.6114 80.2401 86.5154 80.0107 86.3234 79.8507C86.142 79.6907 85.8594 79.6107 85.4754 79.6107C85.1447 79.6107 84.8407 79.6961 84.5634 79.8667C84.3287 80.0161 84.1474 80.2081 84.0194 80.4427ZM94.9934 79.6907V78.7467H96.1454V85.3867H94.9934V84.4587C94.4174 85.2054 93.66 85.5787 92.7214 85.5787C91.8254 85.5787 91.0627 85.2694 90.4334 84.6507C89.804 84.0321 89.4894 83.1681 89.4894 82.0587C89.4894 80.9707 89.7987 80.1227 90.4174 79.5147C91.0467 78.8961 91.8147 78.5867 92.7214 78.5867C93.6814 78.5867 94.4387 78.9547 94.9934 79.6907ZM92.8494 79.6107C92.2414 79.6107 91.724 79.8294 91.2974 80.2667C90.8814 80.6934 90.6734 81.2907 90.6734 82.0587C90.6734 82.7947 90.8654 83.3974 91.2494 83.8667C91.644 84.3254 92.1774 84.5547 92.8494 84.5547C93.5214 84.5547 94.0547 84.3147 94.4494 83.8347C94.8547 83.3547 95.0574 82.7681 95.0574 82.0747C95.0574 81.2854 94.8334 80.6774 94.3854 80.2507C93.9374 79.8241 93.4254 79.6107 92.8494 79.6107ZM106.35 74.4587L107.246 75.1307L104.798 78.5387C105.096 78.4427 105.411 78.3947 105.742 78.3947C106.755 78.3947 107.582 78.7307 108.222 79.4027C108.872 80.0747 109.198 80.9121 109.198 81.9147C109.198 82.9814 108.851 83.8614 108.158 84.5547C107.475 85.2374 106.6 85.5787 105.534 85.5787C104.744 85.5787 104.056 85.3921 103.47 85.0187C102.894 84.6347 102.478 84.1761 102.222 83.6427C101.966 83.0987 101.838 82.5334 101.838 81.9467C101.838 81.1361 102.131 80.3201 102.718 79.4987L106.35 74.4587ZM105.518 84.4907C106.243 84.4907 106.84 84.2507 107.31 83.7707C107.779 83.2801 108.014 82.6721 108.014 81.9467C108.014 81.2321 107.774 80.6454 107.294 80.1867C106.824 79.7174 106.227 79.4827 105.502 79.4827C104.776 79.4827 104.179 79.7174 103.71 80.1867C103.251 80.6561 103.022 81.2427 103.022 81.9467C103.022 82.6721 103.251 83.2801 103.71 83.7707C104.179 84.2507 104.782 84.4907 105.518 84.4907ZM114.122 85.3867L115.722 78.2347L118.474 83.6427L121.162 78.2347L122.762 85.3867H121.578L120.698 81.2747L118.442 85.8507L116.154 81.2747L115.306 85.3867H114.122ZM129.099 83.1627L130.059 83.6907C129.835 84.1174 129.563 84.4747 129.243 84.7627C128.635 85.3067 127.899 85.5787 127.035 85.5787C126.139 85.5787 125.366 85.2907 124.715 84.7147C124.075 84.1281 123.755 83.2587 123.755 82.1067C123.755 81.0934 124.043 80.2561 124.619 79.5947C125.206 78.9227 125.99 78.5867 126.971 78.5867C128.08 78.5867 128.918 78.9921 129.483 79.8027C129.931 80.4427 130.139 81.2747 130.107 82.2987H124.939C124.95 82.9707 125.158 83.5147 125.563 83.9307C125.968 84.3467 126.464 84.5547 127.051 84.5547C127.574 84.5547 128.027 84.3947 128.411 84.0747C128.71 83.8187 128.939 83.5147 129.099 83.1627ZM125.019 81.3387H128.923C128.827 80.8161 128.598 80.4001 128.235 80.0907C127.883 79.7707 127.462 79.6107 126.971 79.6107C126.491 79.6107 126.064 79.7761 125.691 80.1067C125.328 80.4267 125.104 80.8374 125.019 81.3387ZM137.074 79.2267V80.6027C136.551 79.9414 135.858 79.6107 134.994 79.6107C134.343 79.6107 133.789 79.8347 133.33 80.2827C132.871 80.7201 132.642 81.3227 132.642 82.0907C132.642 82.8587 132.871 83.4614 133.33 83.8987C133.789 84.3361 134.338 84.5547 134.978 84.5547C135.831 84.5547 136.546 84.2081 137.122 83.5147V84.8907C136.493 85.3494 135.789 85.5787 135.01 85.5787C133.975 85.5787 133.122 85.2534 132.45 84.6027C131.789 83.9414 131.458 83.1094 131.458 82.1067C131.458 81.0934 131.794 80.2561 132.466 79.5947C133.138 78.9227 133.986 78.5867 135.01 78.5867C135.778 78.5867 136.466 78.8001 137.074 79.2267ZM138.122 85.3867L140.186 82.6507C140.122 82.6507 140.031 82.6401 139.914 82.6187C139.807 82.5974 139.647 82.5441 139.434 82.4587C139.22 82.3734 139.044 82.2614 138.906 82.1227C138.554 81.7921 138.378 81.3494 138.378 80.7947C138.378 80.1654 138.575 79.6694 138.97 79.3067C139.364 78.9334 140.015 78.7467 140.922 78.7467H143.242V85.3867H142.09V82.7147H141.386L139.498 85.3867H138.122ZM142.09 81.7547V79.7707H141.018C140.516 79.7707 140.17 79.8294 139.978 79.9467C139.7 80.1281 139.562 80.4001 139.562 80.7627C139.562 81.1254 139.7 81.3921 139.978 81.5627C140.18 81.6907 140.522 81.7547 141.002 81.7547H142.09ZM145.421 85.3867V78.7467H146.573V84.3307H149.549V78.7467H150.701V84.3307H151.789V87.1467H150.733V85.3867H145.421ZM157.927 83.1627L158.887 83.6907C158.663 84.1174 158.391 84.4747 158.071 84.7627C157.463 85.3067 156.727 85.5787 155.863 85.5787C154.967 85.5787 154.194 85.2907 153.543 84.7147C152.903 84.1281 152.583 83.2587 152.583 82.1067C152.583 81.0934 152.871 80.2561 153.447 79.5947C154.034 78.9227 154.818 78.5867 155.799 78.5867C156.908 78.5867 157.746 78.9921 158.311 79.8027C158.759 80.4427 158.967 81.2747 158.935 82.2987H153.767C153.778 82.9707 153.986 83.5147 154.391 83.9307C154.796 84.3467 155.292 84.5547 155.879 84.5547C156.402 84.5547 156.855 84.3947 157.239 84.0747C157.538 83.8187 157.767 83.5147 157.927 83.1627ZM153.847 81.3387H157.751C157.655 80.8161 157.426 80.4001 157.063 80.0907C156.711 79.7707 156.29 79.6107 155.799 79.6107C155.319 79.6107 154.892 79.7761 154.519 80.1067C154.156 80.4267 153.932 80.8374 153.847 81.3387ZM160.702 78.7467H163.214C163.822 78.7467 164.286 78.8747 164.606 79.1307C164.99 79.4401 165.182 79.8561 165.182 80.3787C165.182 80.9547 164.942 81.3974 164.462 81.7067C164.793 81.7921 165.07 81.9414 165.294 82.1547C165.646 82.4961 165.822 82.9227 165.822 83.4347C165.822 84.0747 165.593 84.5761 165.134 84.9387C164.74 85.2374 164.217 85.3867 163.566 85.3867H160.702V78.7467ZM161.854 81.4507H163.07C163.38 81.4507 163.625 81.3867 163.806 81.2587C164.02 81.0987 164.126 80.8694 164.126 80.5707C164.126 80.3041 164.02 80.0907 163.806 79.9307C163.646 79.8241 163.337 79.7707 162.878 79.7707H161.854V81.4507ZM161.854 84.3627H163.278C163.769 84.3627 164.116 84.2881 164.318 84.1387C164.574 83.9467 164.702 83.7014 164.702 83.4027C164.702 83.0827 164.59 82.8321 164.366 82.6507C164.164 82.4907 163.817 82.4107 163.326 82.4107H161.854V84.3627Z" fill="#424242"/>
<path opacity="0.2" d="M7.21191 0.508789V223.669" stroke="#B8B8B8"/>
<circle cx="9.06826" cy="201.268" r="7.35635" fill="#FFDD2D" stroke="white" stroke-width="2"/>
<defs>
<linearGradient id="paint0_linear" x1="204.978" y1="21.6475" x2="204.978" y2="223.67" gradientUnits="userSpaceOnUse">
<stop stop-color="#FFDD2D"/>
<stop offset="1" stop-color="#FFDD2D" stop-opacity="0"/>
</linearGradient>
</defs>
</svg>
