<svg width="461" height="241" viewBox="0 0 461 241" fill="none" xmlns="http://www.w3.org/2000/svg">
<path opacity="0.2" d="M215.139 0.678711V215.679" stroke="#B8B8B8"/>
<path opacity="0.2" d="M413.139 0.678711V215.679" stroke="#B8B8B8"/>
<path opacity="0.2" d="M17.1387 215.679H413.139" stroke="#B8B8B8"/>
<path opacity="0.2" d="M17.1387 0.678711H413.139" stroke="#B8B8B8"/>
<path opacity="0.2" d="M17.1387 107.679H413.139" stroke="#B8B8B8"/>
<path opacity="0.79" d="M79.8963 185.996L18.9982 193.135L17.1387 196.892V215.679H413.209V28.1875L414.139 23.6787L341.619 42.8411L301.175 93.9409L216.104 108.219L187.746 117.988L157.53 154.058L118.945 161.197L79.8963 185.996Z" fill="url(#paint0_linear)"/>
<path opacity="0.79" d="M19.1387 192.679L80.0151 185.559L119.05 160.827L157.621 153.708L187.827 117.734L216.174 107.991L301.215 93.7519L341.645 42.7896L414.139 23.6787" stroke="#FFDD2D" stroke-width="5"/>
<circle cx="413.127" cy="24.0398" r="7.36106" fill="#FFDD2D" stroke="white" stroke-width="2"/>
<path d="M378.632 228.328V229.832H375.336L374.808 231.608C375.021 231.587 375.187 231.576 375.304 231.576C376.307 231.576 377.128 231.891 377.768 232.52C378.461 233.192 378.808 234.104 378.808 235.256C378.808 236.419 378.445 237.363 377.72 238.088C376.984 238.813 375.997 239.176 374.76 239.176C373.949 239.176 373.267 239.016 372.712 238.696C372.2 238.387 371.779 237.976 371.448 237.464L372.68 236.44C372.829 236.803 373.101 237.112 373.496 237.368C373.859 237.613 374.323 237.736 374.888 237.736C375.56 237.736 376.104 237.539 376.52 237.144C376.979 236.685 377.208 236.083 377.208 235.336C377.208 234.589 376.995 234.013 376.568 233.608C376.152 233.213 375.571 233.016 374.824 233.016C374.397 233.016 373.981 233.091 373.576 233.24C373.213 233.379 372.899 233.539 372.632 233.72L374.216 228.328H378.632ZM391.54 237.496V239H384.372L388.068 234.52C388.623 233.848 389.049 233.293 389.348 232.856C389.721 232.301 389.908 231.789 389.908 231.32C389.908 230.84 389.753 230.435 389.444 230.104C389.135 229.763 388.697 229.592 388.132 229.592C387.567 229.592 387.119 229.779 386.788 230.152C386.457 230.525 386.276 230.984 386.244 231.528H384.676C384.719 230.589 385.017 229.811 385.572 229.192C386.191 228.499 387.023 228.152 388.068 228.152C389.145 228.152 389.988 228.467 390.596 229.096C391.204 229.725 391.508 230.483 391.508 231.368C391.508 232.104 391.252 232.851 390.74 233.608C390.463 234.024 389.956 234.664 389.22 235.528L387.556 237.496H391.54ZM397.756 227.96L398.94 228.84L396.396 232.056C396.609 232.013 396.833 231.992 397.068 231.992C398.07 231.992 398.892 232.323 399.532 232.984C400.161 233.645 400.476 234.477 400.476 235.48C400.476 236.579 400.124 237.475 399.42 238.168C398.737 238.84 397.82 239.176 396.668 239.176C395.505 239.176 394.588 238.829 393.916 238.136C393.297 237.485 392.988 236.68 392.988 235.72C392.988 235.016 393.158 234.333 393.5 233.672C393.574 233.523 393.649 233.384 393.724 233.256C393.809 233.117 393.9 232.973 393.996 232.824C394.102 232.675 394.182 232.568 394.236 232.504C394.289 232.429 394.385 232.301 394.524 232.12C394.673 231.928 394.764 231.811 394.796 231.768L397.756 227.96ZM398.252 233.976C397.857 233.581 397.356 233.384 396.748 233.384C396.14 233.384 395.628 233.581 395.212 233.976C394.796 234.371 394.588 234.899 394.588 235.56C394.588 236.221 394.796 236.749 395.212 237.144C395.628 237.539 396.14 237.736 396.748 237.736C397.356 237.736 397.857 237.539 398.252 237.144C398.668 236.728 398.876 236.2 398.876 235.56C398.876 234.92 398.668 234.392 398.252 233.976ZM408.241 238.024C407.569 238.792 406.764 239.176 405.825 239.176C404.887 239.176 404.081 238.792 403.409 238.024C402.503 236.989 402.049 235.539 402.049 233.672C402.049 231.795 402.503 230.339 403.409 229.304C404.081 228.536 404.887 228.152 405.825 228.152C406.764 228.152 407.569 228.536 408.241 229.304C409.148 230.339 409.601 231.795 409.601 233.672C409.601 235.539 409.148 236.989 408.241 238.024ZM407.265 230.472C406.881 229.885 406.401 229.592 405.825 229.592C405.249 229.592 404.769 229.885 404.385 230.472C403.895 231.197 403.649 232.259 403.649 233.656C403.649 235.043 403.895 236.109 404.385 236.856C404.769 237.443 405.249 237.736 405.825 237.736C406.401 237.736 406.881 237.443 407.265 236.856C407.756 236.109 408.001 235.043 408.001 233.656C408.001 232.259 407.756 231.197 407.265 230.472ZM418.605 228.328C419.587 228.328 420.365 228.52 420.941 228.904C421.379 229.181 421.709 229.549 421.933 230.008C422.157 230.467 422.269 230.931 422.269 231.4C422.269 232.296 421.987 233.027 421.421 233.592C420.771 234.243 419.837 234.568 418.621 234.568H417.885V235.752H420.413V236.872H417.885V239H416.253V236.872H415.085V235.752H416.253V234.568H415.085V233.16H416.253V228.328H418.605ZM417.885 229.832V233.16H418.621C419.368 233.16 419.923 232.979 420.285 232.616C420.563 232.339 420.701 231.96 420.701 231.48C420.701 231.011 420.552 230.627 420.253 230.328C419.912 229.997 419.363 229.832 418.605 229.832H417.885Z" fill="#424242"/>
<path d="M7.168 225.544V233.48H8.32V234.984H7.168V237H5.6V234.984H0.32L7.168 225.544ZM3.168 233.512H5.6V230.072L3.168 233.512ZM19.7881 236.024C19.1161 236.792 18.3108 237.176 17.3721 237.176C16.4335 237.176 15.6281 236.792 14.9561 236.024C14.0495 234.989 13.5961 233.539 13.5961 231.672C13.5961 229.795 14.0495 228.339 14.9561 227.304C15.6281 226.536 16.4335 226.152 17.3721 226.152C18.3108 226.152 19.1161 226.536 19.7881 227.304C20.6948 228.339 21.1481 229.795 21.1481 231.672C21.1481 233.539 20.6948 234.989 19.7881 236.024ZM18.8121 228.472C18.4281 227.885 17.9481 227.592 17.3721 227.592C16.7961 227.592 16.3161 227.885 15.9321 228.472C15.4415 229.197 15.1961 230.259 15.1961 231.656C15.1961 233.043 15.4415 234.109 15.9321 234.856C16.3161 235.443 16.7961 235.736 17.3721 235.736C17.9481 235.736 18.4281 235.443 18.8121 234.856C19.3028 234.109 19.5481 233.043 19.5481 231.656C19.5481 230.259 19.3028 229.197 18.8121 228.472ZM28.6836 225.544V233.48H29.8356V234.984H28.6836V237H27.1156V234.984H21.8356L28.6836 225.544ZM24.6836 233.512H27.1156V230.072L24.6836 233.512ZM36.1774 225.96L37.3614 226.84L34.8174 230.056C35.0307 230.013 35.2547 229.992 35.4894 229.992C36.492 229.992 37.3134 230.323 37.9534 230.984C38.5827 231.645 38.8974 232.477 38.8974 233.48C38.8974 234.579 38.5454 235.475 37.8414 236.168C37.1587 236.84 36.2414 237.176 35.0894 237.176C33.9267 237.176 33.0094 236.829 32.3374 236.136C31.7187 235.485 31.4094 234.68 31.4094 233.72C31.4094 233.016 31.58 232.333 31.9214 231.672C31.996 231.523 32.0707 231.384 32.1454 231.256C32.2307 231.117 32.3214 230.973 32.4174 230.824C32.524 230.675 32.604 230.568 32.6574 230.504C32.7107 230.429 32.8067 230.301 32.9454 230.12C33.0947 229.928 33.1854 229.811 33.2174 229.768L36.1774 225.96ZM36.6734 231.976C36.2787 231.581 35.7774 231.384 35.1694 231.384C34.5614 231.384 34.0494 231.581 33.6334 231.976C33.2174 232.371 33.0094 232.899 33.0094 233.56C33.0094 234.221 33.2174 234.749 33.6334 235.144C34.0494 235.539 34.5614 235.736 35.1694 235.736C35.7774 235.736 36.2787 235.539 36.6734 235.144C37.0894 234.728 37.2974 234.2 37.2974 233.56C37.2974 232.92 37.0894 232.392 36.6734 231.976ZM47.9335 226.328C48.9148 226.328 49.6935 226.52 50.2695 226.904C50.7068 227.181 51.0375 227.549 51.2615 228.008C51.4855 228.467 51.5975 228.931 51.5975 229.4C51.5975 230.296 51.3148 231.027 50.7495 231.592C50.0988 232.243 49.1655 232.568 47.9495 232.568H47.2135V233.752H49.7415V234.872H47.2135V237H45.5815V234.872H44.4135V233.752H45.5815V232.568H44.4135V231.16H45.5815V226.328H47.9335ZM47.2135 227.832V231.16H47.9495C48.6962 231.16 49.2508 230.979 49.6135 230.616C49.8908 230.339 50.0295 229.96 50.0295 229.48C50.0295 229.011 49.8802 228.627 49.5815 228.328C49.2402 227.997 48.6908 227.832 47.9335 227.832H47.2135Z" fill="#424242"/>
<path d="M36.6237 42.9887V37.7687H43.5537V30.8387H49.2237V37.7687H56.1537V42.9887H49.2237V49.9637H43.5537V42.9887H36.6237ZM79.8237 25.6637V31.5137H69.6987L68.8887 35.5187C69.7287 35.3687 70.5537 35.2937 71.3637 35.2937C74.5737 35.2937 77.1237 36.2687 79.0137 38.2187C80.8437 40.0487 81.7587 42.4637 81.7587 45.4637C81.7587 48.5837 80.7387 51.1637 78.6987 53.2037C76.5687 55.3037 73.5387 56.3537 69.6087 56.3537C65.7687 56.3537 62.4387 55.2587 59.6187 53.0687L61.1937 46.6337C62.1237 47.6837 63.0837 48.5087 64.0737 49.1087C65.4237 49.9787 66.9387 50.4137 68.6187 50.4137C70.4487 50.4137 71.8737 50.0087 72.8937 49.1987C74.0637 48.2987 74.6487 47.0387 74.6487 45.4187C74.6487 43.9787 74.1387 42.8087 73.1187 41.9087C71.9187 40.8587 70.2537 40.3337 68.1237 40.3337C65.9637 40.3337 63.9237 40.8587 62.0037 41.9087L65.0637 25.6637H79.8237ZM105.839 25.6637V31.5137H95.7143L94.9043 35.5187C95.7443 35.3687 96.5693 35.2937 97.3793 35.2937C100.589 35.2937 103.139 36.2687 105.029 38.2187C106.859 40.0487 107.774 42.4637 107.774 45.4637C107.774 48.5837 106.754 51.1637 104.714 53.2037C102.584 55.3037 99.5543 56.3537 95.6243 56.3537C91.7843 56.3537 88.4543 55.2587 85.6343 53.0687L87.2093 46.6337C88.1393 47.6837 89.0993 48.5087 90.0893 49.1087C91.4393 49.9787 92.9543 50.4137 94.6343 50.4137C96.4643 50.4137 97.8893 50.0087 98.9093 49.1987C100.079 48.2987 100.664 47.0387 100.664 45.4187C100.664 43.9787 100.154 42.8087 99.1343 41.9087C97.9343 40.8587 96.2693 40.3337 94.1393 40.3337C91.9793 40.3337 89.9393 40.8587 88.0193 41.9087L91.0793 25.6637H105.839ZM118.962 55.5887L136.557 25.1687L139.707 25.8437L122.067 56.3087L118.962 55.5887ZM122.427 29.9387C121.797 29.2487 120.942 28.9037 119.862 28.9037C118.782 28.9037 117.927 29.2487 117.297 29.9387C116.637 30.5987 116.307 31.4687 116.307 32.5487C116.307 33.6287 116.637 34.4987 117.297 35.1587C117.927 35.8487 118.782 36.1937 119.862 36.1937C120.942 36.1937 121.797 35.8487 122.427 35.1587C123.087 34.4987 123.417 33.6287 123.417 32.5487C123.417 31.4687 123.087 30.5987 122.427 29.9387ZM125.802 27.5087C127.092 28.7987 127.737 30.4787 127.737 32.5487C127.737 34.6187 127.092 36.2987 125.802 37.5887C124.362 39.0887 122.382 39.8387 119.862 39.8387C117.342 39.8387 115.362 39.0887 113.922 37.5887C112.632 36.2987 111.987 34.6187 111.987 32.5487C111.987 30.4787 112.632 28.7987 113.922 27.5087C115.362 26.0087 117.342 25.2587 119.862 25.2587C122.382 25.2587 124.362 26.0087 125.802 27.5087ZM141.327 46.1837C140.697 45.4937 139.842 45.1487 138.762 45.1487C137.682 45.1487 136.827 45.4937 136.197 46.1837C135.537 46.8437 135.207 47.7137 135.207 48.7937C135.207 49.8737 135.537 50.7437 136.197 51.4037C136.827 52.0937 137.682 52.4387 138.762 52.4387C139.842 52.4387 140.697 52.0937 141.327 51.4037C141.987 50.7437 142.317 49.8737 142.317 48.7937C142.317 47.7137 141.987 46.8437 141.327 46.1837ZM144.702 43.7537C145.992 45.0437 146.637 46.7237 146.637 48.7937C146.637 50.8637 145.992 52.5437 144.702 53.8337C143.262 55.3337 141.282 56.0837 138.762 56.0837C136.242 56.0837 134.262 55.3337 132.822 53.8337C131.532 52.5437 130.887 50.8637 130.887 48.7937C130.887 46.7237 131.532 45.0437 132.822 43.7537C134.262 42.2537 136.242 41.5037 138.762 41.5037C141.282 41.5037 143.262 42.2537 144.702 43.7537Z" fill="#424242"/>
<path d="M36.2267 71.5646H41.5707V78.2046H40.4187V72.6206H37.3787V78.2046H36.2267V71.5646ZM44.8943 77.2766V81.8846H43.7423V71.5646H44.8943V72.4926C45.481 71.7673 46.2383 71.4046 47.1663 71.4046C48.1583 71.4046 48.9423 71.7566 49.5183 72.4606C50.105 73.1539 50.3983 73.9753 50.3983 74.9246C50.3983 75.8846 50.1103 76.7059 49.5343 77.3886C48.9583 78.0606 48.185 78.3966 47.2143 78.3966C46.2436 78.3966 45.4703 78.0233 44.8943 77.2766ZM47.0543 77.3726C47.705 77.3726 48.2276 77.1379 48.6223 76.6686C49.017 76.1886 49.2143 75.6073 49.2143 74.9246C49.2143 74.1566 48.9956 73.5486 48.5583 73.1006C48.121 72.6526 47.6143 72.4286 47.0383 72.4286C46.4623 72.4286 45.9503 72.6526 45.5023 73.1006C45.0543 73.5486 44.8303 74.1513 44.8303 74.9086C44.8303 75.6019 45.033 76.1886 45.4383 76.6686C45.8543 77.1379 46.393 77.3726 47.0543 77.3726ZM52.1642 71.5646H53.3162V75.9486L57.8602 71.0526V78.2046H56.7082V73.7726L52.1642 78.6686V71.5646ZM65.1592 67.0046H66.4392C66.3218 67.3993 66.1192 67.7353 65.8312 68.0126C65.5538 68.2793 65.2978 68.4606 65.0632 68.5566C64.8392 68.6526 64.5725 68.7379 64.2632 68.8126C64.2098 68.8233 64.0818 68.8553 63.8792 68.9086C63.6765 68.9513 63.5218 68.9886 63.4152 69.0206C63.3085 69.0526 63.1698 69.0953 62.9992 69.1486C62.8285 69.2019 62.6738 69.2659 62.5352 69.3406C62.3965 69.4153 62.2685 69.4953 62.1512 69.5806C61.7458 69.8899 61.4152 70.3219 61.1592 70.8766C60.9138 71.4206 60.7805 72.0019 60.7592 72.6206H60.7912C61.2712 71.8099 62.0765 71.4046 63.2072 71.4046C64.1992 71.4046 65.0205 71.7406 65.6712 72.4126C66.3325 73.0846 66.6632 73.9166 66.6632 74.9086C66.6632 75.9113 66.3272 76.7433 65.6552 77.4046C64.9832 78.0659 64.1085 78.3966 63.0312 78.3966C62.1032 78.3966 61.3405 78.1193 60.7432 77.5646C59.9965 76.8819 59.6232 75.7406 59.6232 74.1406C59.6232 71.3566 60.2525 69.5326 61.5112 68.6686C61.6072 68.6046 61.7085 68.5459 61.8152 68.4926C61.9218 68.4286 62.0338 68.3753 62.1512 68.3326C62.2792 68.2793 62.3858 68.2366 62.4712 68.2046C62.5565 68.1619 62.6738 68.1246 62.8232 68.0926C62.9832 68.0499 63.0898 68.0233 63.1432 68.0126C63.2072 67.9913 63.3245 67.9646 63.4952 67.9326C63.6765 67.8899 63.7885 67.8633 63.8312 67.8526C64.2578 67.7566 64.5672 67.6446 64.7592 67.5166C64.9512 67.3779 65.0845 67.2073 65.1592 67.0046ZM64.7912 73.0846C64.3432 72.6473 63.7938 72.4286 63.1432 72.4286C62.4925 72.4286 61.9378 72.6526 61.4792 73.1006C61.0312 73.5379 60.8072 74.1406 60.8072 74.9086C60.8072 75.6766 61.0365 76.2793 61.4952 76.7166C61.9538 77.1539 62.5032 77.3726 63.1432 77.3726C63.7832 77.3726 64.3325 77.1539 64.7912 76.7166C65.2498 76.2793 65.4792 75.6766 65.4792 74.9086C65.4792 74.1299 65.2498 73.5219 64.7912 73.0846ZM68.4298 78.2046V71.5646H69.5818V74.1086H70.7658C71.6831 74.1086 72.3551 74.3273 72.7818 74.7646C73.1231 75.1059 73.2938 75.5699 73.2938 76.1566C73.2938 76.7753 73.0965 77.2713 72.7018 77.6446C72.3071 78.0179 71.6565 78.2046 70.7498 78.2046H68.4298ZM69.5818 77.1806H70.6538C71.1338 77.1806 71.4751 77.1219 71.6778 77.0046C71.9658 76.8126 72.1098 76.5299 72.1098 76.1566C72.1098 75.7726 71.9711 75.4953 71.6938 75.3246C71.5018 75.1966 71.1605 75.1326 70.6698 75.1326H69.5818V77.1806ZM74.0938 78.2046V71.5646H75.2458V78.2046H74.0938ZM82.4382 71.5646V78.2046H81.2862V72.6206H78.9182V75.6126C78.9182 76.4766 78.7475 77.1166 78.4062 77.5326C78.0222 78.0019 77.4888 78.2366 76.8062 78.2366C76.7208 78.2366 76.6035 78.2259 76.4542 78.2046V77.1486C76.5608 77.1699 76.6462 77.1806 76.7102 77.1806C77.0835 77.1806 77.3608 77.0366 77.5422 76.7486C77.6915 76.5139 77.7662 76.1353 77.7662 75.6126V71.5646H82.4382ZM84.6173 71.5646H85.7693V75.9486L90.3133 71.0526V78.2046H89.1613V73.7726L84.6173 78.6686V71.5646ZM97.0907 73.2606L96.2907 72.6046C96.5467 72.2313 96.8293 71.9539 97.1387 71.7726C97.5547 71.5273 98.04 71.4046 98.5947 71.4046C99.2667 71.4046 99.7893 71.5593 100.163 71.8686C100.547 72.1993 100.739 72.6206 100.739 73.1326C100.739 73.7513 100.488 74.2153 99.9867 74.5246C100.307 74.5993 100.563 74.7433 100.755 74.9566C101.064 75.2873 101.219 75.6926 101.219 76.1726C101.219 76.8873 100.931 77.4579 100.355 77.8846C99.8853 78.2259 99.256 78.3966 98.4667 78.3966C97.7627 78.3966 97.1707 78.2099 96.6907 77.8366C96.328 77.5699 96.0347 77.1913 95.8107 76.7006L96.8027 76.2846C96.92 76.5833 97.1173 76.8339 97.3947 77.0366C97.6933 77.2606 98.056 77.3726 98.4827 77.3726C98.984 77.3726 99.3573 77.2873 99.6027 77.1166C99.912 76.9139 100.067 76.6046 100.067 76.1886C100.067 75.8473 99.9333 75.5913 99.6667 75.4206C99.4427 75.2713 99.08 75.1966 98.5787 75.1966H97.9067V74.1406H98.4667C98.872 74.1406 99.16 74.0819 99.3307 73.9646C99.5653 73.8153 99.6827 73.6126 99.6827 73.3566C99.6827 73.0579 99.5867 72.8286 99.3947 72.6686C99.2133 72.5086 98.9307 72.4286 98.5467 72.4286C98.216 72.4286 97.912 72.5139 97.6347 72.6846C97.4 72.8339 97.2187 73.0259 97.0907 73.2606ZM108.065 72.5086V71.5646H109.217V78.2046H108.065V77.2766C107.489 78.0233 106.731 78.3966 105.793 78.3966C104.897 78.3966 104.134 78.0873 103.505 77.4686C102.875 76.8499 102.561 75.9859 102.561 74.8766C102.561 73.7886 102.87 72.9406 103.489 72.3326C104.118 71.7139 104.886 71.4046 105.793 71.4046C106.753 71.4046 107.51 71.7726 108.065 72.5086ZM105.921 72.4286C105.313 72.4286 104.795 72.6473 104.369 73.0846C103.953 73.5113 103.745 74.1086 103.745 74.8766C103.745 75.6126 103.937 76.2153 104.321 76.6846C104.715 77.1433 105.249 77.3726 105.921 77.3726C106.593 77.3726 107.126 77.1326 107.521 76.6526C107.926 76.1726 108.129 75.5859 108.129 74.8926C108.129 74.1033 107.905 73.4953 107.457 73.0686C107.009 72.6419 106.497 72.4286 105.921 72.4286ZM117.757 78.4606L116.861 77.8046L119.309 74.3966C119 74.4926 118.685 74.5406 118.365 74.5406C117.352 74.5406 116.52 74.2046 115.869 73.5326C115.229 72.8606 114.909 72.0233 114.909 71.0206C114.909 69.9539 115.25 69.0793 115.933 68.3966C116.626 67.7033 117.506 67.3566 118.573 67.3566C119.362 67.3566 120.045 67.5486 120.621 67.9326C121.208 68.3059 121.629 68.7646 121.885 69.3086C122.141 69.8419 122.269 70.4019 122.269 70.9886C122.269 71.8099 121.976 72.6259 121.389 73.4366L117.757 78.4606ZM118.589 68.4446C117.864 68.4446 117.266 68.6899 116.797 69.1806C116.328 69.6606 116.093 70.2633 116.093 70.9886C116.093 71.7033 116.328 72.2953 116.797 72.7646C117.277 73.2233 117.88 73.4526 118.605 73.4526C119.33 73.4526 119.922 73.2179 120.381 72.7486C120.85 72.2793 121.085 71.6926 121.085 70.9886C121.085 70.2633 120.85 69.6606 120.381 69.1806C119.922 68.6899 119.325 68.4446 118.589 68.4446ZM128.441 71.5646H133.113V77.1486H134.105V79.9646H133.049V78.2046H127.993V79.9646H126.937V77.1486C127.492 77.1379 127.902 76.8499 128.169 76.2846C128.35 75.9113 128.441 75.3246 128.441 74.5246V71.5646ZM131.961 77.1486V72.6206H129.593V75.1166C129.593 76.0019 129.326 76.6793 128.793 77.1486H131.961ZM135.32 78.2046V71.5646H136.472V74.2846H139.608V71.5646H140.76V78.2046H139.608V75.3406H136.472V78.2046H135.32ZM147.858 75.9806L148.818 76.5086C148.594 76.9353 148.322 77.2926 148.002 77.5806C147.394 78.1246 146.658 78.3966 145.794 78.3966C144.898 78.3966 144.124 78.1086 143.474 77.5326C142.834 76.9459 142.514 76.0766 142.514 74.9246C142.514 73.9113 142.802 73.0739 143.378 72.4126C143.964 71.7406 144.748 71.4046 145.73 71.4046C146.839 71.4046 147.676 71.8099 148.242 72.6206C148.69 73.2606 148.898 74.0926 148.866 75.1166H143.698C143.708 75.7886 143.916 76.3326 144.322 76.7486C144.727 77.1646 145.223 77.3726 145.81 77.3726C146.332 77.3726 146.786 77.2126 147.17 76.8926C147.468 76.6366 147.698 76.3326 147.858 75.9806ZM143.778 74.1566H147.682C147.586 73.6339 147.356 73.2179 146.994 72.9086C146.642 72.5886 146.22 72.4286 145.73 72.4286C145.25 72.4286 144.823 72.5939 144.45 72.9246C144.087 73.2446 143.863 73.6553 143.778 74.1566ZM150.633 71.5646H151.785V75.9486L156.329 71.0526V78.2046H155.177V73.7726L150.633 78.6686V71.5646ZM151.209 68.7006L152.169 68.3326C152.361 68.9726 152.814 69.2926 153.529 69.2926C154.244 69.2926 154.697 68.9726 154.889 68.3326L155.849 68.7006C155.678 69.1806 155.385 69.5593 154.969 69.8366C154.564 70.1139 154.084 70.2526 153.529 70.2526C152.974 70.2526 152.489 70.1139 152.073 69.8366C151.668 69.5593 151.38 69.1806 151.209 68.7006Z" fill="#424242"/>
<path opacity="0.2" d="M17.1387 0.678711V215.679" stroke="#B8B8B8"/>
<circle cx="19.2282" cy="193.04" r="7.36106" fill="#FFDD2D" stroke="white" stroke-width="2"/>
<defs>
<linearGradient id="paint0_linear" x1="215.639" y1="23.6787" x2="215.639" y2="215.679" gradientUnits="userSpaceOnUse">
<stop stop-color="#FFDD2D"/>
<stop offset="1" stop-color="#FFDD2D" stop-opacity="0"/>
</linearGradient>
</defs>
</svg>
