<svg width="419" height="248" viewBox="0 0 419 248" fill="none" xmlns="http://www.w3.org/2000/svg">
<path opacity="0.79" d="M68.8164 156.791L10.322 198.72L7.07227 202.532V223.669H402.606V21.6469L374.287 43.4778H334.363L306.044 51.4478L282.832 54.22L242.907 117.98L207.16 110.01L158.879 133.92L131.953 125.95H122.204L110.598 162.681L68.8164 156.791Z" fill="url(#paint0_linear)"/>
<path opacity="0.79" d="M402.606 22.6862L374.287 44.517H334.363L306.044 52.4871L282.832 55.2592L242.907 119.019L207.16 111.049L158.879 134.959L131.953 126.989H122.204L110.598 163.721L68.8164 157.83L10.322 199.759L7.07227 203.571" stroke="#FFDD2D" stroke-width="5"/>
<path opacity="0.2" d="M204.84 0.509033V223.669" stroke="#B8B8B8"/>
<path opacity="0.2" d="M402.605 0.509033V223.669" stroke="#B8B8B8"/>
<path opacity="0.2" d="M7.07227 223.611H402.606" stroke="#B8B8B8"/>
<path opacity="0.2" d="M7.07227 111.397H402.606" stroke="#B8B8B8"/>
<circle cx="204.839" cy="113.515" r="7.35635" fill="#FFDD2D" stroke="white" stroke-width="2"/>
<circle cx="403.356" cy="22.356" r="7.35635" fill="#FFDD2D" stroke="white" stroke-width="2"/>
<path d="M201.712 244.496V246H194.544L198.24 241.52C198.795 240.848 199.221 240.293 199.52 239.856C199.893 239.301 200.08 238.789 200.08 238.32C200.08 237.84 199.925 237.434 199.616 237.104C199.307 236.762 198.869 236.592 198.304 236.592C197.739 236.592 197.291 236.778 196.96 237.152C196.629 237.525 196.448 237.984 196.416 238.528H194.848C194.891 237.589 195.189 236.81 195.744 236.192C196.363 235.498 197.195 235.152 198.24 235.152C199.317 235.152 200.16 235.466 200.768 236.096C201.376 236.725 201.68 237.482 201.68 238.368C201.68 239.104 201.424 239.85 200.912 240.608C200.635 241.024 200.128 241.664 199.392 242.528L197.728 244.496H201.712ZM209.152 234.544V242.48H210.304V243.984H209.152V246H207.584V243.984H202.304L209.152 234.544ZM205.152 242.512H207.584V239.072L205.152 242.512ZM218.038 245.024C217.366 245.792 216.561 246.176 215.622 246.176C214.683 246.176 213.878 245.792 213.206 245.024C212.299 243.989 211.846 242.538 211.846 240.672C211.846 238.794 212.299 237.338 213.206 236.304C213.878 235.536 214.683 235.152 215.622 235.152C216.561 235.152 217.366 235.536 218.038 236.304C218.945 237.338 219.398 238.794 219.398 240.672C219.398 242.538 218.945 243.989 218.038 245.024ZM217.062 237.472C216.678 236.885 216.198 236.592 215.622 236.592C215.046 236.592 214.566 236.885 214.182 237.472C213.691 238.197 213.446 239.258 213.446 240.656C213.446 242.042 213.691 243.109 214.182 243.856C214.566 244.442 215.046 244.736 215.622 244.736C216.198 244.736 216.678 244.442 217.062 243.856C217.553 243.109 217.798 242.042 217.798 240.656C217.798 239.258 217.553 238.197 217.062 237.472ZM227.788 236.928L226.476 237.696C226.369 237.44 226.209 237.216 225.996 237.024C225.697 236.768 225.313 236.64 224.844 236.64C224.343 236.64 223.948 236.784 223.66 237.072C223.447 237.285 223.34 237.557 223.34 237.888C223.34 238.25 223.479 238.549 223.756 238.784C223.969 238.965 224.305 239.146 224.764 239.328L225.564 239.648C226.375 239.978 226.967 240.352 227.34 240.768C227.831 241.312 228.076 241.984 228.076 242.784C228.076 243.744 227.767 244.554 227.148 245.216C226.657 245.738 226.071 246.048 225.388 246.144V247.76H224.204V246.192C223.383 246.128 222.689 245.776 222.124 245.136C221.601 244.549 221.303 243.856 221.228 243.056L222.844 242.704C222.844 243.216 222.993 243.669 223.292 244.064C223.633 244.49 224.097 244.704 224.684 244.704C225.196 244.704 225.617 244.533 225.948 244.192C226.279 243.861 226.444 243.434 226.444 242.912C226.444 242.453 226.289 242.064 225.98 241.744C225.777 241.53 225.42 241.312 224.908 241.088L223.884 240.656C223.265 240.389 222.764 240.064 222.38 239.68C221.932 239.221 221.708 238.677 221.708 238.048C221.708 237.194 221.98 236.506 222.524 235.984C222.983 235.546 223.543 235.28 224.204 235.184V233.76H225.388V235.168C225.9 235.21 226.364 235.386 226.78 235.696C227.217 236.037 227.553 236.448 227.788 236.928Z" fill="#424242"/>
<path d="M8.168 234.544V242.48H9.32V243.984H8.168V246H6.6V243.984H1.32L8.168 234.544ZM4.168 242.512H6.6V239.072L4.168 242.512ZM17.0538 245.024C16.3818 245.792 15.5764 246.176 14.6378 246.176C13.6991 246.176 12.8938 245.792 12.2218 245.024C11.3151 243.989 10.8618 242.538 10.8618 240.672C10.8618 238.794 11.3151 237.338 12.2218 236.304C12.8938 235.536 13.6991 235.152 14.6378 235.152C15.5764 235.152 16.3818 235.536 17.0538 236.304C17.9604 237.338 18.4138 238.794 18.4138 240.672C18.4138 242.538 17.9604 243.989 17.0538 245.024ZM16.0778 237.472C15.6938 236.885 15.2138 236.592 14.6378 236.592C14.0618 236.592 13.5818 236.885 13.1978 237.472C12.7071 238.197 12.4618 239.258 12.4618 240.656C12.4618 242.042 12.7071 243.109 13.1978 243.856C13.5818 244.442 14.0618 244.736 14.6378 244.736C15.2138 244.736 15.6938 244.442 16.0778 243.856C16.5684 243.109 16.8138 242.042 16.8138 240.656C16.8138 239.258 16.5684 238.197 16.0778 237.472ZM26.8035 236.928L25.4915 237.696C25.3848 237.44 25.2248 237.216 25.0115 237.024C24.7128 236.768 24.3288 236.64 23.8595 236.64C23.3582 236.64 22.9635 236.784 22.6755 237.072C22.4622 237.285 22.3555 237.557 22.3555 237.888C22.3555 238.25 22.4942 238.549 22.7715 238.784C22.9848 238.965 23.3208 239.146 23.7795 239.328L24.5795 239.648C25.3902 239.978 25.9822 240.352 26.3555 240.768C26.8462 241.312 27.0915 241.984 27.0915 242.784C27.0915 243.744 26.7822 244.554 26.1635 245.216C25.6728 245.738 25.0862 246.048 24.4035 246.144V247.76H23.2195V246.192C22.3982 246.128 21.7048 245.776 21.1395 245.136C20.6168 244.549 20.3182 243.856 20.2435 243.056L21.8595 242.704C21.8595 243.216 22.0088 243.669 22.3075 244.064C22.6488 244.49 23.1128 244.704 23.6995 244.704C24.2115 244.704 24.6328 244.533 24.9635 244.192C25.2942 243.861 25.4595 243.434 25.4595 242.912C25.4595 242.453 25.3048 242.064 24.9955 241.744C24.7928 241.53 24.4355 241.312 23.9235 241.088L22.8995 240.656C22.2808 240.389 21.7795 240.064 21.3955 239.68C20.9475 239.221 20.7235 238.677 20.7235 238.048C20.7235 237.194 20.9955 236.506 21.5395 235.984C21.9982 235.546 22.5582 235.28 23.2195 235.184V233.76H24.4035V235.168C24.9155 235.21 25.3795 235.386 25.7955 235.696C26.2328 236.037 26.5688 236.448 26.8035 236.928Z" fill="#424242"/>
<path d="M381.52 246.368L380.336 245.488L382.848 242.272C382.667 242.314 382.475 242.336 382.272 242.336C381.269 242.336 380.437 242.005 379.776 241.344C379.125 240.693 378.8 239.882 378.8 238.912C378.8 237.856 379.152 236.965 379.856 236.24C380.56 235.514 381.477 235.152 382.608 235.152C383.76 235.152 384.677 235.504 385.36 236.208C385.979 236.848 386.288 237.653 386.288 238.624C386.288 239.317 386.117 239.994 385.776 240.656C385.701 240.805 385.621 240.949 385.536 241.088C385.461 241.216 385.371 241.354 385.264 241.504C385.168 241.653 385.093 241.765 385.04 241.84C384.987 241.904 384.885 242.032 384.736 242.224C384.597 242.405 384.512 242.517 384.48 242.56L381.52 246.368ZM382.528 240.944C383.136 240.944 383.648 240.73 384.064 240.304C384.48 239.866 384.688 239.338 384.688 238.72C384.688 238.101 384.48 237.594 384.064 237.2C383.637 236.794 383.131 236.592 382.544 236.592C381.957 236.592 381.451 236.794 381.024 237.2C380.608 237.616 380.4 238.138 380.4 238.768C380.4 239.408 380.608 239.936 381.024 240.352C381.44 240.746 381.941 240.944 382.528 240.944ZM389.094 246V236.832H387.238L388.134 235.328H390.726V246H389.094ZM400.007 235.328V236.832H396.711L396.183 238.608C396.396 238.586 396.562 238.576 396.679 238.576C397.682 238.576 398.503 238.89 399.143 239.52C399.836 240.192 400.183 241.104 400.183 242.256C400.183 243.418 399.82 244.362 399.095 245.088C398.359 245.813 397.372 246.176 396.135 246.176C395.324 246.176 394.642 246.016 394.087 245.696C393.575 245.386 393.154 244.976 392.823 244.464L394.055 243.44C394.204 243.802 394.476 244.112 394.871 244.368C395.234 244.613 395.698 244.736 396.263 244.736C396.935 244.736 397.479 244.538 397.895 244.144C398.354 243.685 398.583 243.082 398.583 242.336C398.583 241.589 398.37 241.013 397.943 240.608C397.527 240.213 396.946 240.016 396.199 240.016C395.772 240.016 395.356 240.09 394.951 240.24C394.588 240.378 394.274 240.538 394.007 240.72L395.591 235.328H400.007ZM409.085 236.928L407.773 237.696C407.666 237.44 407.506 237.216 407.293 237.024C406.994 236.768 406.61 236.64 406.141 236.64C405.639 236.64 405.245 236.784 404.957 237.072C404.743 237.285 404.637 237.557 404.637 237.888C404.637 238.25 404.775 238.549 405.053 238.784C405.266 238.965 405.602 239.146 406.061 239.328L406.861 239.648C407.671 239.978 408.263 240.352 408.637 240.768C409.127 241.312 409.373 241.984 409.373 242.784C409.373 243.744 409.063 244.554 408.445 245.216C407.954 245.738 407.367 246.048 406.685 246.144V247.76H405.501V246.192C404.679 246.128 403.986 245.776 403.421 245.136C402.898 244.549 402.599 243.856 402.525 243.056L404.141 242.704C404.141 243.216 404.29 243.669 404.589 244.064C404.93 244.49 405.394 244.704 405.981 244.704C406.493 244.704 406.914 244.533 407.245 244.192C407.575 243.861 407.741 243.434 407.741 242.912C407.741 242.453 407.586 242.064 407.277 241.744C407.074 241.53 406.717 241.312 406.205 241.088L405.181 240.656C404.562 240.389 404.061 240.064 403.677 239.68C403.229 239.221 403.005 238.677 403.005 238.048C403.005 237.194 403.277 236.506 403.821 235.984C404.279 235.546 404.839 235.28 405.501 235.184V233.76H406.685V235.168C407.197 235.21 407.661 235.386 408.077 235.696C408.514 236.037 408.85 236.448 409.085 236.928Z" fill="#424242"/>
<path d="M23.485 43.3096V38.0896H30.415V31.1596H36.085V38.0896H43.015V43.3096H36.085V50.2846H30.415V43.3096H23.485ZM53.185 34.9846H46.525C46.825 32.1946 47.815 29.9296 49.495 28.1896C51.325 26.2996 53.86 25.3546 57.1 25.3546C60.58 25.3546 63.205 26.2396 64.975 28.0096C66.505 29.4796 67.27 31.5196 67.27 34.1296C67.27 35.7496 66.865 37.1146 66.055 38.2246C65.485 39.0346 64.735 39.6646 63.805 40.1146C65.305 40.6546 66.445 41.4646 67.225 42.5446C68.155 43.8046 68.62 45.3796 68.62 47.2696C68.62 49.9996 67.615 52.2796 65.605 54.1096C63.685 55.8496 61.045 56.7196 57.685 56.7196C53.905 56.7196 50.98 55.6846 48.91 53.6146C46.99 51.6646 45.88 49.1896 45.58 46.1896H52.51C52.63 47.5996 53.11 48.7246 53.95 49.5646C54.76 50.3746 55.87 50.7796 57.28 50.7796C58.54 50.7796 59.545 50.4346 60.295 49.7446C61.105 48.9946 61.51 47.9746 61.51 46.6846C61.51 45.4846 61.075 44.5246 60.205 43.8046C59.395 43.1746 58.165 42.8596 56.515 42.8596H55.975V38.0896H56.38C57.7 38.0896 58.705 37.8046 59.395 37.2346C60.145 36.6046 60.52 35.7046 60.52 34.5346C60.52 33.5146 60.19 32.7046 59.53 32.1046C58.87 31.5046 58.015 31.2046 56.965 31.2046C55.825 31.2046 54.925 31.5346 54.265 32.1946C53.605 32.9146 53.245 33.8446 53.185 34.9846ZM70.9639 55.0996L84.5539 31.8346H71.3239V25.9846H95.1739L77.3989 56.6746L70.9639 55.0996ZM115.025 25.9846V31.8346H104.9L104.09 35.8396C104.93 35.6896 105.755 35.6146 106.565 35.6146C109.775 35.6146 112.325 36.5896 114.215 38.5396C116.045 40.3696 116.96 42.7846 116.96 45.7846C116.96 48.9046 115.94 51.4846 113.9 53.5246C111.77 55.6246 108.74 56.6746 104.81 56.6746C100.97 56.6746 97.6398 55.5796 94.8198 53.3896L96.3948 46.9546C97.3248 48.0046 98.2848 48.8296 99.2748 49.4296C100.625 50.2996 102.14 50.7346 103.82 50.7346C105.65 50.7346 107.075 50.3296 108.095 49.5196C109.265 48.6196 109.85 47.3596 109.85 45.7396C109.85 44.2996 109.34 43.1296 108.32 42.2296C107.12 41.1796 105.455 40.6546 103.325 40.6546C101.165 40.6546 99.1248 41.1796 97.2048 42.2296L100.265 25.9846H115.025ZM128.147 55.9096L145.742 25.4896L148.892 26.1646L131.252 56.6296L128.147 55.9096ZM131.612 30.2596C130.982 29.5696 130.127 29.2246 129.047 29.2246C127.967 29.2246 127.112 29.5696 126.482 30.2596C125.822 30.9196 125.492 31.7896 125.492 32.8696C125.492 33.9496 125.822 34.8196 126.482 35.4796C127.112 36.1696 127.967 36.5146 129.047 36.5146C130.127 36.5146 130.982 36.1696 131.612 35.4796C132.272 34.8196 132.602 33.9496 132.602 32.8696C132.602 31.7896 132.272 30.9196 131.612 30.2596ZM134.987 27.8296C136.277 29.1196 136.922 30.7996 136.922 32.8696C136.922 34.9396 136.277 36.6196 134.987 37.9096C133.547 39.4096 131.567 40.1596 129.047 40.1596C126.527 40.1596 124.547 39.4096 123.107 37.9096C121.817 36.6196 121.172 34.9396 121.172 32.8696C121.172 30.7996 121.817 29.1196 123.107 27.8296C124.547 26.3296 126.527 25.5796 129.047 25.5796C131.567 25.5796 133.547 26.3296 134.987 27.8296ZM150.512 46.5046C149.882 45.8146 149.027 45.4696 147.947 45.4696C146.867 45.4696 146.012 45.8146 145.382 46.5046C144.722 47.1646 144.392 48.0346 144.392 49.1146C144.392 50.1946 144.722 51.0646 145.382 51.7246C146.012 52.4146 146.867 52.7596 147.947 52.7596C149.027 52.7596 149.882 52.4146 150.512 51.7246C151.172 51.0646 151.502 50.1946 151.502 49.1146C151.502 48.0346 151.172 47.1646 150.512 46.5046ZM153.887 44.0746C155.177 45.3646 155.822 47.0446 155.822 49.1146C155.822 51.1846 155.177 52.8646 153.887 54.1546C152.447 55.6546 150.467 56.4046 147.947 56.4046C145.427 56.4046 143.447 55.6546 142.007 54.1546C140.717 52.8646 140.072 51.1846 140.072 49.1146C140.072 47.0446 140.717 45.3646 142.007 44.0746C143.447 42.5746 145.427 41.8246 147.947 41.8246C150.467 41.8246 152.447 42.5746 153.887 44.0746Z" fill="#424242"/>
<path d="M23.0157 70.746H28.3597V77.386H27.2077V71.802H24.1677V77.386H23.0157V70.746ZM31.6834 76.458V81.066H30.5314V70.746H31.6834V71.674C32.27 70.9487 33.0274 70.586 33.9554 70.586C34.9474 70.586 35.7314 70.938 36.3074 71.642C36.894 72.3353 37.1874 73.1567 37.1874 74.106C37.1874 75.066 36.8994 75.8873 36.3234 76.57C35.7474 77.242 34.974 77.578 34.0034 77.578C33.0327 77.578 32.2594 77.2047 31.6834 76.458ZM33.8434 76.554C34.494 76.554 35.0167 76.3193 35.4114 75.85C35.806 75.37 36.0034 74.7887 36.0034 74.106C36.0034 73.338 35.7847 72.73 35.3474 72.282C34.91 71.834 34.4034 71.61 33.8274 71.61C33.2514 71.61 32.7394 71.834 32.2914 72.282C31.8434 72.73 31.6194 73.3327 31.6194 74.09C31.6194 74.7833 31.822 75.37 32.2274 75.85C32.6434 76.3193 33.182 76.554 33.8434 76.554ZM38.9532 70.746H40.1052V75.13L44.6492 70.234V77.386H43.4972V72.954L38.9532 77.85V70.746ZM51.9482 66.186H53.2282C53.1109 66.5807 52.9082 66.9167 52.6202 67.194C52.3429 67.4607 52.0869 67.642 51.8522 67.738C51.6282 67.834 51.3616 67.9193 51.0522 67.994C50.9989 68.0047 50.8709 68.0367 50.6682 68.09C50.4656 68.1327 50.3109 68.17 50.2042 68.202C50.0976 68.234 49.9589 68.2767 49.7882 68.33C49.6176 68.3833 49.4629 68.4473 49.3242 68.522C49.1856 68.5967 49.0576 68.6767 48.9402 68.762C48.5349 69.0713 48.2042 69.5033 47.9482 70.058C47.7029 70.602 47.5696 71.1833 47.5482 71.802H47.5802C48.0602 70.9913 48.8656 70.586 49.9962 70.586C50.9882 70.586 51.8096 70.922 52.4602 71.594C53.1216 72.266 53.4522 73.098 53.4522 74.09C53.4522 75.0927 53.1162 75.9247 52.4442 76.586C51.7722 77.2473 50.8976 77.578 49.8202 77.578C48.8922 77.578 48.1296 77.3007 47.5322 76.746C46.7856 76.0633 46.4122 74.922 46.4122 73.322C46.4122 70.538 47.0416 68.714 48.3002 67.85C48.3962 67.786 48.4976 67.7273 48.6042 67.674C48.7109 67.61 48.8229 67.5567 48.9402 67.514C49.0682 67.4607 49.1749 67.418 49.2602 67.386C49.3456 67.3433 49.4629 67.306 49.6122 67.274C49.7722 67.2313 49.8789 67.2047 49.9322 67.194C49.9962 67.1727 50.1136 67.146 50.2842 67.114C50.4656 67.0713 50.5776 67.0447 50.6202 67.034C51.0469 66.938 51.3562 66.826 51.5482 66.698C51.7402 66.5593 51.8736 66.3887 51.9482 66.186ZM51.5802 72.266C51.1322 71.8287 50.5829 71.61 49.9322 71.61C49.2816 71.61 48.7269 71.834 48.2682 72.282C47.8202 72.7193 47.5962 73.322 47.5962 74.09C47.5962 74.858 47.8256 75.4607 48.2842 75.898C48.7429 76.3353 49.2922 76.554 49.9322 76.554C50.5722 76.554 51.1216 76.3353 51.5802 75.898C52.0389 75.4607 52.2682 74.858 52.2682 74.09C52.2682 73.3113 52.0389 72.7033 51.5802 72.266ZM55.2189 77.386V70.746H56.3709V73.29H57.5549C58.4722 73.29 59.1442 73.5087 59.5709 73.946C59.9122 74.2873 60.0829 74.7513 60.0829 75.338C60.0829 75.9567 59.8855 76.4527 59.4909 76.826C59.0962 77.1993 58.4455 77.386 57.5389 77.386H55.2189ZM56.3709 76.362H57.4429C57.9229 76.362 58.2642 76.3033 58.4669 76.186C58.7549 75.994 58.8989 75.7113 58.8989 75.338C58.8989 74.954 58.7602 74.6767 58.4829 74.506C58.2909 74.378 57.9495 74.314 57.4589 74.314H56.3709V76.362ZM60.8829 77.386V70.746H62.0349V77.386H60.8829ZM69.2272 70.746V77.386H68.0752V71.802H65.7072V74.794C65.7072 75.658 65.5366 76.298 65.1952 76.714C64.8112 77.1833 64.2779 77.418 63.5952 77.418C63.5099 77.418 63.3926 77.4073 63.2432 77.386V76.33C63.3499 76.3513 63.4352 76.362 63.4992 76.362C63.8726 76.362 64.1499 76.218 64.3312 75.93C64.4806 75.6953 64.5552 75.3167 64.5552 74.794V70.746H69.2272ZM71.4064 70.746H72.5584V75.13L77.1024 70.234V77.386H75.9504V72.954L71.4064 77.85V70.746ZM83.8797 72.442L83.0797 71.786C83.3357 71.4127 83.6184 71.1353 83.9277 70.954C84.3437 70.7087 84.8291 70.586 85.3837 70.586C86.0557 70.586 86.5784 70.7407 86.9517 71.05C87.3357 71.3807 87.5277 71.802 87.5277 72.314C87.5277 72.9327 87.2771 73.3967 86.7757 73.706C87.0957 73.7807 87.3517 73.9247 87.5437 74.138C87.8531 74.4687 88.0077 74.874 88.0077 75.354C88.0077 76.0687 87.7197 76.6393 87.1437 77.066C86.6744 77.4073 86.0451 77.578 85.2557 77.578C84.5517 77.578 83.9597 77.3913 83.4797 77.018C83.1171 76.7513 82.8237 76.3727 82.5997 75.882L83.5917 75.466C83.7091 75.7647 83.9064 76.0153 84.1837 76.218C84.4824 76.442 84.8451 76.554 85.2717 76.554C85.7731 76.554 86.1464 76.4687 86.3917 76.298C86.7011 76.0953 86.8557 75.786 86.8557 75.37C86.8557 75.0287 86.7224 74.7727 86.4557 74.602C86.2317 74.4527 85.8691 74.378 85.3677 74.378H84.6957V73.322H85.2557C85.6611 73.322 85.9491 73.2633 86.1197 73.146C86.3544 72.9967 86.4717 72.794 86.4717 72.538C86.4717 72.2393 86.3757 72.01 86.1837 71.85C86.0024 71.69 85.7197 71.61 85.3357 71.61C85.0051 71.61 84.7011 71.6953 84.4237 71.866C84.1891 72.0153 84.0077 72.2073 83.8797 72.442ZM94.8537 71.69V70.746H96.0057V77.386H94.8537V76.458C94.2777 77.2047 93.5204 77.578 92.5817 77.578C91.6857 77.578 90.9231 77.2687 90.2937 76.65C89.6644 76.0313 89.3497 75.1673 89.3497 74.058C89.3497 72.97 89.6591 72.122 90.2777 71.514C90.9071 70.8953 91.6751 70.586 92.5817 70.586C93.5417 70.586 94.2991 70.954 94.8537 71.69ZM92.7097 71.61C92.1017 71.61 91.5844 71.8287 91.1577 72.266C90.7417 72.6927 90.5337 73.29 90.5337 74.058C90.5337 74.794 90.7257 75.3967 91.1097 75.866C91.5044 76.3247 92.0377 76.554 92.7097 76.554C93.3817 76.554 93.9151 76.314 94.3097 75.834C94.7151 75.354 94.9177 74.7673 94.9177 74.074C94.9177 73.2847 94.6937 72.6767 94.2457 72.25C93.7977 71.8233 93.2857 71.61 92.7097 71.61ZM108.498 66.714V67.802H105.074L104.386 70.106C104.567 70.0633 104.791 70.042 105.058 70.042C106.114 70.042 106.962 70.394 107.602 71.098C108.253 71.802 108.578 72.682 108.578 73.738C108.578 74.89 108.199 75.818 107.442 76.522C106.695 77.226 105.778 77.578 104.69 77.578C103.773 77.578 102.978 77.3007 102.306 76.746C101.922 76.4153 101.613 76.0527 101.378 75.658L102.322 74.986C102.482 75.306 102.722 75.594 103.042 75.85C103.565 76.2767 104.141 76.49 104.77 76.49C105.517 76.49 106.141 76.2233 106.642 75.69C107.143 75.1567 107.394 74.5113 107.394 73.754C107.394 72.986 107.143 72.3567 106.642 71.866C106.151 71.3753 105.527 71.13 104.77 71.13C104.098 71.13 103.41 71.3753 102.706 71.866L104.258 66.714H108.498ZM113.982 77.386L115.582 70.234L118.334 75.642L121.022 70.234L122.622 77.386H121.438L120.558 73.274L118.302 77.85L116.014 73.274L115.166 77.386H113.982ZM128.959 75.162L129.919 75.69C129.695 76.1167 129.423 76.474 129.103 76.762C128.495 77.306 127.759 77.578 126.895 77.578C125.999 77.578 125.226 77.29 124.575 76.714C123.935 76.1273 123.615 75.258 123.615 74.106C123.615 73.0927 123.903 72.2553 124.479 71.594C125.066 70.922 125.85 70.586 126.831 70.586C127.941 70.586 128.778 70.9913 129.343 71.802C129.791 72.442 129.999 73.274 129.967 74.298H124.799C124.81 74.97 125.018 75.514 125.423 75.93C125.829 76.346 126.325 76.554 126.911 76.554C127.434 76.554 127.887 76.394 128.271 76.074C128.57 75.818 128.799 75.514 128.959 75.162ZM124.879 73.338H128.783C128.687 72.8153 128.458 72.3993 128.095 72.09C127.743 71.77 127.322 71.61 126.831 71.61C126.351 71.61 125.925 71.7753 125.551 72.106C125.189 72.426 124.965 72.8367 124.879 73.338ZM136.934 71.226V72.602C136.412 71.9407 135.718 71.61 134.854 71.61C134.204 71.61 133.649 71.834 133.19 72.282C132.732 72.7193 132.502 73.322 132.502 74.09C132.502 74.858 132.732 75.4607 133.19 75.898C133.649 76.3353 134.198 76.554 134.838 76.554C135.692 76.554 136.406 76.2073 136.982 75.514V76.89C136.353 77.3487 135.649 77.578 134.87 77.578C133.836 77.578 132.982 77.2527 132.31 76.602C131.649 75.9407 131.318 75.1087 131.318 74.106C131.318 73.0927 131.654 72.2553 132.326 71.594C132.998 70.922 133.846 70.586 134.87 70.586C135.638 70.586 136.326 70.7993 136.934 71.226ZM137.982 77.386L140.046 74.65C139.982 74.65 139.891 74.6393 139.774 74.618C139.667 74.5967 139.507 74.5433 139.294 74.458C139.081 74.3727 138.905 74.2607 138.766 74.122C138.414 73.7913 138.238 73.3487 138.238 72.794C138.238 72.1647 138.435 71.6687 138.83 71.306C139.225 70.9327 139.875 70.746 140.782 70.746H143.102V77.386H141.95V74.714H141.246L139.358 77.386H137.982ZM141.95 73.754V71.77H140.878C140.377 71.77 140.03 71.8287 139.838 71.946C139.561 72.1273 139.422 72.3993 139.422 72.762C139.422 73.1247 139.561 73.3913 139.838 73.562C140.041 73.69 140.382 73.754 140.862 73.754H141.95ZM145.281 77.386V70.746H146.433V76.33H149.409V70.746H150.561V76.33H151.649V79.146H150.593V77.386H145.281ZM157.787 75.162L158.747 75.69C158.523 76.1167 158.251 76.474 157.931 76.762C157.323 77.306 156.587 77.578 155.723 77.578C154.827 77.578 154.054 77.29 153.403 76.714C152.763 76.1273 152.443 75.258 152.443 74.106C152.443 73.0927 152.731 72.2553 153.307 71.594C153.894 70.922 154.678 70.586 155.659 70.586C156.769 70.586 157.606 70.9913 158.171 71.802C158.619 72.442 158.827 73.274 158.795 74.298H153.627C153.638 74.97 153.846 75.514 154.251 75.93C154.657 76.346 155.153 76.554 155.739 76.554C156.262 76.554 156.715 76.394 157.099 76.074C157.398 75.818 157.627 75.514 157.787 75.162ZM153.707 73.338H157.611C157.515 72.8153 157.286 72.3993 156.923 72.09C156.571 71.77 156.15 71.61 155.659 71.61C155.179 71.61 154.753 71.7753 154.379 72.106C154.017 72.426 153.793 72.8367 153.707 73.338ZM160.563 70.746H163.075C163.683 70.746 164.147 70.874 164.467 71.13C164.851 71.4393 165.043 71.8553 165.043 72.378C165.043 72.954 164.803 73.3967 164.323 73.706C164.653 73.7913 164.931 73.9407 165.155 74.154C165.507 74.4953 165.683 74.922 165.683 75.434C165.683 76.074 165.453 76.5753 164.995 76.938C164.6 77.2367 164.077 77.386 163.427 77.386H160.563V70.746ZM161.715 73.45H162.931C163.24 73.45 163.485 73.386 163.667 73.258C163.88 73.098 163.987 72.8687 163.987 72.57C163.987 72.3033 163.88 72.09 163.667 71.93C163.507 71.8233 163.197 71.77 162.739 71.77H161.715V73.45ZM161.715 76.362H163.139C163.629 76.362 163.976 76.2873 164.179 76.138C164.435 75.946 164.563 75.7007 164.563 75.402C164.563 75.082 164.451 74.8313 164.227 74.65C164.024 74.49 163.677 74.41 163.187 74.41H161.715V76.362Z" fill="#424242"/>
<path opacity="0.2" d="M7.07422 0.508057V223.668" stroke="#B8B8B8"/>
<circle cx="8.93057" cy="201.267" r="7.35635" fill="#FFDD2D" stroke="white" stroke-width="2"/>
<defs>
<linearGradient id="paint0_linear" x1="204.839" y1="21.6469" x2="204.839" y2="223.669" gradientUnits="userSpaceOnUse">
<stop stop-color="#FFDD2D"/>
<stop offset="1" stop-color="#FFDD2D" stop-opacity="0"/>
</linearGradient>
</defs>
</svg>
