<svg width="69" height="83" viewBox="0 0 69 83" fill="none" xmlns="http://www.w3.org/2000/svg">
<g clip-path="url(#clip0)">
<path d="M18.0391 13.7836C18.0391 9.3653 21.6208 5.78357 26.0391 5.78357H60.1771C64.5954 5.78357 68.1771 9.36529 68.1771 13.7836V70.2053C68.1771 74.6235 64.5954 78.2053 60.1771 78.2053H26.0391C21.6208 78.2053 18.0391 74.6235 18.0391 70.2053V13.7836Z" fill="#E31937"/>
<path d="M56.6887 64.2485V67.4084H57.7074V65.3045H61.4149V67.4084H62.4328V64.254L56.6887 64.2485V64.2485ZM57.5939 63.2263H61.5109C62.0549 63.1188 62.4595 62.641 62.5736 62.179H56.5312C56.6442 62.6413 57.0547 63.1188 57.5939 63.2263Z" fill="white"/>
<path d="M53.3902 67.0597C53.8828 66.8676 54.1479 66.5352 54.2495 66.1462H49.8669L49.8698 62.4211L48.8874 62.4237V67.0597H53.3902V67.0597ZM41.5818 63.3353H45.0517C45.5748 63.1955 46.0141 62.8289 46.1211 62.4224H40.609V65.1621H45.1204V66.1235L41.5817 66.1262C41.0271 66.2685 40.5568 66.6111 40.3223 67.0636L40.609 67.0587H46.0897V64.2513H41.5817V63.3353" fill="white"/>
<path d="M32.362 63.2219H36.2777C36.8225 63.1139 37.2274 62.6365 37.3409 62.1741H31.2988C31.4116 62.6365 31.8224 63.1139 32.362 63.2219ZM32.362 65.2872H36.2777C36.8225 65.1804 37.2274 64.7026 37.3409 64.2399H31.2988C31.4116 64.7029 31.8224 65.1804 32.362 65.2872ZM32.362 67.4096H36.2777C36.8225 67.3018 37.2274 66.8242 37.3409 66.362H31.2988C31.4116 66.8246 31.8224 67.3018 32.362 67.4096Z" fill="white"/>
<path d="M21.7539 62.4301C21.886 62.8362 22.332 63.2511 22.9436 63.3553H24.7926L24.887 63.3846V67.0636H26.0416V63.3846L26.1466 63.3553H27.9972C28.6159 63.2296 29.052 62.8362 29.1818 62.4301V62.4211H21.7539V62.4301" fill="white"/>
<path d="M43.1403 51.8488L48.2833 23.0765C53.1852 23.0765 54.7314 23.6113 54.9548 25.7938C54.9548 25.7938 58.2434 24.5741 59.9018 22.0969C53.4296 19.1135 46.9265 18.979 46.9265 18.979L43.1319 23.5766L43.1404 23.5761L39.3456 18.9783C39.3456 18.9783 32.8424 19.113 26.3711 22.0963C28.0282 24.5736 31.3179 25.7933 31.3179 25.7933C31.5425 23.6105 33.0868 23.0758 37.956 23.0723L43.1403 51.8488" fill="white"/>
<path d="M43.1385 17.6512C48.3703 17.6114 54.3586 18.4563 60.4891 21.1142C61.3085 19.6472 61.5191 18.9988 61.5191 18.9988C54.8176 16.3614 48.5418 15.4588 43.1377 15.4362C37.7338 15.4588 31.4583 16.3615 24.7578 18.9988C24.7578 18.9988 25.0567 19.7974 25.7871 21.1142C31.9163 18.4563 37.9059 17.6114 43.1379 17.6512H43.1385" fill="white"/>
</g>
<defs>
<clipPath id="clip0">
<rect width="67.7793" height="81.9885" fill="white" transform="translate(0.398438 0.497437)"/>
</clipPath>
</defs>
</svg>
