<svg width="430" height="241" viewBox="0 0 430 241" fill="none" xmlns="http://www.w3.org/2000/svg">
<path opacity="0.2" d="M205.139 0.678711V215.679" stroke="#B8B8B8"/>
<path opacity="0.2" d="M403.139 0.678711V215.679" stroke="#B8B8B8"/>
<path opacity="0.2" d="M7.13867 215.679H403.139" stroke="#B8B8B8"/>
<path opacity="0.2" d="M7.13867 0.678711H403.139" stroke="#B8B8B8"/>
<path opacity="0.2" d="M7.13867 107.679H403.139" stroke="#B8B8B8"/>
<path opacity="0.79" d="M69.8963 185.996L8.99816 193.135L7.13867 196.892V215.679H403.209V28.1875L404.139 23.6787L331.619 42.8411L291.175 93.9409L206.104 108.219L177.746 117.988L147.53 154.058L108.945 161.197L69.8963 185.996Z" fill="url(#paint0_linear)"/>
<path opacity="0.79" d="M9.13867 192.679L70.0151 185.559L109.05 160.827L147.621 153.708L177.827 117.734L206.174 107.991L291.215 93.7519L331.645 42.7896L404.139 23.6787" stroke="#FFDD2D" stroke-width="5"/>
<circle cx="403.127" cy="24.0398" r="7.36106" fill="#FFDD2D" stroke="white" stroke-width="2"/>
<path d="M8.85067 237.175V238.679H1.68267L5.37867 234.199C5.93334 233.527 6.36001 232.972 6.65867 232.535C7.03201 231.98 7.21867 231.468 7.21867 230.999C7.21867 230.519 7.06401 230.113 6.75467 229.783C6.44534 229.441 6.00801 229.271 5.44267 229.271C4.87734 229.271 4.42934 229.457 4.09867 229.831C3.76801 230.204 3.58667 230.663 3.55467 231.207H1.98667C2.02934 230.268 2.32801 229.489 2.88267 228.871C3.50134 228.177 4.33334 227.831 5.37867 227.831C6.45601 227.831 7.29867 228.145 7.90667 228.775C8.51467 229.404 8.81867 230.161 8.81867 231.047C8.81867 231.783 8.56267 232.529 8.05067 233.287C7.77334 233.703 7.26667 234.343 6.53067 235.207L4.86667 237.175H8.85067ZM17.4894 228.007V229.511H14.1934L13.6654 231.287C13.8788 231.265 14.0441 231.255 14.1614 231.255C15.1641 231.255 15.9854 231.569 16.6254 232.199C17.3188 232.871 17.6654 233.783 17.6654 234.935C17.6654 236.097 17.3028 237.041 16.5774 237.767C15.8414 238.492 14.8548 238.855 13.6174 238.855C12.8068 238.855 12.1241 238.695 11.5694 238.375C11.0574 238.065 10.6361 237.655 10.3054 237.143L11.5374 236.119C11.6868 236.481 11.9588 236.791 12.3534 237.047C12.7161 237.292 13.1801 237.415 13.7454 237.415C14.4174 237.415 14.9614 237.217 15.3774 236.823C15.8361 236.364 16.0654 235.761 16.0654 235.015C16.0654 234.268 15.8521 233.692 15.4254 233.287C15.0094 232.892 14.4281 232.695 13.6814 232.695C13.2548 232.695 12.8388 232.769 12.4334 232.919C12.0708 233.057 11.7561 233.217 11.4894 233.399L13.0734 228.007H17.4894ZM26.5672 229.607L25.2552 230.375C25.1485 230.119 24.9885 229.895 24.7752 229.703C24.4765 229.447 24.0925 229.319 23.6232 229.319C23.1218 229.319 22.7272 229.463 22.4392 229.751C22.2258 229.964 22.1192 230.236 22.1192 230.567C22.1192 230.929 22.2578 231.228 22.5352 231.463C22.7485 231.644 23.0845 231.825 23.5432 232.007L24.3432 232.327C25.1538 232.657 25.7458 233.031 26.1192 233.447C26.6098 233.991 26.8552 234.663 26.8552 235.463C26.8552 236.423 26.5458 237.233 25.9272 237.895C25.4365 238.417 24.8498 238.727 24.1672 238.823V240.439H22.9832V238.871C22.1618 238.807 21.4685 238.455 20.9032 237.815C20.3805 237.228 20.0818 236.535 20.0072 235.735L21.6232 235.383C21.6232 235.895 21.7725 236.348 22.0712 236.743C22.4125 237.169 22.8765 237.383 23.4632 237.383C23.9752 237.383 24.3965 237.212 24.7272 236.871C25.0578 236.54 25.2232 236.113 25.2232 235.591C25.2232 235.132 25.0685 234.743 24.7592 234.423C24.5565 234.209 24.1992 233.991 23.6872 233.767L22.6632 233.335C22.0445 233.068 21.5432 232.743 21.1592 232.359C20.7112 231.9 20.4872 231.356 20.4872 230.727C20.4872 229.873 20.7592 229.185 21.3032 228.663C21.7618 228.225 22.3218 227.959 22.9832 227.863V226.439H24.1672V227.847C24.6792 227.889 25.1432 228.065 25.5592 228.375C25.9965 228.716 26.3325 229.127 26.5672 229.607Z" fill="#424242"/>
<path d="M385.851 237.175V238.679H378.683L382.379 234.199C382.933 233.527 383.36 232.972 383.659 232.535C384.032 231.98 384.219 231.468 384.219 230.999C384.219 230.519 384.064 230.113 383.755 229.783C383.445 229.441 383.008 229.271 382.443 229.271C381.877 229.271 381.429 229.457 381.099 229.831C380.768 230.204 380.587 230.663 380.555 231.207H378.987C379.029 230.268 379.328 229.489 379.883 228.871C380.501 228.177 381.333 227.831 382.379 227.831C383.456 227.831 384.299 228.145 384.907 228.775C385.515 229.404 385.819 230.161 385.819 231.047C385.819 231.783 385.563 232.529 385.051 233.287C384.773 233.703 384.267 234.343 383.531 235.207L381.867 237.175H385.851ZM394.192 237.703C393.52 238.471 392.715 238.855 391.776 238.855C390.838 238.855 390.032 238.471 389.36 237.703C388.454 236.668 388 235.217 388 233.351C388 231.473 388.454 230.017 389.36 228.983C390.032 228.215 390.838 227.831 391.776 227.831C392.715 227.831 393.52 228.215 394.192 228.983C395.099 230.017 395.552 231.473 395.552 233.351C395.552 235.217 395.099 236.668 394.192 237.703ZM393.216 230.151C392.832 229.564 392.352 229.271 391.776 229.271C391.2 229.271 390.72 229.564 390.336 230.151C389.846 230.876 389.6 231.937 389.6 233.335C389.6 234.721 389.846 235.788 390.336 236.535C390.72 237.121 391.2 237.415 391.776 237.415C392.352 237.415 392.832 237.121 393.216 236.535C393.707 235.788 393.952 234.721 393.952 233.335C393.952 231.937 393.707 230.876 393.216 230.151ZM403.286 237.703C402.614 238.471 401.809 238.855 400.87 238.855C399.932 238.855 399.126 238.471 398.454 237.703C397.548 236.668 397.094 235.217 397.094 233.351C397.094 231.473 397.548 230.017 398.454 228.983C399.126 228.215 399.932 227.831 400.87 227.831C401.809 227.831 402.614 228.215 403.286 228.983C404.193 230.017 404.646 231.473 404.646 233.351C404.646 235.217 404.193 236.668 403.286 237.703ZM402.31 230.151C401.926 229.564 401.446 229.271 400.87 229.271C400.294 229.271 399.814 229.564 399.43 230.151C398.94 230.876 398.694 231.937 398.694 233.335C398.694 234.721 398.94 235.788 399.43 236.535C399.814 237.121 400.294 237.415 400.87 237.415C401.446 237.415 401.926 237.121 402.31 236.535C402.801 235.788 403.046 234.721 403.046 233.335C403.046 231.937 402.801 230.876 402.31 230.151ZM413.036 229.607L411.724 230.375C411.617 230.119 411.457 229.895 411.244 229.703C410.945 229.447 410.561 229.319 410.092 229.319C409.591 229.319 409.196 229.463 408.908 229.751C408.695 229.964 408.588 230.236 408.588 230.567C408.588 230.929 408.727 231.228 409.004 231.463C409.217 231.644 409.553 231.825 410.012 232.007L410.812 232.327C411.623 232.657 412.215 233.031 412.588 233.447C413.079 233.991 413.324 234.663 413.324 235.463C413.324 236.423 413.015 237.233 412.396 237.895C411.905 238.417 411.319 238.727 410.636 238.823V240.439H409.452V238.871C408.631 238.807 407.937 238.455 407.372 237.815C406.849 237.228 406.551 236.535 406.476 235.735L408.092 235.383C408.092 235.895 408.241 236.348 408.54 236.743C408.881 237.169 409.345 237.383 409.932 237.383C410.444 237.383 410.865 237.212 411.196 236.871C411.527 236.54 411.692 236.113 411.692 235.591C411.692 235.132 411.537 234.743 411.228 234.423C411.025 234.209 410.668 233.991 410.156 233.767L409.132 233.335C408.513 233.068 408.012 232.743 407.628 232.359C407.18 231.9 406.956 231.356 406.956 230.727C406.956 229.873 407.228 229.185 407.772 228.663C408.231 228.225 408.791 227.959 409.452 227.863V226.439H410.636V227.847C411.148 227.889 411.612 228.065 412.028 228.375C412.465 228.716 412.801 229.127 413.036 229.607Z" fill="#424242"/>
<path d="M26.485 42.9887V37.7687H33.415V30.8387H39.085V37.7687H46.015V42.9887H39.085V49.9637H33.415V42.9887H26.485ZM60.955 56.3537C59.815 56.3537 58.87 56.3087 58.12 56.2187C57.4 56.1587 56.53 55.9337 55.51 55.5437C54.52 55.1537 53.605 54.5837 52.765 53.8337C50.845 52.0937 49.885 49.9187 49.885 47.3087C49.885 45.2987 50.56 43.5887 51.91 42.1787C52.9 41.1587 54.145 40.4087 55.645 39.9287C54.565 39.4787 53.65 38.8637 52.9 38.0837C51.67 36.8237 51.055 35.2337 51.055 33.3137C51.055 31.0637 51.79 29.2037 53.26 27.7337C55.06 25.9037 57.655 24.9887 61.045 24.9887C64.375 24.9887 66.94 25.9037 68.74 27.7337C70.21 29.2037 70.945 31.0637 70.945 33.3137C70.945 35.2337 70.33 36.8237 69.1 38.0837C68.35 38.8637 67.435 39.4787 66.355 39.9287C67.855 40.4087 69.1 41.1587 70.09 42.1787C71.44 43.5887 72.115 45.2987 72.115 47.3087C72.115 49.9187 71.155 52.0937 69.235 53.8337C68.035 54.9137 66.805 55.6037 65.545 55.9037C64.285 56.2037 62.755 56.3537 60.955 56.3537ZM63.61 31.0637C62.89 30.4337 62.02 30.1187 61 30.1187C59.98 30.1187 59.095 30.4487 58.345 31.1087C57.595 31.8287 57.22 32.6837 57.22 33.6737C57.22 34.6937 57.595 35.5487 58.345 36.2387C59.095 36.8987 59.98 37.2287 61 37.2287C62.05 37.2287 62.92 36.8987 63.61 36.2387C64.36 35.5187 64.735 34.6637 64.735 33.6737C64.735 32.6837 64.36 31.8137 63.61 31.0637ZM60.91 42.7187C59.74 42.7187 58.795 43.0787 58.075 43.7987C57.295 44.5787 56.905 45.5687 56.905 46.7687C56.905 48.0287 57.295 49.0337 58.075 49.7837C58.825 50.5037 59.8 50.8637 61 50.8637C62.2 50.8637 63.175 50.5037 63.925 49.7837C64.705 49.0637 65.095 48.0437 65.095 46.7237C65.095 45.4937 64.705 44.5187 63.925 43.7987C63.205 43.0787 62.2 42.7187 60.91 42.7187ZM100.312 40.6937C100.312 46.2137 98.8724 50.3987 95.9924 53.2487C93.8624 55.3187 91.1774 56.3537 87.9374 56.3537C84.7574 56.3537 82.1024 55.3187 79.9724 53.2487C77.0924 50.3987 75.6524 46.2137 75.6524 40.6937C75.6524 35.0837 77.0924 30.8837 79.9724 28.0937C82.1024 26.0237 84.7574 24.9887 87.9374 24.9887C91.1774 24.9887 93.8624 26.0237 95.9924 28.0937C98.8724 30.8837 100.312 35.0837 100.312 40.6937ZM90.7724 32.0537C89.9924 31.3037 89.0624 30.9287 87.9824 30.9287C86.9024 30.9287 85.9724 31.3037 85.1924 32.0537C83.5124 33.7037 82.6724 36.5687 82.6724 40.6487C82.6724 44.7587 83.5124 47.6387 85.1924 49.2887C85.9724 50.0387 86.9024 50.4137 87.9824 50.4137C89.0624 50.4137 89.9924 50.0387 90.7724 49.2887C92.4524 47.6387 93.2924 44.7587 93.2924 40.6487C93.2924 36.5687 92.4524 33.7037 90.7724 32.0537ZM127.295 40.6937C127.295 46.2137 125.855 50.3987 122.975 53.2487C120.845 55.3187 118.16 56.3537 114.92 56.3537C111.74 56.3537 109.085 55.3187 106.955 53.2487C104.075 50.3987 102.635 46.2137 102.635 40.6937C102.635 35.0837 104.075 30.8837 106.955 28.0937C109.085 26.0237 111.74 24.9887 114.92 24.9887C118.16 24.9887 120.845 26.0237 122.975 28.0937C125.855 30.8837 127.295 35.0837 127.295 40.6937ZM117.755 32.0537C116.975 31.3037 116.045 30.9287 114.965 30.9287C113.885 30.9287 112.955 31.3037 112.175 32.0537C110.495 33.7037 109.655 36.5687 109.655 40.6487C109.655 44.7587 110.495 47.6387 112.175 49.2887C112.955 50.0387 113.885 50.4137 114.965 50.4137C116.045 50.4137 116.975 50.0387 117.755 49.2887C119.435 47.6387 120.275 44.7587 120.275 40.6487C120.275 36.5687 119.435 33.7037 117.755 32.0537ZM136.772 55.5887L154.367 25.1687L157.517 25.8437L139.877 56.3087L136.772 55.5887ZM140.237 29.9387C139.607 29.2487 138.752 28.9037 137.672 28.9037C136.592 28.9037 135.737 29.2487 135.107 29.9387C134.447 30.5987 134.117 31.4687 134.117 32.5487C134.117 33.6287 134.447 34.4987 135.107 35.1587C135.737 35.8487 136.592 36.1937 137.672 36.1937C138.752 36.1937 139.607 35.8487 140.237 35.1587C140.897 34.4987 141.227 33.6287 141.227 32.5487C141.227 31.4687 140.897 30.5987 140.237 29.9387ZM143.612 27.5087C144.902 28.7987 145.547 30.4787 145.547 32.5487C145.547 34.6187 144.902 36.2987 143.612 37.5887C142.172 39.0887 140.192 39.8387 137.672 39.8387C135.152 39.8387 133.172 39.0887 131.732 37.5887C130.442 36.2987 129.797 34.6187 129.797 32.5487C129.797 30.4787 130.442 28.7987 131.732 27.5087C133.172 26.0087 135.152 25.2587 137.672 25.2587C140.192 25.2587 142.172 26.0087 143.612 27.5087ZM159.137 46.1837C158.507 45.4937 157.652 45.1487 156.572 45.1487C155.492 45.1487 154.637 45.4937 154.007 46.1837C153.347 46.8437 153.017 47.7137 153.017 48.7937C153.017 49.8737 153.347 50.7437 154.007 51.4037C154.637 52.0937 155.492 52.4387 156.572 52.4387C157.652 52.4387 158.507 52.0937 159.137 51.4037C159.797 50.7437 160.127 49.8737 160.127 48.7937C160.127 47.7137 159.797 46.8437 159.137 46.1837ZM162.512 43.7537C163.802 45.0437 164.447 46.7237 164.447 48.7937C164.447 50.8637 163.802 52.5437 162.512 53.8337C161.072 55.3337 159.092 56.0837 156.572 56.0837C154.052 56.0837 152.072 55.3337 150.632 53.8337C149.342 52.5437 148.697 50.8637 148.697 48.7937C148.697 46.7237 149.342 45.0437 150.632 43.7537C152.072 42.2537 154.052 41.5037 156.572 41.5037C159.092 41.5037 161.072 42.2537 162.512 43.7537Z" fill="#424242"/>
<path d="M26.2267 77.5646H31.5707V84.2046H30.4187V78.6206H27.3787V84.2046H26.2267V77.5646ZM34.8943 83.2766V87.8846H33.7423V77.5646H34.8943V78.4926C35.481 77.7673 36.2383 77.4046 37.1663 77.4046C38.1583 77.4046 38.9423 77.7566 39.5183 78.4606C40.105 79.1539 40.3983 79.9753 40.3983 80.9246C40.3983 81.8846 40.1103 82.7059 39.5343 83.3886C38.9583 84.0606 38.185 84.3966 37.2143 84.3966C36.2436 84.3966 35.4703 84.0233 34.8943 83.2766ZM37.0543 83.3726C37.705 83.3726 38.2276 83.1379 38.6223 82.6686C39.017 82.1886 39.2143 81.6073 39.2143 80.9246C39.2143 80.1566 38.9956 79.5486 38.5583 79.1006C38.121 78.6526 37.6143 78.4286 37.0383 78.4286C36.4623 78.4286 35.9503 78.6526 35.5023 79.1006C35.0543 79.5486 34.8303 80.1513 34.8303 80.9086C34.8303 81.6019 35.033 82.1886 35.4383 82.6686C35.8543 83.1379 36.393 83.3726 37.0543 83.3726ZM42.1642 77.5646H43.3162V81.9486L47.8602 77.0526V84.2046H46.7082V79.7726L42.1642 84.6686V77.5646ZM55.1592 73.0046H56.4392C56.3218 73.3993 56.1192 73.7353 55.8312 74.0126C55.5538 74.2793 55.2978 74.4606 55.0632 74.5566C54.8392 74.6526 54.5725 74.7379 54.2632 74.8126C54.2098 74.8233 54.0818 74.8553 53.8792 74.9086C53.6765 74.9513 53.5218 74.9886 53.4152 75.0206C53.3085 75.0526 53.1698 75.0953 52.9992 75.1486C52.8285 75.2019 52.6738 75.2659 52.5352 75.3406C52.3965 75.4153 52.2685 75.4953 52.1512 75.5806C51.7458 75.8899 51.4152 76.3219 51.1592 76.8766C50.9138 77.4206 50.7805 78.0019 50.7592 78.6206H50.7912C51.2712 77.8099 52.0765 77.4046 53.2072 77.4046C54.1992 77.4046 55.0205 77.7406 55.6712 78.4126C56.3325 79.0846 56.6632 79.9166 56.6632 80.9086C56.6632 81.9113 56.3272 82.7433 55.6552 83.4046C54.9832 84.0659 54.1085 84.3966 53.0312 84.3966C52.1032 84.3966 51.3405 84.1193 50.7432 83.5646C49.9965 82.8819 49.6232 81.7406 49.6232 80.1406C49.6232 77.3566 50.2525 75.5326 51.5112 74.6686C51.6072 74.6046 51.7085 74.5459 51.8152 74.4926C51.9218 74.4286 52.0338 74.3753 52.1512 74.3326C52.2792 74.2793 52.3858 74.2366 52.4712 74.2046C52.5565 74.1619 52.6738 74.1246 52.8232 74.0926C52.9832 74.0499 53.0898 74.0233 53.1432 74.0126C53.2072 73.9913 53.3245 73.9646 53.4952 73.9326C53.6765 73.8899 53.7885 73.8633 53.8312 73.8526C54.2578 73.7566 54.5672 73.6446 54.7592 73.5166C54.9512 73.3779 55.0845 73.2073 55.1592 73.0046ZM54.7912 79.0846C54.3432 78.6473 53.7938 78.4286 53.1432 78.4286C52.4925 78.4286 51.9378 78.6526 51.4792 79.1006C51.0312 79.5379 50.8072 80.1406 50.8072 80.9086C50.8072 81.6766 51.0365 82.2793 51.4952 82.7166C51.9538 83.1539 52.5032 83.3726 53.1432 83.3726C53.7832 83.3726 54.3325 83.1539 54.7912 82.7166C55.2498 82.2793 55.4792 81.6766 55.4792 80.9086C55.4792 80.1299 55.2498 79.5219 54.7912 79.0846ZM58.4298 84.2046V77.5646H59.5818V80.1086H60.7658C61.6831 80.1086 62.3551 80.3273 62.7818 80.7646C63.1231 81.1059 63.2938 81.5699 63.2938 82.1566C63.2938 82.7753 63.0965 83.2713 62.7018 83.6446C62.3071 84.0179 61.6565 84.2046 60.7498 84.2046H58.4298ZM59.5818 83.1806H60.6538C61.1338 83.1806 61.4751 83.1219 61.6778 83.0046C61.9658 82.8126 62.1098 82.5299 62.1098 82.1566C62.1098 81.7726 61.9711 81.4953 61.6938 81.3246C61.5018 81.1966 61.1605 81.1326 60.6698 81.1326H59.5818V83.1806ZM64.0938 84.2046V77.5646H65.2458V84.2046H64.0938ZM72.4382 77.5646V84.2046H71.2862V78.6206H68.9182V81.6126C68.9182 82.4766 68.7475 83.1166 68.4062 83.5326C68.0222 84.0019 67.4888 84.2366 66.8062 84.2366C66.7208 84.2366 66.6035 84.2259 66.4542 84.2046V83.1486C66.5608 83.1699 66.6462 83.1806 66.7102 83.1806C67.0835 83.1806 67.3608 83.0366 67.5422 82.7486C67.6915 82.5139 67.7662 82.1353 67.7662 81.6126V77.5646H72.4382ZM74.6173 77.5646H75.7693V81.9486L80.3133 77.0526V84.2046H79.1613V79.7726L74.6173 84.6686V77.5646ZM87.0907 79.2606L86.2907 78.6046C86.5467 78.2313 86.8293 77.9539 87.1387 77.7726C87.5547 77.5273 88.04 77.4046 88.5947 77.4046C89.2667 77.4046 89.7893 77.5593 90.1627 77.8686C90.5467 78.1993 90.7387 78.6206 90.7387 79.1326C90.7387 79.7513 90.488 80.2153 89.9867 80.5246C90.3067 80.5993 90.5627 80.7433 90.7547 80.9566C91.064 81.2873 91.2187 81.6926 91.2187 82.1726C91.2187 82.8873 90.9307 83.4579 90.3547 83.8846C89.8853 84.2259 89.256 84.3966 88.4667 84.3966C87.7627 84.3966 87.1707 84.2099 86.6907 83.8366C86.328 83.5699 86.0347 83.1913 85.8107 82.7006L86.8027 82.2846C86.92 82.5833 87.1173 82.8339 87.3947 83.0366C87.6933 83.2606 88.056 83.3726 88.4827 83.3726C88.984 83.3726 89.3573 83.2873 89.6027 83.1166C89.912 82.9139 90.0667 82.6046 90.0667 82.1886C90.0667 81.8473 89.9333 81.5913 89.6667 81.4206C89.4427 81.2713 89.08 81.1966 88.5787 81.1966H87.9067V80.1406H88.4667C88.872 80.1406 89.16 80.0819 89.3307 79.9646C89.5653 79.8153 89.6827 79.6126 89.6827 79.3566C89.6827 79.0579 89.5867 78.8286 89.3947 78.6686C89.2133 78.5086 88.9307 78.4286 88.5467 78.4286C88.216 78.4286 87.912 78.5139 87.6347 78.6846C87.4 78.8339 87.2187 79.0259 87.0907 79.2606ZM98.0647 78.5086V77.5646H99.2167V84.2046H98.0647V83.2766C97.4887 84.0233 96.7313 84.3966 95.7927 84.3966C94.8967 84.3966 94.134 84.0873 93.5047 83.4686C92.8753 82.8499 92.5607 81.9859 92.5607 80.8766C92.5607 79.7886 92.87 78.9406 93.4887 78.3326C94.118 77.7139 94.886 77.4046 95.7927 77.4046C96.7527 77.4046 97.51 77.7726 98.0647 78.5086ZM95.9207 78.4286C95.3127 78.4286 94.7953 78.6473 94.3687 79.0846C93.9527 79.5113 93.7447 80.1086 93.7447 80.8766C93.7447 81.6126 93.9367 82.2153 94.3207 82.6846C94.7153 83.1433 95.2487 83.3726 95.9207 83.3726C96.5927 83.3726 97.126 83.1326 97.5207 82.6526C97.926 82.1726 98.1287 81.5859 98.1287 80.8926C98.1287 80.1033 97.9047 79.4953 97.4567 79.0686C97.0087 78.6419 96.4967 78.4286 95.9207 78.4286ZM107.757 84.4606L106.861 83.8046L109.309 80.3966C109 80.4926 108.685 80.5406 108.365 80.5406C107.352 80.5406 106.52 80.2046 105.869 79.5326C105.229 78.8606 104.909 78.0233 104.909 77.0206C104.909 75.9539 105.25 75.0793 105.933 74.3966C106.626 73.7033 107.506 73.3566 108.573 73.3566C109.362 73.3566 110.045 73.5486 110.621 73.9326C111.208 74.3059 111.629 74.7646 111.885 75.3086C112.141 75.8419 112.269 76.4019 112.269 76.9886C112.269 77.8099 111.976 78.6259 111.389 79.4366L107.757 84.4606ZM108.589 74.4446C107.864 74.4446 107.266 74.6899 106.797 75.1806C106.328 75.6606 106.093 76.2633 106.093 76.9886C106.093 77.7033 106.328 78.2953 106.797 78.7646C107.277 79.2233 107.88 79.4526 108.605 79.4526C109.33 79.4526 109.922 79.2179 110.381 78.7486C110.85 78.2793 111.085 77.6926 111.085 76.9886C111.085 76.2633 110.85 75.6606 110.381 75.1806C109.922 74.6899 109.325 74.4446 108.589 74.4446ZM118.441 77.5646H123.113V83.1486H124.105V85.9646H123.049V84.2046H117.993V85.9646H116.937V83.1486C117.492 83.1379 117.902 82.8499 118.169 82.2846C118.35 81.9113 118.441 81.3246 118.441 80.5246V77.5646ZM121.961 83.1486V78.6206H119.593V81.1166C119.593 82.0019 119.326 82.6793 118.793 83.1486H121.961ZM125.32 84.2046V77.5646H126.472V80.2846H129.608V77.5646H130.76V84.2046H129.608V81.3406H126.472V84.2046H125.32ZM137.858 81.9806L138.818 82.5086C138.594 82.9353 138.322 83.2926 138.002 83.5806C137.394 84.1246 136.658 84.3966 135.794 84.3966C134.898 84.3966 134.124 84.1086 133.474 83.5326C132.834 82.9459 132.514 82.0766 132.514 80.9246C132.514 79.9113 132.802 79.0739 133.378 78.4126C133.964 77.7406 134.748 77.4046 135.73 77.4046C136.839 77.4046 137.676 77.8099 138.242 78.6206C138.69 79.2606 138.898 80.0926 138.866 81.1166H133.698C133.708 81.7886 133.916 82.3326 134.322 82.7486C134.727 83.1646 135.223 83.3726 135.81 83.3726C136.332 83.3726 136.786 83.2126 137.17 82.8926C137.468 82.6366 137.698 82.3326 137.858 81.9806ZM133.778 80.1566H137.682C137.586 79.6339 137.356 79.2179 136.994 78.9086C136.642 78.5886 136.22 78.4286 135.73 78.4286C135.25 78.4286 134.823 78.5939 134.45 78.9246C134.087 79.2446 133.863 79.6553 133.778 80.1566ZM140.633 77.5646H141.785V81.9486L146.329 77.0526V84.2046H145.177V79.7726L140.633 84.6686V77.5646ZM141.209 74.7006L142.169 74.3326C142.361 74.9726 142.814 75.2926 143.529 75.2926C144.244 75.2926 144.697 74.9726 144.889 74.3326L145.849 74.7006C145.678 75.1806 145.385 75.5593 144.969 75.8366C144.564 76.1139 144.084 76.2526 143.529 76.2526C142.974 76.2526 142.489 76.1139 142.073 75.8366C141.668 75.5593 141.38 75.1806 141.209 74.7006Z" fill="#424242"/>
<path opacity="0.2" d="M7.13867 0.678711V215.679" stroke="#B8B8B8"/>
<circle cx="9.22824" cy="193.04" r="7.36106" fill="#FFDD2D" stroke="white" stroke-width="2"/>
<defs>
<linearGradient id="paint0_linear" x1="205.639" y1="23.6787" x2="205.639" y2="215.679" gradientUnits="userSpaceOnUse">
<stop stop-color="#FFDD2D"/>
<stop offset="1" stop-color="#FFDD2D" stop-opacity="0"/>
</linearGradient>
</defs>
</svg>
