<svg width="65" height="64" viewBox="0 0 65 64" fill="none" xmlns="http://www.w3.org/2000/svg">
<path fill-rule="evenodd" clip-rule="evenodd" d="M0.138672 0.678711V63.6787H64.1387V0.678711H0.138672ZM20.1505 11.0438C20.1505 11.0438 20.3322 7.51826 23.8146 7.51826C27.2955 7.51826 27.4479 11.0438 27.4479 11.0438V35.6291C27.4479 35.6291 27.4904 37.8579 29.96 37.8579C32.4296 37.8579 32.2918 35.6291 32.2918 35.6291V11.0438C32.2918 11.0438 32.6245 7.51826 36.016 7.51826C39.4075 7.51826 39.6786 11.0438 39.6786 11.0438V35.6291C39.6786 35.6291 39.5585 44.6668 29.9615 45.1497C20.3337 44.8769 20.1226 35.6291 20.1226 35.6291L20.1505 11.0438ZM15.2465 54.641C15.2465 54.641 7.85965 54.641 7.85965 47.4383V11.0423C7.85965 11.0423 7.85965 7.51681 11.5531 7.51681C15.2465 7.51681 15.2157 11.0423 15.2157 11.0423V45.1497C15.2157 45.1497 14.9431 47.4383 17.7586 47.4383H50.6665L42.7345 28.1551C42.7345 28.1551 41.4623 24.8119 42.7345 22.5218C44.0052 20.2318 49.3944 11.0423 49.3944 11.0423C49.3944 11.0423 50.8776 7.51681 53.6638 7.51681C56.4499 7.51681 58.0533 10.4997 56.9028 12.5797C55.7523 14.6583 50.5449 23.5472 50.5449 23.5472C50.5449 23.5472 49.2126 25.3851 50.5449 27.8867C52.7243 33.0692 61.565 54.6425 61.565 54.6425H15.2465V54.641Z" fill="#CC2229"/>
</svg>
