<svg width="430" height="241" viewBox="0 0 430 241" fill="none" xmlns="http://www.w3.org/2000/svg">
<path opacity="0.2" d="M205.139 0.678711V215.679" stroke="#B8B8B8"/>
<path opacity="0.2" d="M403.139 0.678711V215.679" stroke="#B8B8B8"/>
<path opacity="0.2" d="M7.13867 215.679H403.139" stroke="#B8B8B8"/>
<path opacity="0.2" d="M7.13867 0.678711H403.139" stroke="#B8B8B8"/>
<path opacity="0.2" d="M7.13867 107.679H403.139" stroke="#B8B8B8"/>
<path opacity="0.79" d="M69.8963 185.996L8.99816 193.135L7.13867 196.892V215.679H403.209V28.1875L404.139 23.6787L331.619 42.8411L291.175 93.9409L206.104 108.219L177.746 117.988L147.53 154.058L108.945 161.197L69.8963 185.996Z" fill="url(#paint0_linear)"/>
<path opacity="0.79" d="M9.13867 192.679L70.0151 185.559L109.05 160.827L147.621 153.708L177.827 117.734L206.174 107.991L291.215 93.7519L331.645 42.7896L404.139 23.6787" stroke="#FFDD2D" stroke-width="5"/>
<circle cx="403.127" cy="24.0398" r="7.36106" fill="#FFDD2D" stroke="white" stroke-width="2"/>
<path d="M6.70667 227.639L7.89067 228.519L5.34667 231.735C5.56001 231.692 5.78401 231.671 6.01867 231.671C7.02134 231.671 7.84267 232.001 8.48267 232.663C9.11201 233.324 9.42667 234.156 9.42667 235.159C9.42667 236.257 9.07467 237.153 8.37067 237.847C7.68801 238.519 6.77067 238.855 5.61867 238.855C4.45601 238.855 3.53867 238.508 2.86667 237.815C2.24801 237.164 1.93867 236.359 1.93867 235.399C1.93867 234.695 2.10934 234.012 2.45067 233.351C2.52534 233.201 2.60001 233.063 2.67467 232.935C2.76001 232.796 2.85067 232.652 2.94667 232.503C3.05334 232.353 3.13334 232.247 3.18667 232.183C3.24001 232.108 3.33601 231.98 3.47467 231.799C3.62401 231.607 3.71467 231.489 3.74667 231.447L6.70667 227.639ZM7.20267 233.655C6.80801 233.26 6.30667 233.063 5.69867 233.063C5.09067 233.063 4.57867 233.26 4.16267 233.655C3.74667 234.049 3.53867 234.577 3.53867 235.239C3.53867 235.9 3.74667 236.428 4.16267 236.823C4.57867 237.217 5.09067 237.415 5.69867 237.415C6.30667 237.415 6.80801 237.217 7.20267 236.823C7.61867 236.407 7.82667 235.879 7.82667 235.239C7.82667 234.599 7.61867 234.071 7.20267 233.655ZM17.3819 237.175V238.679H10.2139L13.9099 234.199C14.4646 233.527 14.8913 232.972 15.1899 232.535C15.5633 231.98 15.7499 231.468 15.7499 230.999C15.7499 230.519 15.5953 230.113 15.2859 229.783C14.9766 229.441 14.5393 229.271 13.9739 229.271C13.4086 229.271 12.9606 229.457 12.6299 229.831C12.2993 230.204 12.1179 230.663 12.0859 231.207H10.5179C10.5606 230.268 10.8593 229.489 11.4139 228.871C12.0326 228.177 12.8646 227.831 13.9099 227.831C14.9873 227.831 15.8299 228.145 16.4379 228.775C17.0459 229.404 17.3499 230.161 17.3499 231.047C17.3499 231.783 17.0939 232.529 16.5819 233.287C16.3046 233.703 15.7979 234.343 15.0619 235.207L13.3979 237.175H17.3819ZM26.3797 229.607L25.0677 230.375C24.961 230.119 24.801 229.895 24.5877 229.703C24.289 229.447 23.905 229.319 23.4357 229.319C22.9343 229.319 22.5397 229.463 22.2517 229.751C22.0383 229.964 21.9317 230.236 21.9317 230.567C21.9317 230.929 22.0703 231.228 22.3477 231.463C22.561 231.644 22.897 231.825 23.3557 232.007L24.1557 232.327C24.9663 232.657 25.5583 233.031 25.9317 233.447C26.4223 233.991 26.6677 234.663 26.6677 235.463C26.6677 236.423 26.3583 237.233 25.7397 237.895C25.249 238.417 24.6623 238.727 23.9797 238.823V240.439H22.7957V238.871C21.9743 238.807 21.281 238.455 20.7157 237.815C20.193 237.228 19.8943 236.535 19.8197 235.735L21.4357 235.383C21.4357 235.895 21.585 236.348 21.8837 236.743C22.225 237.169 22.689 237.383 23.2757 237.383C23.7877 237.383 24.209 237.212 24.5397 236.871C24.8703 236.54 25.0357 236.113 25.0357 235.591C25.0357 235.132 24.881 234.743 24.5717 234.423C24.369 234.209 24.0117 233.991 23.4997 233.767L22.4757 233.335C21.857 233.068 21.3557 232.743 20.9717 232.359C20.5237 231.9 20.2997 231.356 20.2997 230.727C20.2997 229.873 20.5717 229.185 21.1157 228.663C21.5743 228.225 22.1343 227.959 22.7957 227.863V226.439H23.9797V227.847C24.4917 227.889 24.9557 228.065 25.3717 228.375C25.809 228.716 26.145 229.127 26.3797 229.607Z" fill="#424242"/>
<path d="M385.851 237.175V238.679H378.683L382.379 234.199C382.933 233.527 383.36 232.972 383.659 232.535C384.032 231.98 384.219 231.468 384.219 230.999C384.219 230.519 384.064 230.113 383.755 229.783C383.445 229.441 383.008 229.271 382.443 229.271C381.877 229.271 381.429 229.457 381.099 229.831C380.768 230.204 380.587 230.663 380.555 231.207H378.987C379.029 230.268 379.328 229.489 379.883 228.871C380.501 228.177 381.333 227.831 382.379 227.831C383.456 227.831 384.299 228.145 384.907 228.775C385.515 229.404 385.819 230.161 385.819 231.047C385.819 231.783 385.563 232.529 385.051 233.287C384.773 233.703 384.267 234.343 383.531 235.207L381.867 237.175H385.851ZM392.478 234.327C392.147 233.996 391.726 233.831 391.214 233.831C390.702 233.831 390.281 233.996 389.95 234.327C389.619 234.657 389.454 235.089 389.454 235.623C389.454 236.103 389.614 236.519 389.934 236.871C390.254 237.233 390.681 237.415 391.214 237.415C391.747 237.415 392.174 237.233 392.494 236.871C392.814 236.519 392.974 236.103 392.974 235.623C392.974 235.089 392.809 234.657 392.478 234.327ZM392.382 229.703C392.073 229.415 391.683 229.271 391.214 229.271C390.745 229.271 390.355 229.415 390.046 229.703C389.747 230.001 389.598 230.396 389.598 230.887C389.598 231.345 389.742 231.719 390.03 232.007C390.329 232.327 390.723 232.487 391.214 232.487C391.705 232.487 392.099 232.327 392.398 232.007C392.686 231.719 392.83 231.345 392.83 230.887C392.83 230.396 392.681 230.001 392.382 229.703ZM392.974 233.127C393.454 233.329 393.827 233.617 394.094 233.991C394.414 234.417 394.574 234.951 394.574 235.591C394.574 236.519 394.291 237.276 393.726 237.863C393.107 238.524 392.27 238.855 391.214 238.855C390.158 238.855 389.321 238.524 388.702 237.863C388.137 237.276 387.854 236.519 387.854 235.591C387.854 234.951 388.014 234.417 388.334 233.991C388.601 233.617 388.974 233.329 389.454 233.127C389.07 232.967 388.755 232.7 388.51 232.327C388.254 231.921 388.126 231.436 388.126 230.871C388.126 229.964 388.425 229.223 389.022 228.647C389.598 228.103 390.329 227.831 391.214 227.831C392.099 227.831 392.83 228.103 393.406 228.647C394.003 229.223 394.302 229.964 394.302 230.871C394.302 231.436 394.174 231.921 393.918 232.327C393.673 232.7 393.358 232.967 392.974 233.127ZM398.721 239.047L397.537 238.167L400.049 234.951C399.868 234.993 399.676 235.015 399.473 235.015C398.471 235.015 397.639 234.684 396.977 234.023C396.327 233.372 396.001 232.561 396.001 231.591C396.001 230.535 396.353 229.644 397.057 228.919C397.761 228.193 398.679 227.831 399.809 227.831C400.961 227.831 401.879 228.183 402.561 228.887C403.18 229.527 403.489 230.332 403.489 231.303C403.489 231.996 403.319 232.673 402.977 233.335C402.903 233.484 402.823 233.628 402.737 233.767C402.663 233.895 402.572 234.033 402.465 234.183C402.369 234.332 402.295 234.444 402.241 234.519C402.188 234.583 402.087 234.711 401.937 234.903C401.799 235.084 401.713 235.196 401.681 235.239L398.721 239.047ZM399.729 233.623C400.337 233.623 400.849 233.409 401.265 232.983C401.681 232.545 401.889 232.017 401.889 231.399C401.889 230.78 401.681 230.273 401.265 229.879C400.839 229.473 400.332 229.271 399.745 229.271C399.159 229.271 398.652 229.473 398.225 229.879C397.809 230.295 397.601 230.817 397.601 231.447C397.601 232.087 397.809 232.615 398.225 233.031C398.641 233.425 399.143 233.623 399.729 233.623ZM411.911 229.607L410.599 230.375C410.492 230.119 410.332 229.895 410.119 229.703C409.82 229.447 409.436 229.319 408.967 229.319C408.466 229.319 408.071 229.463 407.783 229.751C407.57 229.964 407.463 230.236 407.463 230.567C407.463 230.929 407.602 231.228 407.879 231.463C408.092 231.644 408.428 231.825 408.887 232.007L409.687 232.327C410.498 232.657 411.09 233.031 411.463 233.447C411.954 233.991 412.199 234.663 412.199 235.463C412.199 236.423 411.89 237.233 411.271 237.895C410.78 238.417 410.194 238.727 409.511 238.823V240.439H408.327V238.871C407.506 238.807 406.812 238.455 406.247 237.815C405.724 237.228 405.426 236.535 405.351 235.735L406.967 235.383C406.967 235.895 407.116 236.348 407.415 236.743C407.756 237.169 408.22 237.383 408.807 237.383C409.319 237.383 409.74 237.212 410.071 236.871C410.402 236.54 410.567 236.113 410.567 235.591C410.567 235.132 410.412 234.743 410.103 234.423C409.9 234.209 409.543 233.991 409.031 233.767L408.007 233.335C407.388 233.068 406.887 232.743 406.503 232.359C406.055 231.9 405.831 231.356 405.831 230.727C405.831 229.873 406.103 229.185 406.647 228.663C407.106 228.225 407.666 227.959 408.327 227.863V226.439H409.511V227.847C410.023 227.889 410.487 228.065 410.903 228.375C411.34 228.716 411.676 229.127 411.911 229.607Z" fill="#424242"/>
<path d="M33.8237 34.6637H27.1637C27.4637 31.8737 28.4537 29.6087 30.1337 27.8687C31.9637 25.9787 34.4987 25.0337 37.7387 25.0337C41.2187 25.0337 43.8437 25.9187 45.6137 27.6887C47.1437 29.1587 47.9087 31.1987 47.9087 33.8087C47.9087 35.4287 47.5037 36.7937 46.6937 37.9037C46.1237 38.7137 45.3737 39.3437 44.4437 39.7937C45.9437 40.3337 47.0837 41.1437 47.8637 42.2237C48.7937 43.4837 49.2587 45.0587 49.2587 46.9487C49.2587 49.6787 48.2537 51.9587 46.2437 53.7887C44.3237 55.5287 41.6837 56.3987 38.3237 56.3987C34.5437 56.3987 31.6187 55.3637 29.5487 53.2937C27.6287 51.3437 26.5187 48.8687 26.2187 45.8687H33.1487C33.2687 47.2787 33.7487 48.4037 34.5887 49.2437C35.3987 50.0537 36.5087 50.4587 37.9187 50.4587C39.1787 50.4587 40.1837 50.1137 40.9337 49.4237C41.7437 48.6737 42.1487 47.6537 42.1487 46.3637C42.1487 45.1637 41.7137 44.2037 40.8437 43.4837C40.0337 42.8537 38.8037 42.5387 37.1537 42.5387H36.6137V37.7687H37.0187C38.3387 37.7687 39.3437 37.4837 40.0337 36.9137C40.7837 36.2837 41.1587 35.3837 41.1587 34.2137C41.1587 33.1937 40.8287 32.3837 40.1687 31.7837C39.5087 31.1837 38.6537 30.8837 37.6037 30.8837C36.4637 30.8837 35.5637 31.2137 34.9037 31.8737C34.2437 32.5937 33.8837 33.5237 33.8237 34.6637ZM65.0811 24.9887L72.5061 25.7537L64.5861 35.6087C65.5161 35.2787 66.5661 35.1137 67.7361 35.1137C70.8261 35.1137 73.3011 36.0737 75.1611 37.9937C76.9011 39.7937 77.7711 42.1037 77.7711 44.9237C77.7711 48.2237 76.8261 50.9087 74.9361 52.9787C72.8661 55.2287 69.7911 56.3537 65.7111 56.3537C61.3911 56.3537 58.1511 55.1837 55.9911 52.8437C54.2511 50.9837 53.3811 48.5537 53.3811 45.5537C53.3811 43.3937 53.7861 41.4587 54.5961 39.7487C55.4361 38.0087 56.6361 36.1037 58.1961 34.0337L65.0811 24.9887ZM61.8411 49.2887C62.8311 50.2187 64.0461 50.6837 65.4861 50.6837C66.9261 50.6837 68.1261 50.2337 69.0861 49.3337C70.1361 48.3437 70.6611 47.0237 70.6611 45.3737C70.6611 43.8437 70.1361 42.6137 69.0861 41.6837C68.1261 40.8437 66.9261 40.4237 65.4861 40.4237C63.9561 40.4237 62.7411 40.8587 61.8411 41.7287C60.8211 42.6587 60.3111 43.9337 60.3111 45.5537C60.3111 47.1137 60.8211 48.3587 61.8411 49.2887ZM79.9473 54.7787L93.5373 31.5137H80.3073V25.6637H104.157L86.3823 56.3537L79.9473 54.7787ZM113.005 55.5887L130.6 25.1687L133.75 25.8437L116.11 56.3087L113.005 55.5887ZM116.47 29.9387C115.84 29.2487 114.985 28.9037 113.905 28.9037C112.825 28.9037 111.97 29.2487 111.34 29.9387C110.68 30.5987 110.35 31.4687 110.35 32.5487C110.35 33.6287 110.68 34.4987 111.34 35.1587C111.97 35.8487 112.825 36.1937 113.905 36.1937C114.985 36.1937 115.84 35.8487 116.47 35.1587C117.13 34.4987 117.46 33.6287 117.46 32.5487C117.46 31.4687 117.13 30.5987 116.47 29.9387ZM119.845 27.5087C121.135 28.7987 121.78 30.4787 121.78 32.5487C121.78 34.6187 121.135 36.2987 119.845 37.5887C118.405 39.0887 116.425 39.8387 113.905 39.8387C111.385 39.8387 109.405 39.0887 107.965 37.5887C106.675 36.2987 106.03 34.6187 106.03 32.5487C106.03 30.4787 106.675 28.7987 107.965 27.5087C109.405 26.0087 111.385 25.2587 113.905 25.2587C116.425 25.2587 118.405 26.0087 119.845 27.5087ZM135.37 46.1837C134.74 45.4937 133.885 45.1487 132.805 45.1487C131.725 45.1487 130.87 45.4937 130.24 46.1837C129.58 46.8437 129.25 47.7137 129.25 48.7937C129.25 49.8737 129.58 50.7437 130.24 51.4037C130.87 52.0937 131.725 52.4387 132.805 52.4387C133.885 52.4387 134.74 52.0937 135.37 51.4037C136.03 50.7437 136.36 49.8737 136.36 48.7937C136.36 47.7137 136.03 46.8437 135.37 46.1837ZM138.745 43.7537C140.035 45.0437 140.68 46.7237 140.68 48.7937C140.68 50.8637 140.035 52.5437 138.745 53.8337C137.305 55.3337 135.325 56.0837 132.805 56.0837C130.285 56.0837 128.305 55.3337 126.865 53.8337C125.575 52.5437 124.93 50.8637 124.93 48.7937C124.93 46.7237 125.575 45.0437 126.865 43.7537C128.305 42.2537 130.285 41.5037 132.805 41.5037C135.325 41.5037 137.305 42.2537 138.745 43.7537Z" fill="#424242"/>
<path d="M26.2267 74.5646H31.5707V81.2046H30.4187V75.6206H27.3787V81.2046H26.2267V74.5646ZM34.8943 80.2766V84.8846H33.7423V74.5646H34.8943V75.4926C35.481 74.7673 36.2383 74.4046 37.1663 74.4046C38.1583 74.4046 38.9423 74.7566 39.5183 75.4606C40.105 76.1539 40.3983 76.9753 40.3983 77.9246C40.3983 78.8846 40.1103 79.7059 39.5343 80.3886C38.9583 81.0606 38.185 81.3966 37.2143 81.3966C36.2436 81.3966 35.4703 81.0233 34.8943 80.2766ZM37.0543 80.3726C37.705 80.3726 38.2276 80.1379 38.6223 79.6686C39.017 79.1886 39.2143 78.6073 39.2143 77.9246C39.2143 77.1566 38.9956 76.5486 38.5583 76.1006C38.121 75.6526 37.6143 75.4286 37.0383 75.4286C36.4623 75.4286 35.9503 75.6526 35.5023 76.1006C35.0543 76.5486 34.8303 77.1513 34.8303 77.9086C34.8303 78.6019 35.033 79.1886 35.4383 79.6686C35.8543 80.1379 36.393 80.3726 37.0543 80.3726ZM42.1642 74.5646H43.3162V78.9486L47.8602 74.0526V81.2046H46.7082V76.7726L42.1642 81.6686V74.5646ZM55.1592 70.0046H56.4392C56.3218 70.3993 56.1192 70.7353 55.8312 71.0126C55.5538 71.2793 55.2978 71.4606 55.0632 71.5566C54.8392 71.6526 54.5725 71.7379 54.2632 71.8126C54.2098 71.8233 54.0818 71.8553 53.8792 71.9086C53.6765 71.9513 53.5218 71.9886 53.4152 72.0206C53.3085 72.0526 53.1698 72.0953 52.9992 72.1486C52.8285 72.2019 52.6738 72.2659 52.5352 72.3406C52.3965 72.4153 52.2685 72.4953 52.1512 72.5806C51.7458 72.8899 51.4152 73.3219 51.1592 73.8766C50.9138 74.4206 50.7805 75.0019 50.7592 75.6206H50.7912C51.2712 74.8099 52.0765 74.4046 53.2072 74.4046C54.1992 74.4046 55.0205 74.7406 55.6712 75.4126C56.3325 76.0846 56.6632 76.9166 56.6632 77.9086C56.6632 78.9113 56.3272 79.7433 55.6552 80.4046C54.9832 81.0659 54.1085 81.3966 53.0312 81.3966C52.1032 81.3966 51.3405 81.1193 50.7432 80.5646C49.9965 79.8819 49.6232 78.7406 49.6232 77.1406C49.6232 74.3566 50.2525 72.5326 51.5112 71.6686C51.6072 71.6046 51.7085 71.5459 51.8152 71.4926C51.9218 71.4286 52.0338 71.3753 52.1512 71.3326C52.2792 71.2793 52.3858 71.2366 52.4712 71.2046C52.5565 71.1619 52.6738 71.1246 52.8232 71.0926C52.9832 71.0499 53.0898 71.0233 53.1432 71.0126C53.2072 70.9913 53.3245 70.9646 53.4952 70.9326C53.6765 70.8899 53.7885 70.8633 53.8312 70.8526C54.2578 70.7566 54.5672 70.6446 54.7592 70.5166C54.9512 70.3779 55.0845 70.2073 55.1592 70.0046ZM54.7912 76.0846C54.3432 75.6473 53.7938 75.4286 53.1432 75.4286C52.4925 75.4286 51.9378 75.6526 51.4792 76.1006C51.0312 76.5379 50.8072 77.1406 50.8072 77.9086C50.8072 78.6766 51.0365 79.2793 51.4952 79.7166C51.9538 80.1539 52.5032 80.3726 53.1432 80.3726C53.7832 80.3726 54.3325 80.1539 54.7912 79.7166C55.2498 79.2793 55.4792 78.6766 55.4792 77.9086C55.4792 77.1299 55.2498 76.5219 54.7912 76.0846ZM58.4298 81.2046V74.5646H59.5818V77.1086H60.7658C61.6831 77.1086 62.3551 77.3273 62.7818 77.7646C63.1231 78.1059 63.2938 78.5699 63.2938 79.1566C63.2938 79.7753 63.0965 80.2713 62.7018 80.6446C62.3071 81.0179 61.6565 81.2046 60.7498 81.2046H58.4298ZM59.5818 80.1806H60.6538C61.1338 80.1806 61.4751 80.1219 61.6778 80.0046C61.9658 79.8126 62.1098 79.5299 62.1098 79.1566C62.1098 78.7726 61.9711 78.4953 61.6938 78.3246C61.5018 78.1966 61.1605 78.1326 60.6698 78.1326H59.5818V80.1806ZM64.0938 81.2046V74.5646H65.2458V81.2046H64.0938ZM72.4382 74.5646V81.2046H71.2862V75.6206H68.9182V78.6126C68.9182 79.4766 68.7475 80.1166 68.4062 80.5326C68.0222 81.0019 67.4888 81.2366 66.8062 81.2366C66.7208 81.2366 66.6035 81.2259 66.4542 81.2046V80.1486C66.5608 80.1699 66.6462 80.1806 66.7102 80.1806C67.0835 80.1806 67.3608 80.0366 67.5422 79.7486C67.6915 79.5139 67.7662 79.1353 67.7662 78.6126V74.5646H72.4382ZM74.6173 74.5646H75.7693V78.9486L80.3133 74.0526V81.2046H79.1613V76.7726L74.6173 81.6686V74.5646ZM87.0907 76.2606L86.2907 75.6046C86.5467 75.2313 86.8293 74.9539 87.1387 74.7726C87.5547 74.5273 88.04 74.4046 88.5947 74.4046C89.2667 74.4046 89.7893 74.5593 90.1627 74.8686C90.5467 75.1993 90.7387 75.6206 90.7387 76.1326C90.7387 76.7513 90.488 77.2153 89.9867 77.5246C90.3067 77.5993 90.5627 77.7433 90.7547 77.9566C91.064 78.2873 91.2187 78.6926 91.2187 79.1726C91.2187 79.8873 90.9307 80.4579 90.3547 80.8846C89.8853 81.2259 89.256 81.3966 88.4667 81.3966C87.7627 81.3966 87.1707 81.2099 86.6907 80.8366C86.328 80.5699 86.0347 80.1913 85.8107 79.7006L86.8027 79.2846C86.92 79.5833 87.1173 79.8339 87.3947 80.0366C87.6933 80.2606 88.056 80.3726 88.4827 80.3726C88.984 80.3726 89.3573 80.2873 89.6027 80.1166C89.912 79.9139 90.0667 79.6046 90.0667 79.1886C90.0667 78.8473 89.9333 78.5913 89.6667 78.4206C89.4427 78.2713 89.08 78.1966 88.5787 78.1966H87.9067V77.1406H88.4667C88.872 77.1406 89.16 77.0819 89.3307 76.9646C89.5653 76.8153 89.6827 76.6126 89.6827 76.3566C89.6827 76.0579 89.5867 75.8286 89.3947 75.6686C89.2133 75.5086 88.9307 75.4286 88.5467 75.4286C88.216 75.4286 87.912 75.5139 87.6347 75.6846C87.4 75.8339 87.2187 76.0259 87.0907 76.2606ZM98.0647 75.5086V74.5646H99.2167V81.2046H98.0647V80.2766C97.4887 81.0233 96.7313 81.3966 95.7927 81.3966C94.8967 81.3966 94.134 81.0873 93.5047 80.4686C92.8753 79.8499 92.5607 78.9859 92.5607 77.8766C92.5607 76.7886 92.87 75.9406 93.4887 75.3326C94.118 74.7139 94.886 74.4046 95.7927 74.4046C96.7527 74.4046 97.51 74.7726 98.0647 75.5086ZM95.9207 75.4286C95.3127 75.4286 94.7953 75.6473 94.3687 76.0846C93.9527 76.5113 93.7447 77.1086 93.7447 77.8766C93.7447 78.6126 93.9367 79.2153 94.3207 79.6846C94.7153 80.1433 95.2487 80.3726 95.9207 80.3726C96.5927 80.3726 97.126 80.1326 97.5207 79.6526C97.926 79.1726 98.1287 78.5859 98.1287 77.8926C98.1287 77.1033 97.9047 76.4953 97.4567 76.0686C97.0087 75.6419 96.4967 75.4286 95.9207 75.4286ZM108.301 81.2046V71.6526H106.509L107.133 70.5326H109.485V81.2046H108.301ZM113.606 81.1246C113.446 80.9646 113.366 80.7779 113.366 80.5646C113.366 80.3513 113.446 80.1646 113.606 80.0046C113.766 79.8446 113.952 79.7646 114.166 79.7646C114.379 79.7646 114.566 79.8446 114.726 80.0046C114.886 80.1646 114.966 80.3513 114.966 80.5646C114.966 80.7779 114.886 80.9646 114.726 81.1246C114.566 81.2846 114.379 81.3646 114.166 81.3646C113.952 81.3646 113.766 81.2846 113.606 81.1246ZM123.646 70.5326V71.6206H120.222L119.534 73.9246C119.716 73.8819 119.94 73.8606 120.206 73.8606C121.262 73.8606 122.11 74.2126 122.75 74.9166C123.401 75.6206 123.726 76.5006 123.726 77.5566C123.726 78.7086 123.348 79.6366 122.59 80.3406C121.844 81.0446 120.926 81.3966 119.838 81.3966C118.921 81.3966 118.126 81.1193 117.454 80.5646C117.07 80.2339 116.761 79.8713 116.526 79.4766L117.47 78.8046C117.63 79.1246 117.87 79.4126 118.19 79.6686C118.713 80.0953 119.289 80.3086 119.918 80.3086C120.665 80.3086 121.289 80.0419 121.79 79.5086C122.292 78.9753 122.542 78.3299 122.542 77.5726C122.542 76.8046 122.292 76.1753 121.79 75.6846C121.3 75.1939 120.676 74.9486 119.918 74.9486C119.246 74.9486 118.558 75.1939 117.854 75.6846L119.406 70.5326H123.646ZM129.899 81.2046V74.5646H133.835V75.6206H131.051V81.2046H129.899ZM140.265 80.4046C139.603 81.0659 138.766 81.3966 137.753 81.3966C136.739 81.3966 135.897 81.0659 135.225 80.4046C134.563 79.7433 134.233 78.9113 134.233 77.9086C134.233 76.8953 134.563 76.0579 135.225 75.3966C135.897 74.7353 136.739 74.4046 137.753 74.4046C138.766 74.4046 139.603 74.7353 140.265 75.3966C140.937 76.0579 141.273 76.8953 141.273 77.9086C141.273 78.9113 140.937 79.7433 140.265 80.4046ZM139.401 76.0846C138.953 75.6473 138.403 75.4286 137.753 75.4286C137.102 75.4286 136.547 75.6526 136.089 76.1006C135.641 76.5379 135.417 77.1406 135.417 77.9086C135.417 78.6766 135.646 79.2793 136.105 79.7166C136.563 80.1539 137.113 80.3726 137.753 80.3726C138.393 80.3726 138.942 80.1539 139.401 79.7166C139.859 79.2793 140.089 78.6766 140.089 77.9086C140.089 77.1299 139.859 76.5219 139.401 76.0846ZM143.519 74.5646H148.191V80.1486H149.183V82.9646H148.127V81.2046H143.071V82.9646H142.015V80.1486C142.57 80.1379 142.981 79.8499 143.247 79.2846C143.429 78.9113 143.519 78.3246 143.519 77.5246V74.5646ZM147.039 80.1486V75.6206H144.671V78.1166C144.671 79.0019 144.405 79.6793 143.871 80.1486H147.039ZM155.487 75.5086V74.5646H156.639V81.2046H155.487V80.2766C154.911 81.0233 154.153 81.3966 153.215 81.3966C152.319 81.3966 151.556 81.0873 150.927 80.4686C150.297 79.8499 149.983 78.9859 149.983 77.8766C149.983 76.7886 150.292 75.9406 150.911 75.3326C151.54 74.7139 152.308 74.4046 153.215 74.4046C154.175 74.4046 154.932 74.7726 155.487 75.5086ZM153.343 75.4286C152.735 75.4286 152.217 75.6473 151.791 76.0846C151.375 76.5113 151.167 77.1086 151.167 77.8766C151.167 78.6126 151.359 79.2153 151.743 79.6846C152.137 80.1433 152.671 80.3726 153.343 80.3726C154.015 80.3726 154.548 80.1326 154.943 79.6526C155.348 79.1726 155.551 78.5859 155.551 77.8926C155.551 77.1033 155.327 76.4953 154.879 76.0686C154.431 75.6419 153.919 75.4286 153.343 75.4286Z" fill="#424242"/>
<path opacity="0.2" d="M7.13867 0.678711V215.679" stroke="#B8B8B8"/>
<circle cx="9.22824" cy="193.04" r="7.36106" fill="#FFDD2D" stroke="white" stroke-width="2"/>
<defs>
<linearGradient id="paint0_linear" x1="205.639" y1="23.6787" x2="205.639" y2="215.679" gradientUnits="userSpaceOnUse">
<stop stop-color="#FFDD2D"/>
<stop offset="1" stop-color="#FFDD2D" stop-opacity="0"/>
</linearGradient>
</defs>
</svg>
