<svg width="107" height="22" viewBox="0 0 107 22" fill="none" xmlns="http://www.w3.org/2000/svg">
<g clip-path="url(#clip0)">
<path fill-rule="evenodd" clip-rule="evenodd" d="M106.138 8.06263C104.943 6.06822 102.971 5.01904 100.265 5.01904C96.6151 5.01904 93.783 7.30173 93.783 10.9833C93.783 14.6641 96.5521 16.9468 100.265 16.9468C102.971 16.9468 104.943 15.8977 106.138 13.9032L104.103 12.7517C103.222 13.9852 102.069 14.6641 100.223 14.6641C97.9577 14.6641 96.3847 13.1833 96.3847 10.9833C96.3847 8.74159 97.8948 7.30173 100.223 7.30173C102.069 7.30173 103.222 7.9807 104.103 9.21422L106.138 8.06263ZM82.1415 10.9833C82.1415 8.63842 83.4212 7.2198 85.8753 7.2198C88.3294 7.2198 89.6091 8.63842 89.6091 10.9833C89.6091 13.3275 88.3294 14.7461 85.8753 14.7461C83.4212 14.7461 82.1415 13.3275 82.1415 10.9833ZM75.24 5.28608V16.6593H77.8201V11.8466H79.5821C79.9808 15.1163 82.6446 16.9468 85.8753 16.9468C89.3779 16.9468 92.2099 14.7878 92.2099 10.9833C92.2099 7.17808 89.3779 5.01904 85.8753 5.01904C82.8335 5.01904 80.2957 6.64401 79.6866 9.54346H77.8201V5.28608H75.24ZM63.4724 5.28608L61.9201 13.4306C61.7941 14.0474 61.3954 14.3144 60.7871 14.3144H59.5289V16.6593H60.9131C62.8218 16.6593 64.1015 15.7748 64.4786 13.7591L65.6539 7.59001H70.1005V16.6593H72.7228V5.28608H63.4724ZM58.7101 10.9833C58.7101 7.4049 55.7313 5.01904 52.208 5.01904C48.6839 5.01904 45.7059 7.4049 45.7059 10.9833C45.7059 14.561 48.6839 16.9468 52.208 16.9468C55.7313 16.9468 58.7101 14.561 58.7101 10.9833ZM48.3275 10.9833C48.3275 8.63842 50.0266 7.2198 52.208 7.2198C54.3894 7.2198 56.0885 8.63842 56.0885 10.9833C56.0885 13.3275 54.3894 14.7461 52.208 14.7461C50.0266 14.7461 48.3275 13.3275 48.3275 10.9833ZM32.3438 5.28608V16.6593H34.9446V7.56953H41.1533V16.6593H43.7756V5.28608H32.3438Z" fill="#595A59"/>
<path fill-rule="evenodd" clip-rule="evenodd" d="M22.7423 9.56719L14.5442 10.7825C14.3484 10.8113 14.2009 10.6422 14.2124 10.4487L14.4521 6.12381C14.482 5.58823 14.7916 5.31285 15.2125 5.25064L20.4595 4.47305C20.8804 4.41009 21.2576 4.58305 21.4458 5.08678L22.9612 9.15071C23.0288 9.33354 22.9374 9.53836 22.7423 9.56719ZM16.7641 21.0307L13.0088 13.7305C12.9204 13.5568 13.0364 13.3648 13.2261 13.3133L17.4569 12.1746C17.9808 12.0335 18.3433 12.2368 18.5361 12.6115L20.9388 17.2831C21.1316 17.6579 21.084 18.066 20.6592 18.4013L17.2326 21.1035C17.079 21.2249 16.8524 21.2044 16.7641 21.0307ZM3.76372 18.9453L9.66746 13.1964C9.80726 13.0599 10.0285 13.1115 10.1352 13.2746L12.5187 16.9099C12.8129 17.3597 12.7269 17.7626 12.4242 18.0577L8.64587 21.737C8.34323 22.0321 7.93459 22.111 7.48217 21.8128L3.83593 19.408C3.67232 19.3003 3.62393 19.0818 3.76372 18.9453ZM1.79274 6.14961L9.15897 9.90857C9.33333 9.99733 9.35253 10.2211 9.22887 10.3713L6.46826 13.7373C6.12798 14.1538 5.7132 14.1986 5.33452 14.0051L0.621361 11.6003C0.242679 11.4068 0.0398968 11.048 0.186607 10.5314L1.36874 6.3605C1.42174 6.17312 1.61761 6.06009 1.79274 6.14961ZM13.5372 0.334777L12.1761 8.41181C12.1439 8.60374 11.9342 8.69023 11.7514 8.61967L7.66038 7.05843C7.15342 6.86574 6.98443 6.48947 7.05433 6.07526L7.92614 0.906019C7.99527 0.491812 8.27871 0.190639 8.821 0.170156L13.2046 0.00174268C13.3997 -0.00584353 13.5695 0.142846 13.5372 0.334777Z" fill="#FFCB08"/>
</g>
<defs>
<clipPath id="clip0">
<rect width="106" height="22" fill="white" transform="translate(0.138672)"/>
</clipPath>
</defs>
</svg>
