<svg width="432" height="249" viewBox="0 0 432 249" fill="none" xmlns="http://www.w3.org/2000/svg">
<path opacity="0.79" d="M7 183.679L91 170.179L160.5 138.179L234 89.1787L371.5 43.6787H402.5" stroke="#FFDD2D" stroke-width="5"/>
<path opacity="0.79" d="M7 183.679L91 170.179L160.5 138.179L234 89.1787L371.5 43.6787H402.5V222.679H7V183.679Z" fill="url(#paint0_linear)"/>
<circle cx="402.259" cy="42.0398" r="7.36106" fill="#FFDD2D" stroke="white" stroke-width="2"/>
<circle cx="8.36106" cy="184.04" r="7.36106" fill="#FFDD2D" stroke="white" stroke-width="2"/>
<path opacity="0.2" d="M204.84 0.188232V223.349" stroke="#B8B8B8"/>
<path opacity="0.2" d="M402.605 0.188232V223.349" stroke="#B8B8B8"/>
<path opacity="0.2" d="M7.07227 223.29H402.606" stroke="#B8B8B8"/>
<path opacity="0.2" d="M7.07227 111.076H402.606" stroke="#B8B8B8"/>
<path d="M8.712 244.175V245.679H1.544L5.24 241.199C5.79467 240.527 6.22133 239.972 6.52 239.535C6.89333 238.98 7.08 238.468 7.08 237.999C7.08 237.519 6.92533 237.113 6.616 236.783C6.30667 236.441 5.86933 236.271 5.304 236.271C4.73867 236.271 4.29067 236.457 3.96 236.831C3.62933 237.204 3.448 237.663 3.416 238.207H1.848C1.89067 237.268 2.18933 236.489 2.744 235.871C3.36267 235.177 4.19467 234.831 5.24 234.831C6.31733 234.831 7.16 235.145 7.768 235.775C8.376 236.404 8.68 237.161 8.68 238.047C8.68 238.783 8.424 239.529 7.912 240.287C7.63467 240.703 7.128 241.343 6.392 242.207L4.728 244.175H8.712ZM17.8058 244.175V245.679H10.6378L14.3338 241.199C14.8884 240.527 15.3151 239.972 15.6138 239.535C15.9871 238.98 16.1738 238.468 16.1738 237.999C16.1738 237.519 16.0191 237.113 15.7098 236.783C15.4004 236.441 14.9631 236.271 14.3978 236.271C13.8324 236.271 13.3844 236.457 13.0538 236.831C12.7231 237.204 12.5418 237.663 12.5098 238.207H10.9418C10.9844 237.268 11.2831 236.489 11.8378 235.871C12.4564 235.177 13.2884 234.831 14.3338 234.831C15.4111 234.831 16.2538 235.145 16.8618 235.775C17.4698 236.404 17.7738 237.161 17.7738 238.047C17.7738 238.783 17.5178 239.529 17.0058 240.287C16.7284 240.703 16.2218 241.343 15.4858 242.207L13.8218 244.175H17.8058ZM19.3475 247.743L20.9795 243.679L22.3875 244.223L20.4035 248.175L19.3475 247.743ZM31.9445 235.007V236.511H28.6485L28.1205 238.287C28.3338 238.265 28.4992 238.255 28.6165 238.255C29.6192 238.255 30.4405 238.569 31.0805 239.199C31.7738 239.871 32.1205 240.783 32.1205 241.935C32.1205 243.097 31.7578 244.041 31.0325 244.767C30.2965 245.492 29.3098 245.855 28.0725 245.855C27.2618 245.855 26.5792 245.695 26.0245 245.375C25.5125 245.065 25.0912 244.655 24.7605 244.143L25.9925 243.119C26.1418 243.481 26.4138 243.791 26.8085 244.047C27.1712 244.292 27.6352 244.415 28.2005 244.415C28.8725 244.415 29.4165 244.217 29.8325 243.823C30.2912 243.364 30.5205 242.761 30.5205 242.015C30.5205 241.268 30.3072 240.692 29.8805 240.287C29.4645 239.892 28.8832 239.695 28.1365 239.695C27.7098 239.695 27.2938 239.769 26.8885 239.919C26.5258 240.057 26.2112 240.217 25.9445 240.399L27.5285 235.007H31.9445ZM41.0223 236.607L39.7103 237.375C39.6036 237.119 39.4436 236.895 39.2303 236.703C38.9316 236.447 38.5476 236.319 38.0783 236.319C37.5769 236.319 37.1823 236.463 36.8943 236.751C36.6809 236.964 36.5743 237.236 36.5743 237.567C36.5743 237.929 36.7129 238.228 36.9903 238.463C37.2036 238.644 37.5396 238.825 37.9983 239.007L38.7983 239.327C39.6089 239.657 40.2009 240.031 40.5743 240.447C41.0649 240.991 41.3103 241.663 41.3103 242.463C41.3103 243.423 41.0009 244.233 40.3823 244.895C39.8916 245.417 39.3049 245.727 38.6223 245.823V247.439H37.4383V245.871C36.6169 245.807 35.9236 245.455 35.3583 244.815C34.8356 244.228 34.5369 243.535 34.4622 242.735L36.0783 242.383C36.0783 242.895 36.2276 243.348 36.5263 243.743C36.8676 244.169 37.3316 244.383 37.9183 244.383C38.4303 244.383 38.8516 244.212 39.1823 243.871C39.5129 243.54 39.6783 243.113 39.6783 242.591C39.6783 242.132 39.5236 241.743 39.2143 241.423C39.0116 241.209 38.6543 240.991 38.1423 240.767L37.1183 240.335C36.4996 240.068 35.9983 239.743 35.6143 239.359C35.1663 238.9 34.9423 238.356 34.9423 237.727C34.9423 236.873 35.2143 236.185 35.7582 235.663C36.2169 235.225 36.7769 234.959 37.4383 234.863V233.439H38.6223V234.847C39.1343 234.889 39.5983 235.065 40.0143 235.375C40.4516 235.716 40.7876 236.127 41.0223 236.607Z" fill="#424242"/>
<path d="M380.168 234.223V242.159H381.32V243.663H380.168V245.679H378.6V243.663H373.32L380.168 234.223ZM376.168 242.191H378.6V238.751L376.168 242.191ZM384.75 237.727H383.182C383.224 236.884 383.528 236.191 384.094 235.647C384.659 235.103 385.438 234.831 386.43 234.831C387.4 234.831 388.168 235.124 388.734 235.711C389.246 236.233 389.502 236.911 389.502 237.743C389.502 238.276 389.379 238.745 389.134 239.151C388.888 239.535 388.568 239.833 388.174 240.047C388.622 240.217 388.974 240.5 389.23 240.895C389.528 241.332 389.678 241.881 389.678 242.543C389.678 243.524 389.374 244.319 388.766 244.927C388.147 245.545 387.278 245.855 386.158 245.855C385.123 245.855 384.328 245.556 383.774 244.959C383.251 244.404 382.947 243.679 382.862 242.783H384.43C384.515 243.263 384.707 243.647 385.006 243.935C385.347 244.255 385.779 244.415 386.302 244.415C386.803 244.415 387.219 244.265 387.55 243.967C387.923 243.615 388.11 243.113 388.11 242.463C388.11 241.929 387.95 241.508 387.63 241.199C387.299 240.879 386.84 240.719 386.254 240.719H385.934V239.343H386.158C386.755 239.343 387.208 239.188 387.518 238.879C387.795 238.601 387.934 238.223 387.934 237.743C387.934 237.305 387.795 236.948 387.518 236.671C387.24 236.404 386.862 236.271 386.382 236.271C385.87 236.271 385.475 236.415 385.198 236.703C385.091 236.82 385 236.964 384.926 237.135C384.851 237.295 384.803 237.423 384.782 237.519C384.76 237.615 384.75 237.684 384.75 237.727ZM391.348 247.743L392.98 243.679L394.388 244.223L392.404 248.175L391.348 247.743ZM403.945 235.007V236.511H400.649L400.121 238.287C400.334 238.265 400.499 238.255 400.617 238.255C401.619 238.255 402.441 238.569 403.081 239.199C403.774 239.871 404.121 240.783 404.121 241.935C404.121 243.097 403.758 244.041 403.033 244.767C402.297 245.492 401.31 245.855 400.073 245.855C399.262 245.855 398.579 245.695 398.025 245.375C397.513 245.065 397.091 244.655 396.761 244.143L397.993 243.119C398.142 243.481 398.414 243.791 398.809 244.047C399.171 244.292 399.635 244.415 400.201 244.415C400.873 244.415 401.417 244.217 401.833 243.823C402.291 243.364 402.521 242.761 402.521 242.015C402.521 241.268 402.307 240.692 401.881 240.287C401.465 239.892 400.883 239.695 400.137 239.695C399.71 239.695 399.294 239.769 398.889 239.919C398.526 240.057 398.211 240.217 397.945 240.399L399.529 235.007H403.945ZM413.022 236.607L411.71 237.375C411.604 237.119 411.444 236.895 411.23 236.703C410.932 236.447 410.548 236.319 410.078 236.319C409.577 236.319 409.182 236.463 408.894 236.751C408.681 236.964 408.574 237.236 408.574 237.567C408.574 237.929 408.713 238.228 408.99 238.463C409.204 238.644 409.54 238.825 409.998 239.007L410.798 239.327C411.609 239.657 412.201 240.031 412.574 240.447C413.065 240.991 413.31 241.663 413.31 242.463C413.31 243.423 413.001 244.233 412.382 244.895C411.892 245.417 411.305 245.727 410.622 245.823V247.439H409.438V245.871C408.617 245.807 407.924 245.455 407.358 244.815C406.836 244.228 406.537 243.535 406.462 242.735L408.078 242.383C408.078 242.895 408.228 243.348 408.526 243.743C408.868 244.169 409.332 244.383 409.918 244.383C410.43 244.383 410.852 244.212 411.182 243.871C411.513 243.54 411.678 243.113 411.678 242.591C411.678 242.132 411.524 241.743 411.214 241.423C411.012 241.209 410.654 240.991 410.142 240.767L409.118 240.335C408.5 240.068 407.998 239.743 407.614 239.359C407.166 238.9 406.942 238.356 406.942 237.727C406.942 236.873 407.214 236.185 407.758 235.663C408.217 235.225 408.777 234.959 409.438 234.863V233.439H410.622V234.847C411.134 234.889 411.598 235.065 412.014 235.375C412.452 235.716 412.788 236.127 413.022 236.607Z" fill="#424242"/>
<path d="M23.485 42.9887V37.7687H30.415V30.8387H36.085V37.7687H43.015V42.9887H36.085V49.9637H30.415V42.9887H23.485ZM66.685 25.6637V44.5187H70.285V50.0087H66.685V55.6787H60.025V50.0087H45.355V46.0487L58.585 25.6637H66.685ZM52.645 44.5187H60.025V32.8637L52.645 44.5187ZM97.7519 40.6937C97.7519 46.2137 96.3119 50.3987 93.4319 53.2487C91.3019 55.3187 88.6169 56.3537 85.3769 56.3537C82.1969 56.3537 79.5419 55.3187 77.4119 53.2487C74.5319 50.3987 73.0919 46.2137 73.0919 40.6937C73.0919 35.0837 74.5319 30.8837 77.4119 28.0937C79.5419 26.0237 82.1969 24.9887 85.3769 24.9887C88.6169 24.9887 91.3019 26.0237 93.4319 28.0937C96.3119 30.8837 97.7519 35.0837 97.7519 40.6937ZM88.2119 32.0537C87.4319 31.3037 86.5019 30.9287 85.4219 30.9287C84.3419 30.9287 83.4119 31.3037 82.6319 32.0537C80.9519 33.7037 80.1119 36.5687 80.1119 40.6487C80.1119 44.7587 80.9519 47.6387 82.6319 49.2887C83.4119 50.0387 84.3419 50.4137 85.4219 50.4137C86.5019 50.4137 87.4319 50.0387 88.2119 49.2887C89.8919 47.6387 90.7319 44.7587 90.7319 40.6487C90.7319 36.5687 89.8919 33.7037 88.2119 32.0537ZM107.229 55.5887L124.824 25.1687L127.974 25.8437L110.334 56.3087L107.229 55.5887ZM110.694 29.9387C110.064 29.2487 109.209 28.9037 108.129 28.9037C107.049 28.9037 106.194 29.2487 105.564 29.9387C104.904 30.5987 104.574 31.4687 104.574 32.5487C104.574 33.6287 104.904 34.4987 105.564 35.1587C106.194 35.8487 107.049 36.1937 108.129 36.1937C109.209 36.1937 110.064 35.8487 110.694 35.1587C111.354 34.4987 111.684 33.6287 111.684 32.5487C111.684 31.4687 111.354 30.5987 110.694 29.9387ZM114.069 27.5087C115.359 28.7987 116.004 30.4787 116.004 32.5487C116.004 34.6187 115.359 36.2987 114.069 37.5887C112.629 39.0887 110.649 39.8387 108.129 39.8387C105.609 39.8387 103.629 39.0887 102.189 37.5887C100.899 36.2987 100.254 34.6187 100.254 32.5487C100.254 30.4787 100.899 28.7987 102.189 27.5087C103.629 26.0087 105.609 25.2587 108.129 25.2587C110.649 25.2587 112.629 26.0087 114.069 27.5087ZM129.594 46.1837C128.964 45.4937 128.109 45.1487 127.029 45.1487C125.949 45.1487 125.094 45.4937 124.464 46.1837C123.804 46.8437 123.474 47.7137 123.474 48.7937C123.474 49.8737 123.804 50.7437 124.464 51.4037C125.094 52.0937 125.949 52.4387 127.029 52.4387C128.109 52.4387 128.964 52.0937 129.594 51.4037C130.254 50.7437 130.584 49.8737 130.584 48.7937C130.584 47.7137 130.254 46.8437 129.594 46.1837ZM132.969 43.7537C134.259 45.0437 134.904 46.7237 134.904 48.7937C134.904 50.8637 134.259 52.5437 132.969 53.8337C131.529 55.3337 129.549 56.0837 127.029 56.0837C124.509 56.0837 122.529 55.3337 121.089 53.8337C119.799 52.5437 119.154 50.8637 119.154 48.7937C119.154 46.7237 119.799 45.0437 121.089 43.7537C122.529 42.2537 124.509 41.5037 127.029 41.5037C129.549 41.5037 131.529 42.2537 132.969 43.7537Z" fill="#424242"/>
<path d="M23.0157 70.4249H28.3597V77.0649H27.2077V71.4809H24.1677V77.0649H23.0157V70.4249ZM31.6834 76.1369V80.7449H30.5314V70.4249H31.6834V71.3529C32.27 70.6276 33.0274 70.2649 33.9554 70.2649C34.9474 70.2649 35.7314 70.6169 36.3074 71.3209C36.894 72.0143 37.1874 72.8356 37.1874 73.7849C37.1874 74.7449 36.8994 75.5663 36.3234 76.2489C35.7474 76.9209 34.974 77.2569 34.0034 77.2569C33.0327 77.2569 32.2594 76.8836 31.6834 76.1369ZM33.8434 76.2329C34.494 76.2329 35.0167 75.9983 35.4114 75.5289C35.806 75.0489 36.0034 74.4676 36.0034 73.7849C36.0034 73.0169 35.7847 72.4089 35.3474 71.9609C34.91 71.5129 34.4034 71.2889 33.8274 71.2889C33.2514 71.2889 32.7394 71.5129 32.2914 71.9609C31.8434 72.4089 31.6194 73.0116 31.6194 73.7689C31.6194 74.4623 31.822 75.0489 32.2274 75.5289C32.6434 75.9983 33.182 76.2329 33.8434 76.2329ZM38.9532 70.4249H40.1052V74.8089L44.6492 69.9129V77.0649H43.4972V72.6329L38.9532 77.5289V70.4249ZM51.9482 65.8649H53.2282C53.1109 66.2596 52.9082 66.5956 52.6202 66.8729C52.3429 67.1396 52.0869 67.3209 51.8522 67.4169C51.6282 67.5129 51.3616 67.5983 51.0522 67.6729C50.9989 67.6836 50.8709 67.7156 50.6682 67.7689C50.4656 67.8116 50.3109 67.8489 50.2042 67.8809C50.0976 67.9129 49.9589 67.9556 49.7882 68.0089C49.6176 68.0623 49.4629 68.1263 49.3242 68.2009C49.1856 68.2756 49.0576 68.3556 48.9402 68.4409C48.5349 68.7503 48.2042 69.1823 47.9482 69.7369C47.7029 70.2809 47.5696 70.8623 47.5482 71.4809H47.5802C48.0602 70.6703 48.8656 70.2649 49.9962 70.2649C50.9882 70.2649 51.8096 70.6009 52.4602 71.2729C53.1216 71.9449 53.4522 72.7769 53.4522 73.7689C53.4522 74.7716 53.1162 75.6036 52.4442 76.2649C51.7722 76.9263 50.8976 77.2569 49.8202 77.2569C48.8922 77.2569 48.1296 76.9796 47.5322 76.4249C46.7856 75.7423 46.4122 74.6009 46.4122 73.0009C46.4122 70.2169 47.0416 68.3929 48.3002 67.5289C48.3962 67.4649 48.4976 67.4063 48.6042 67.3529C48.7109 67.2889 48.8229 67.2356 48.9402 67.1929C49.0682 67.1396 49.1749 67.0969 49.2602 67.0649C49.3456 67.0223 49.4629 66.9849 49.6122 66.9529C49.7722 66.9103 49.8789 66.8836 49.9322 66.8729C49.9962 66.8516 50.1136 66.8249 50.2842 66.7929C50.4656 66.7503 50.5776 66.7236 50.6202 66.7129C51.0469 66.6169 51.3562 66.5049 51.5482 66.3769C51.7402 66.2383 51.8736 66.0676 51.9482 65.8649ZM51.5802 71.9449C51.1322 71.5076 50.5829 71.2889 49.9322 71.2889C49.2816 71.2889 48.7269 71.5129 48.2682 71.9609C47.8202 72.3983 47.5962 73.0009 47.5962 73.7689C47.5962 74.5369 47.8256 75.1396 48.2842 75.5769C48.7429 76.0143 49.2922 76.2329 49.9322 76.2329C50.5722 76.2329 51.1216 76.0143 51.5802 75.5769C52.0389 75.1396 52.2682 74.5369 52.2682 73.7689C52.2682 72.9903 52.0389 72.3823 51.5802 71.9449ZM55.2189 77.0649V70.4249H56.3709V72.9689H57.5549C58.4722 72.9689 59.1442 73.1876 59.5709 73.6249C59.9122 73.9663 60.0829 74.4303 60.0829 75.0169C60.0829 75.6356 59.8855 76.1316 59.4909 76.5049C59.0962 76.8783 58.4455 77.0649 57.5389 77.0649H55.2189ZM56.3709 76.0409H57.4429C57.9229 76.0409 58.2642 75.9823 58.4669 75.8649C58.7549 75.6729 58.8989 75.3903 58.8989 75.0169C58.8989 74.6329 58.7602 74.3556 58.4829 74.1849C58.2909 74.0569 57.9495 73.9929 57.4589 73.9929H56.3709V76.0409ZM60.8829 77.0649V70.4249H62.0349V77.0649H60.8829ZM69.2272 70.4249V77.0649H68.0752V71.4809H65.7072V74.4729C65.7072 75.3369 65.5366 75.9769 65.1952 76.3929C64.8112 76.8623 64.2779 77.0969 63.5952 77.0969C63.5099 77.0969 63.3926 77.0863 63.2432 77.0649V76.0089C63.3499 76.0303 63.4352 76.0409 63.4992 76.0409C63.8726 76.0409 64.1499 75.8969 64.3312 75.6089C64.4806 75.3743 64.5552 74.9956 64.5552 74.4729V70.4249H69.2272ZM71.4064 70.4249H72.5584V74.8089L77.1024 69.9129V77.0649H75.9504V72.6329L71.4064 77.5289V70.4249ZM83.8797 72.1209L83.0797 71.4649C83.3357 71.0916 83.6184 70.8143 83.9277 70.6329C84.3437 70.3876 84.8291 70.2649 85.3837 70.2649C86.0557 70.2649 86.5784 70.4196 86.9517 70.7289C87.3357 71.0596 87.5277 71.4809 87.5277 71.9929C87.5277 72.6116 87.2771 73.0756 86.7757 73.3849C87.0957 73.4596 87.3517 73.6036 87.5437 73.8169C87.8531 74.1476 88.0077 74.5529 88.0077 75.0329C88.0077 75.7476 87.7197 76.3183 87.1437 76.7449C86.6744 77.0863 86.0451 77.2569 85.2557 77.2569C84.5517 77.2569 83.9597 77.0703 83.4797 76.6969C83.1171 76.4303 82.8237 76.0516 82.5997 75.5609L83.5917 75.1449C83.7091 75.4436 83.9064 75.6943 84.1837 75.8969C84.4824 76.1209 84.8451 76.2329 85.2717 76.2329C85.7731 76.2329 86.1464 76.1476 86.3917 75.9769C86.7011 75.7743 86.8557 75.4649 86.8557 75.0489C86.8557 74.7076 86.7224 74.4516 86.4557 74.2809C86.2317 74.1316 85.8691 74.0569 85.3677 74.0569H84.6957V73.0009H85.2557C85.6611 73.0009 85.9491 72.9423 86.1197 72.8249C86.3544 72.6756 86.4717 72.4729 86.4717 72.2169C86.4717 71.9183 86.3757 71.6889 86.1837 71.5289C86.0024 71.3689 85.7197 71.2889 85.3357 71.2889C85.0051 71.2889 84.7011 71.3743 84.4237 71.5449C84.1891 71.6943 84.0077 71.8863 83.8797 72.1209ZM94.8537 71.3689V70.4249H96.0057V77.0649H94.8537V76.1369C94.2777 76.8836 93.5204 77.2569 92.5817 77.2569C91.6857 77.2569 90.9231 76.9476 90.2937 76.3289C89.6644 75.7103 89.3497 74.8463 89.3497 73.7369C89.3497 72.6489 89.6591 71.8009 90.2777 71.1929C90.9071 70.5743 91.6751 70.2649 92.5817 70.2649C93.5417 70.2649 94.2991 70.6329 94.8537 71.3689ZM92.7097 71.2889C92.1017 71.2889 91.5844 71.5076 91.1577 71.9449C90.7417 72.3716 90.5337 72.9689 90.5337 73.7369C90.5337 74.4729 90.7257 75.0756 91.1097 75.5449C91.5044 76.0036 92.0377 76.2329 92.7097 76.2329C93.3817 76.2329 93.9151 75.9929 94.3097 75.5129C94.7151 75.0329 94.9177 74.4463 94.9177 73.7529C94.9177 72.9636 94.6937 72.3556 94.2457 71.9289C93.7977 71.5023 93.2857 71.2889 92.7097 71.2889ZM107.122 70.9049V72.2809C106.599 71.6196 105.906 71.2889 105.042 71.2889C104.391 71.2889 103.837 71.5129 103.378 71.9609C102.919 72.3983 102.69 73.0009 102.69 73.7689C102.69 74.5369 102.919 75.1396 103.378 75.5769C103.837 76.0143 104.386 76.2329 105.026 76.2329C105.879 76.2329 106.594 75.8863 107.17 75.1929V76.5689C106.541 77.0276 105.837 77.2569 105.058 77.2569C104.023 77.2569 103.17 76.9316 102.498 76.2809C101.837 75.6196 101.506 74.7876 101.506 73.7849C101.506 72.7716 101.842 71.9343 102.514 71.2729C103.186 70.6009 104.034 70.2649 105.058 70.2649C105.826 70.2649 106.514 70.4783 107.122 70.9049ZM108.922 80.7449L111.034 76.4409L107.978 70.4249H109.29L111.642 75.1769L113.802 70.4249H115.082L110.202 80.7449H108.922ZM120.993 71.4809H118.913V77.0649H117.761V71.4809H115.681V70.4249H120.993V71.4809ZM122.203 70.4249H123.355V73.1449L126.043 70.4249H127.451L124.571 73.3849L127.803 77.0649H126.299L123.707 74.1529L123.355 74.4889V77.0649H122.203V70.4249ZM128.953 70.4249H130.105V74.8089L134.649 69.9129V77.0649H133.497V72.6329L128.953 77.5289V70.4249Z" fill="#424242"/>
<path opacity="0.2" d="M7.07227 0.187256V223.348" stroke="#B8B8B8"/>
<defs>
<linearGradient id="paint0_linear" x1="204.75" y1="43.6787" x2="204.75" y2="222.679" gradientUnits="userSpaceOnUse">
<stop stop-color="#FFDD2D"/>
<stop offset="1" stop-color="#FFDD2D" stop-opacity="0"/>
</linearGradient>
</defs>
</svg>
