<svg width="38" height="47" viewBox="0 0 38 47" fill="none" xmlns="http://www.w3.org/2000/svg">
<g clip-path="url(#clip0)">
<path d="M31.7354 24.9696C31.801 32.0823 37.9299 34.4492 37.9978 34.4793C37.946 34.6461 37.0185 37.8523 34.7688 41.164C32.824 44.0272 30.8056 46.8797 27.626 46.9388C24.5017 46.9968 23.4971 45.0727 19.9252 45.0727C16.3543 45.0727 15.2381 46.8798 12.2806 46.9969C9.2115 47.114 6.87431 43.9009 4.91345 41.0482C0.906517 35.213 -2.15561 24.5593 1.95605 17.3679C3.99864 13.7967 7.6489 11.5352 11.6109 11.4772C14.6247 11.4193 17.4693 13.5195 19.3118 13.5195C21.1531 13.5195 24.6099 10.9938 28.244 11.3647C29.7653 11.4285 34.0359 11.9837 36.778 16.0268C36.557 16.1648 31.6824 19.0232 31.7354 24.9696ZM25.8637 7.50426C27.4931 5.51754 28.5898 2.75185 28.2906 0C25.9419 0.0950851 23.1018 1.5765 21.4172 3.56213C19.9074 5.32049 18.5852 8.13486 18.9419 10.8322C21.5598 11.0363 24.2342 9.49223 25.8637 7.50426Z" fill="black"/>
</g>
<defs>
<clipPath id="clip0">
<rect width="38" height="47" fill="white"/>
</clipPath>
</defs>
</svg>
