<svg width="31" height="51" viewBox="0 0 31 51" fill="none" xmlns="http://www.w3.org/2000/svg">
<path fill-rule="evenodd" clip-rule="evenodd" d="M24.6425 33.6151V33.635C28.1129 28.4526 29.8662 23.1898 29.8861 16.9585C29.8861 10.7688 28.0094 5.38719 24.6425 0.22229H24.6223C21.5783 5.08294 19.6441 10.1631 19.4608 15.8296C19.2571 22.1577 21.0719 28.3866 24.6425 33.6151ZM24.6425 32.4042V32.3852C23.6753 30.4893 23.1711 28.4303 23.1711 26.336C23.1711 24.2795 23.6749 22.1209 24.6425 20.3077V20.2863C25.5708 22.2027 26.116 24.198 26.116 26.3364C26.116 28.5347 25.5708 30.4281 24.6425 32.4042ZM20.7506 15.6894C21.0968 11.0926 22.4837 6.95711 24.622 2.80566L24.6422 2.82341C27.1022 7.26197 28.3936 11.6145 28.6351 16.6564C28.7554 18.8761 28.5347 21.0343 28.0713 23.2103C28.1717 20.9716 28.0505 18.8761 27.6467 16.6974C27.1022 13.6736 26.0548 10.9705 24.6422 8.2292L24.622 8.20686C23.3725 10.6874 22.4243 13.1266 21.8403 15.8091C21.297 18.3099 21.1748 20.6294 21.1748 23.21C20.8115 20.6906 20.57 18.2269 20.7506 15.6894Z" fill="#236AB3"/>
<path fill-rule="evenodd" clip-rule="evenodd" d="M19.3192 39.7645C20.3284 38.7761 21.2754 38.2723 22.7082 38.4128C25.0063 38.6347 26.4773 40.0069 26.5983 42.2842C26.8208 46.6398 21.0535 49.2819 17.4469 49.0796C12.2232 48.8176 8.75494 45.4509 7.92789 40.6527C7.42468 37.7271 8.51037 34.5209 10.5706 32.3048C12.604 30.1264 15.3676 29.2587 18.2298 29.1993V16.1125C8.45038 16.1125 1.23286 23.0497 0.728429 32.546C0.183901 43.1317 7.86606 50.3088 17.6654 50.6526C22.8683 50.8537 26.7596 48.899 30.3304 45.5321V34.2583H19.3189V39.7645H19.3192Z" fill="#236AB3"/>
</svg>
