<svg width="42" height="43" viewBox="0 0 42 43" fill="none" xmlns="http://www.w3.org/2000/svg">
<path d="M41.9775 21.9024C41.9775 20.1407 41.8346 18.8551 41.5254 17.522H21.418V25.4734H33.2206C32.9827 27.4494 31.6977 30.4253 28.8422 32.4249L28.8022 32.6911L35.1597 37.6186L35.6002 37.6626C39.6454 33.9248 41.9775 28.4254 41.9775 21.9024Z" fill="#4285F4"/>
<path d="M21.418 42.8523C27.2002 42.8523 32.0545 40.9477 35.6002 37.6625L28.8422 32.4248C27.0337 33.6866 24.6065 34.5674 21.418 34.5674C15.7546 34.5674 10.9479 30.8299 9.23445 25.6638L8.9833 25.6852L2.37258 30.8036L2.28613 31.0441C5.80787 38.0432 13.0418 42.8523 21.418 42.8523Z" fill="#34A853"/>
<path d="M9.2346 25.6639C8.78249 24.3307 8.52084 22.9022 8.52084 21.4262C8.52084 19.9501 8.78249 18.5218 9.21082 17.1886L9.19884 16.9047L2.50529 11.704L2.28629 11.8082C0.834813 14.7127 0.00195312 17.9743 0.00195312 21.4262C0.00195312 24.8782 0.834813 28.1397 2.28629 31.0441L9.2346 25.6639Z" fill="#FBBC05"/>
<path d="M21.4179 8.28472C25.4394 8.28472 28.152 10.0226 29.6988 11.4749L35.7429 5.5708C32.0309 2.11882 27.2002 0 21.4179 0C13.0418 0 5.80786 4.80894 2.28613 11.8081L9.21066 17.1885C10.9479 12.0224 15.7546 8.28472 21.4179 8.28472Z" fill="#EB4335"/>
</svg>
