<svg width="25" height="25" viewBox="0 0 25 25" fill="none" xmlns="http://www.w3.org/2000/svg" preserveAspectRatio="none">
<g clip-path="url(#clip0)">
<path d="M14.9463 6.68547H13.8103C13.6626 6.68547 13.543 6.56581 13.543 6.41817C13.543 6.27054 13.6626 6.15088 13.8103 6.15088H14.9463C15.0939 6.15088 15.2136 6.27054 15.2136 6.41817C15.2136 6.56581 15.0939 6.68547 14.9463 6.68547Z" fill="#424242"/>
<path d="M18.3603 10.5869C14.6992 10.5869 11.7207 13.2303 11.7207 16.8914C11.7207 18.6461 12.417 20.2495 13.6813 21.4062C14.9093 22.5297 16.571 23.1484 18.3603 23.1484C20.1496 23.1484 21.8114 22.5297 23.0393 21.4062C24.3036 20.2494 24.9999 18.6461 24.9999 16.8914C24.9999 13.2303 22.0214 10.5869 18.3603 10.5869ZM18.3603 19.7201C16.8006 19.7201 15.5316 18.4512 15.5316 16.8914C15.5316 15.3317 16.8006 14.0627 18.3603 14.0627C19.92 14.0627 21.1889 15.3317 21.1889 16.8914C21.1889 18.4512 19.92 19.7201 18.3603 19.7201Z" fill="#424242"/>
<path d="M4.70052 14.0186C2.10862 14.0186 0 16.1273 0 18.7191C0 19.9616 0.493017 21.0968 1.38821 21.9158C2.25765 22.7113 3.43396 23.1493 4.70058 23.1493C5.96724 23.1493 7.14361 22.7113 8.01299 21.9158C8.90819 21.0968 9.4012 19.9614 9.4012 18.7191C9.40115 16.1273 7.29248 14.0186 4.70052 14.0186ZM4.70052 20.7125C3.60149 20.7125 2.70737 19.8183 2.70737 18.7192C2.70737 17.6201 3.60149 16.7259 4.70052 16.7259C5.79955 16.7259 6.69373 17.6201 6.69373 18.7192C6.69373 19.8183 5.79955 20.7125 4.70052 20.7125Z" fill="#424242"/>
<path d="M13.1917 11.8549C14.5549 10.5867 16.3906 9.8883 18.3606 9.8883C19.6878 9.8883 20.954 10.2057 22.0558 10.8004C22.0613 10.8033 22.0668 10.8051 22.0722 10.8075C22.1735 10.8802 22.2998 10.9187 22.4335 10.9068C22.7293 10.8805 22.9478 10.6192 22.9214 10.3234C22.9164 10.2671 22.4185 4.67985 22.3242 3.58388C22.1752 1.85114 20.9234 1.85114 20.4521 1.85114H13.1919C12.544 1.84985 11.343 1.85044 10.9721 3.68698C10.7634 4.72045 10.3045 6.8955 9.95028 8.55644C8.08604 8.55644 6.33884 8.55644 4.98838 8.55644V5.83605C4.98838 5.43941 4.66682 5.1179 4.27023 5.1179C3.87364 5.1179 3.55208 5.43946 3.55208 5.83605V8.55644C2.86303 8.55644 2.42638 8.55644 2.34092 8.55644C0.260802 8.55644 -0.381889 13.0243 0.763661 15.0275C1.74948 13.9766 3.14969 13.3189 4.70091 13.3189C7.41689 13.3189 9.67061 15.3346 10.0455 17.9486H11.0999C11.0484 17.6033 11.022 17.2505 11.022 16.8919C11.0219 14.9455 11.7925 13.1566 13.1917 11.8549ZM21.2526 3.67612C21.3117 4.36297 21.5288 6.80843 21.6843 8.5565C20.8335 8.5565 19.1943 8.5565 17.2148 8.5565V2.92678H20.4522C20.9757 2.92678 21.1906 2.95555 21.2526 3.67612ZM12.0265 3.8999C12.2231 2.92645 12.5892 2.92715 13.1915 2.92678H16.3543V8.55644C14.6875 8.55644 12.8411 8.55644 11.0498 8.55644C11.4234 6.80106 11.8782 4.63403 12.0265 3.8999Z" fill="#424242"/>
</g>
<defs>
<clipPath id="clip0">
<rect width="25" height="25" fill="white"/>
</clipPath>
</defs>
</svg>
