<svg width="22" height="24" viewBox="0 0 22 24" fill="none" xmlns="http://www.w3.org/2000/svg">
<path d="M11.0113 0C13.8121 0 16.0821 2.31579 16.116 5.17579H16.3532C19.4702 5.17579 22 7.78105 22 10.9768V17.3684C22 20.5642 19.4702 23.1579 16.3532 23.1579H5.64682C2.52977 23.1579 0 20.5642 0 17.3684V10.9768C0 7.78105 2.52977 5.17579 5.64682 5.17579H5.88398C5.90657 3.78632 6.43737 2.48947 7.39733 1.51684C8.36858 0.532631 9.61088 0.0347368 11.0113 0ZM15.2916 6.55368C14.8285 6.55368 14.4446 6.94737 14.4446 7.4221V8.76526C14.4446 9.24 14.8285 9.63368 15.2916 9.63368C15.7659 9.63368 16.1386 9.24 16.1386 8.76526V7.4221C16.1386 6.94737 15.7659 6.55368 15.2916 6.55368ZM6.60678 6.55368C6.14374 6.55368 5.75975 6.94737 5.75975 7.4221V8.76526C5.75975 9.24 6.14374 9.63368 6.60678 9.63368C7.08111 9.63368 7.4538 9.24 7.4538 8.76526V7.4221C7.4538 6.94737 7.08111 6.55368 6.60678 6.55368ZM11.0113 1.73684C10.1417 1.73684 9.23819 2.09579 8.58316 2.75579C7.95072 3.40421 7.60062 4.26105 7.57803 5.17579H14.422C14.3881 3.27684 12.8747 1.73684 11.0113 1.73684Z" fill="#424242"/>
</svg>
