<svg width="26" height="26" viewBox="0 0 26 26" fill="none" xmlns="http://www.w3.org/2000/svg">
<path d="M22.1924 3.80758C19.737 1.3522 16.4724 0 13 0C9.52758 0 6.26295 1.3522 3.80758 3.80758C1.3522 6.26295 0 9.52758 0 13C0 16.4724 1.35225 19.737 3.80758 22.1924C6.2629 24.6478 9.52758 26 13 26C16.4724 26 19.737 24.6478 22.1924 22.1924C24.6478 19.737 26 16.4724 26 13C26 9.52758 24.6477 6.263 22.1924 3.80758ZM17.0625 15.4375C17.0625 16.7419 16.2898 17.8686 15.1783 18.3855C15.0887 18.4271 15.0312 18.5166 15.0312 18.6153V19.477C15.0312 19.9146 14.695 20.291 14.258 20.3116C13.7914 20.3335 13.4062 19.9618 13.4062 19.5V18.9414C13.4062 18.8012 13.2926 18.6875 13.1523 18.6875H12.0352C11.8949 18.6875 11.7812 18.8012 11.7812 18.9414V19.477C11.7812 19.9146 11.445 20.291 11.008 20.3116C10.5414 20.3335 10.1562 19.9618 10.1562 19.5V18.9414C10.1562 18.8012 10.0426 18.6875 9.90234 18.6875H8.5542C8.11672 18.6875 7.74028 18.3513 7.71966 17.9143C7.69768 17.4477 8.06945 17.0625 8.53125 17.0625H9.08984C9.23005 17.0625 9.34375 16.9488 9.34375 16.8086V13V9.19141C9.34375 9.0512 9.23005 8.9375 9.08984 8.9375H8.5542C8.11672 8.9375 7.74028 8.60128 7.71966 8.1643C7.69768 7.69773 8.06945 7.3125 8.53125 7.3125H9.90234C10.0426 7.3125 10.1562 7.1988 10.1562 7.05859V6.52295C10.1562 6.08542 10.4925 5.70898 10.9295 5.68841C11.3961 5.66648 11.7812 6.03825 11.7812 6.5V7.05859C11.7812 7.1988 11.8949 7.3125 12.0352 7.3125H13.1523C13.2926 7.3125 13.4062 7.1988 13.4062 7.05859V6.52295C13.4062 6.08542 13.7425 5.70898 14.1795 5.68841C14.6461 5.66648 15.0312 6.03825 15.0312 6.5V7.38466C15.0312 7.48343 15.0887 7.57286 15.1783 7.6145C16.2898 8.13145 17.0625 9.25813 17.0625 10.5625C17.0625 11.4402 16.7123 12.2373 16.1448 12.8226C16.0486 12.9217 16.0486 13.0782 16.1448 13.1774C16.7123 13.7627 17.0625 14.5598 17.0625 15.4375Z" fill="#424242"/>
</svg>
