<svg width="12" height="11" viewBox="0 0 12 11" fill="none" xmlns="http://www.w3.org/2000/svg" preserveAspectRatio="none">
<path fill-rule="evenodd" clip-rule="evenodd" d="M2.57347 0.425812C2.7867 0.443949 2.99387 0.552775 3.19719 0.750639C3.50464 1.05018 4.37409 2.14558 4.44131 2.46711C4.5157 2.82436 4.3526 3.10852 4.20769 3.35805C4.17679 3.41169 4.13514 3.47535 4.08952 3.54508C3.91637 3.80976 3.68591 4.16204 3.76746 4.38694C4.35205 5.81376 5.70252 7.05866 7.13839 7.64346C7.36044 7.72368 7.71461 7.49294 7.98 7.32004C8.04914 7.275 8.11225 7.23388 8.16543 7.20321L8.17137 7.1998C8.42115 7.05662 8.70326 6.89492 9.05913 6.97017C9.38146 7.03777 10.4801 7.92431 10.781 8.23155C10.9782 8.43271 11.0879 8.64047 11.1049 8.84823C11.1347 9.66332 10.0206 10.5938 9.81784 10.7098C9.54841 10.9027 9.2349 11 8.88282 11C8.52302 11 8.1219 10.8983 7.68442 10.6955C5.31077 9.71059 1.68473 6.17706 0.72601 3.83567C0.328198 2.96397 0.325443 2.24506 0.719399 1.70478C0.87643 1.45141 1.77178 0.392285 2.57347 0.425812ZM7.23582 1.91207L7.29614 1.91947C7.27588 1.91575 7.25575 1.9133 7.23582 1.91207ZM7.19239 6.93225e-05L7.20007 1.33702e-08L7.2617 0.00436137C7.24113 0.00143005 7.22055 -5.07071e-06 7.20007 1.33702e-08C7.19751 6.49231e-07 7.19495 2.37872e-05 7.19239 6.93225e-05Z" fill="#424242"/>
</svg>
