<svg width="19" height="19" viewBox="0 0 19 19" fill="none" xmlns="http://www.w3.org/2000/svg">
<path d="M8.76859 4.55002V0.741453C8.76859 0.336491 9.09159 -0.000976562 9.5001 -0.000976562C9.86584 -0.000976562 10.1757 0.28259 10.2248 0.641775L10.2316 0.741453V4.55002L14.7725 4.55031C17.0335 4.55031 18.8911 6.40182 18.9954 8.71091L19 8.91581V13.7031C19 16.0284 17.207 17.9371 14.9796 18.0443L14.782 18.049H4.218C1.957 18.049 0.108385 16.2068 0.0045959 13.8892L0 13.6835V8.906C0 6.58072 1.78401 4.66278 4.0109 4.55508L4.2085 4.55031H8.7685V10.6326L7.2485 9.06296C6.9635 8.76866 6.498 8.76866 6.213 9.06296C6.0705 9.21011 6.004 9.40631 6.004 9.60252C6.004 9.75163 6.04656 9.90702 6.13654 10.0386L6.213 10.1323L8.9775 12.9968C9.1105 13.144 9.3005 13.2224 9.5 13.2224C9.65833 13.2224 9.81667 13.1679 9.94201 13.0646L10.013 12.9968L12.7775 10.1323C13.0625 9.83796 13.0625 9.35726 12.7775 9.06296C12.5184 8.79541 12.1101 8.77109 11.8239 8.98999L11.742 9.06296L10.2315 10.6326V4.55031L8.76859 4.55002Z" fill="#424242"/>
</svg>
