<svg width="24" height="22" viewBox="0 0 24 22" fill="none" xmlns="http://www.w3.org/2000/svg">
<path d="M19.8734 13.2235C22.1533 13.2235 24 15.0391 24 17.2791C24 19.5178 22.1533 21.3333 19.8734 21.3333C17.5947 21.3333 15.7467 19.5178 15.7467 17.2791C15.7467 15.0391 17.5947 13.2235 19.8734 13.2235ZM9.69995 15.5495C10.6986 15.5495 11.5093 16.346 11.5093 17.3271C11.5093 18.307 10.6986 19.1047 9.69995 19.1047H1.80932C0.810662 19.1047 0 18.307 0 17.3271C0 16.346 0.810662 15.5495 1.80932 15.5495H9.69995ZM4.12664 0C6.40663 0 8.25329 1.81558 8.25329 4.05427C8.25329 6.29427 6.40663 8.10985 4.12664 8.10985C1.84799 8.10985 0 6.29427 0 4.05427C0 1.81558 1.84799 0 4.12664 0ZM22.192 2.27799C23.1893 2.27799 24 3.07444 24 4.05427C24 5.03542 23.1893 5.83186 22.192 5.83186H14.3014C13.3027 5.83186 12.4921 5.03542 12.4921 4.05427C12.4921 3.07444 13.3027 2.27799 14.3014 2.27799H22.192Z" fill="#424242"/>
</svg>
