<svg width="24" height="24" viewBox="0 0 24 24" fill="none" xmlns="http://www.w3.org/2000/svg" preserveAspectRatio="none">
<g clip-path="url(#clip0)">
<path d="M18.3644 10.1656L16.2299 3.20364C16.1269 2.86759 15.8166 2.63818 15.4651 2.63818H8.53445C8.18293 2.63818 7.87266 2.86764 7.76963 3.20364L5.63522 10.1656C5.47767 10.6795 5.86266 11.2001 6.40003 11.2001H17.5996C18.1371 11.2 18.5219 10.6794 18.3644 10.1656Z" fill="#424242"/>
<path d="M23.9644 20.3272L21.83 13.3653C21.727 13.0292 21.4167 12.7998 21.0652 12.7998H14.1344C13.7829 12.7998 13.4726 13.0293 13.3696 13.3653L12 17.8325L10.6304 13.3653C10.5273 13.0292 10.2171 12.7998 9.86555 12.7998H2.93484C2.58332 12.7998 2.27305 13.0293 2.17002 13.3653L0.0356117 20.3272C-0.121935 20.8411 0.26305 21.3617 0.800426 21.3617H12H23.1996C23.7371 21.3617 24.1219 20.841 23.9644 20.3272Z" fill="#424242"/>
</g>
<defs>
<clipPath id="clip0">
<rect width="24" height="24" fill="white"/>
</clipPath>
</defs>
</svg>
