<svg width="34" height="34" viewBox="0 0 34 34" fill="none" xmlns="http://www.w3.org/2000/svg">
<path d="M11.8253 5.03042C12.6585 4.87446 13.4939 5.29048 13.8575 6.04241C13.948 6.17886 14.0204 6.32605 14.073 6.48044C14.3039 10.0451 14.5503 13.5493 14.7812 17.0535C14.7759 17.4177 14.8332 17.7803 14.9505 18.1259C15.2268 18.8059 15.9143 19.2374 16.6594 19.1983L27.9749 18.4733L28.0519 18.5035L28.2584 18.5184C28.6674 18.5707 29.0488 18.7574 29.3384 19.0512C29.6762 19.394 29.8613 19.8544 29.8534 20.3311C29.4072 26.8287 24.6435 32.2576 18.1607 33.6563C11.6779 35.0549 5.0323 32.0875 1.84923 26.3729C0.91327 24.727 0.321814 22.9142 0.109572 21.041C0.0272533 20.486 -0.00878832 19.9253 0.00180538 19.3645C0.0232601 12.4553 4.94237 6.49168 11.8253 5.03042ZM18.553 0.000669907C26.3234 0.233281 32.8174 5.87413 33.9944 13.4133C34.0019 13.4584 34.0019 13.5043 33.9944 13.5493L33.9923 13.7621C33.9667 14.0435 33.8512 14.3118 33.6594 14.5272C33.4196 14.7965 33.0803 14.9609 32.7166 14.9842L19.6615 15.8451L19.4464 15.8494C19.09 15.832 18.7483 15.6934 18.4821 15.4538C18.1627 15.1663 17.9816 14.76 17.9834 14.3347L17.1059 1.51111V1.29964C17.1218 0.938986 17.2834 0.599373 17.5549 0.355694C17.8263 0.112015 18.1854 -0.0157148 18.553 0.000669907Z" fill="#424242"/>
</svg>
