<svg width="18" height="18" viewBox="0 0 18 18" fill="none" xmlns="http://www.w3.org/2000/svg" preserveAspectRatio="none">
<path d="M9.03048 0.320023C6.64893 0.320023 6.35034 0.330147 5.41512 0.37277C4.48179 0.415392 3.84434 0.563511 3.2866 0.780272C2.71002 1.00433 2.22105 1.30422 1.73348 1.79178C1.24603 2.27923 0.946264 2.76821 0.722203 3.34479C0.505324 3.90264 0.357089 4.54009 0.314584 5.47343C0.271844 6.40864 0.261719 6.70723 0.261719 9.08878C0.261719 11.4701 0.271844 11.7687 0.314584 12.704C0.357089 13.6373 0.505324 14.2748 0.722203 14.8325C0.946264 15.4091 1.24603 15.8982 1.73348 16.3857C2.22105 16.8732 2.71002 17.173 3.2866 17.3971C3.84434 17.6138 4.48179 17.7622 5.41512 17.8047C6.35034 17.8473 6.64893 17.8574 9.03048 17.8574C11.412 17.8574 11.7106 17.8473 12.6458 17.8047C13.5792 17.7622 14.2166 17.6138 14.7744 17.3971C15.3509 17.173 15.8399 16.8732 16.3275 16.3857C16.8149 15.8982 17.1147 15.4091 17.3387 14.8325C17.5556 14.2748 17.7039 13.6373 17.7464 12.704C17.7891 11.7687 17.7992 11.4701 17.7992 9.08878C17.7992 6.70723 17.7891 6.40864 17.7464 5.47343C17.7039 4.54009 17.5556 3.90264 17.3387 3.34479C17.1147 2.76821 16.8149 2.27923 16.3275 1.79178C15.8399 1.30422 15.3509 1.00433 14.7744 0.780272C14.2166 0.563511 13.5792 0.415392 12.6458 0.37277C11.7106 0.330147 11.412 0.320023 9.03048 0.320023ZM9.03048 1.89999C11.3719 1.89999 11.6492 1.90882 12.5738 1.95109C13.4287 1.99018 13.8931 2.13288 14.202 2.25297C14.6113 2.41216 14.9034 2.60208 15.2102 2.90891C15.5171 3.21586 15.7071 3.50786 15.8663 3.91724C15.9863 4.2262 16.1291 4.69045 16.1682 5.54537C16.2102 6.46999 16.2193 6.74738 16.2193 9.08878C16.2193 11.4301 16.2102 11.7075 16.1682 12.632C16.1291 13.4869 15.9863 13.9512 15.8663 14.2602C15.7071 14.6696 15.5171 14.9616 15.2102 15.2685C14.9034 15.5752 14.6113 15.7654 14.202 15.9244C13.8931 16.0446 13.4287 16.1874 12.5738 16.2264C11.6493 16.2685 11.372 16.2775 9.03048 16.2775C6.68896 16.2775 6.41168 16.2685 5.48718 16.2264C4.63226 16.1874 4.16789 16.0446 3.85894 15.9244C3.44967 15.7654 3.15756 15.5752 2.85072 15.2685C2.54389 14.9616 2.35386 14.6696 2.19467 14.2602C2.07469 13.9512 1.93187 13.4869 1.89278 12.632C1.85075 11.7075 1.84168 11.4301 1.84168 9.08878C1.84168 6.74738 1.85075 6.46999 1.89278 5.54537C1.93187 4.69045 2.07469 4.2262 2.19467 3.91724C2.35386 3.50786 2.54389 3.21586 2.85072 2.90891C3.15756 2.60208 3.44967 2.41216 3.85894 2.25297C4.16789 2.13288 4.63226 1.99018 5.48718 1.95109C6.4118 1.90882 6.68908 1.89999 9.03048 1.89999Z" fill="#424242"/>
<path d="M9.03023 12.0109C7.416 12.0109 6.10731 10.7023 6.10731 9.08805C6.10731 7.47371 7.416 6.16513 9.03023 6.16513C10.6445 6.16513 11.9531 7.47371 11.9531 9.08805C11.9531 10.7023 10.6445 12.0109 9.03023 12.0109ZM9.03023 4.58517C6.54342 4.58517 4.52734 6.60113 4.52734 9.08805C4.52734 11.5749 6.54342 13.5908 9.03023 13.5908C11.517 13.5908 13.5331 11.5749 13.5331 9.08805C13.5331 6.60113 11.517 4.58517 9.03023 4.58517Z" fill="#424242"/>
<path d="M14.7627 4.40771C14.7627 4.98888 14.2916 5.45996 13.7105 5.45996C13.1294 5.45996 12.6582 4.98888 12.6582 4.40771C12.6582 3.82654 13.1294 3.35546 13.7105 3.35546C14.2916 3.35546 14.7627 3.82654 14.7627 4.40771Z" fill="#424242"/>
</svg>
