<svg width="128" height="38" viewBox="0 0 128 38" fill="none" xmlns="http://www.w3.org/2000/svg" preserveAspectRatio="none">
<path d="M36.5859 13C28.4154 19.9106 22.4641 30.6486 19.2363 37.9844C27.6085 38.4097 40.6206 30.117 36.5859 13Z" fill="#FFDD2D"/>
<path d="M4.14746 30.3282C8.92394 23.9691 20.4498 14.6911 35.2984 10C35.8176 10.834 36.1291 11.3552 36.3368 12.1892C22.9419 21.6757 17.6462 29.807 12.7659 37C8.40476 35.332 6.12036 33.0386 4.14746 30.3282Z" fill="#424242"/>
<path d="M34.3252 8.28673C26.7168 -3.2776 8.0607 -3.38273 1.39034 12.0714C7.12268 9.44317 17.6493 7.23543 27.9675 7.23543C16.6071 9.96882 6.81001 14.3843 0.13965 18.6946C-0.0271083 21.6383 1.18189 25.4579 1.80724 27C10.2494 18.6946 20.4634 12.5971 34.3252 8.28673Z" fill="#FFDD2D"/>
<path d="M54.3039 20.1599V18.1759H59.5999V18.2879C59.5999 19.0239 59.4612 19.8186 59.1839 20.6719C58.9065 21.5146 58.4959 22.2186 57.9519 22.7839C57.0239 23.7546 55.7545 24.2399 54.1439 24.2399C53.3865 24.2399 52.6879 24.1386 52.0479 23.9359C51.4079 23.7333 50.8052 23.3386 50.2399 22.7519C49.1945 21.6746 48.6719 20.3199 48.6719 18.6879C48.6719 17.0346 49.1839 15.6853 50.2079 14.6399C51.2105 13.6053 52.6079 13.0879 54.3999 13.0879C55.5839 13.0879 56.5812 13.3546 57.3919 13.8879C58.0852 14.3466 58.6612 14.9813 59.1199 15.7919L56.8959 16.9919C56.6505 16.5013 56.3359 16.1173 55.9519 15.8399C55.4825 15.4986 54.9385 15.3279 54.3199 15.3279C53.3919 15.3279 52.6559 15.6159 52.1119 16.1919C51.5039 16.8319 51.1999 17.6746 51.1999 18.7199C51.1999 19.7546 51.4985 20.5706 52.0959 21.1679C52.6399 21.7226 53.3599 21.9999 54.2559 21.9999C55.0452 21.9999 55.6639 21.8079 56.1119 21.4239C56.4745 21.1359 56.7305 20.7146 56.8799 20.1599H54.3039Z" fill="#424242"/>
<path d="M68.1617 23.9999L67.3617 21.9839H63.3297L62.5137 23.9999H59.9537L64.2577 13.3279H66.5137L70.7217 23.9999H68.1617ZM64.0497 20.0959H66.6897L65.3777 16.5119L64.0497 20.0959Z" fill="#424242"/>
<path d="M78.5259 14.1439L77.4219 15.9359C76.8565 15.4239 76.2592 15.1679 75.6299 15.1679C75.1605 15.1679 74.8139 15.2906 74.5899 15.5359C74.4085 15.7173 74.3179 15.9413 74.3179 16.2079C74.3179 16.4533 74.3979 16.6506 74.5579 16.7999C74.6112 16.8426 74.6645 16.8853 74.7179 16.9279C74.7712 16.9599 74.8459 16.9973 74.9419 17.0399C75.0379 17.0826 75.1179 17.1199 75.1819 17.1519C75.2459 17.1733 75.3579 17.2159 75.5179 17.2799C75.6779 17.3333 75.8059 17.3759 75.9019 17.4079L76.7019 17.7119C77.3739 17.9679 77.8592 18.2399 78.1579 18.5279C78.6805 19.0186 78.9419 19.6799 78.9419 20.5119C78.9419 21.6213 78.6272 22.5013 77.9979 23.1519C77.3045 23.8773 76.2965 24.2399 74.9739 24.2399C74.1632 24.2399 73.4592 24.0906 72.8619 23.7919C72.3285 23.5253 71.8059 23.1359 71.2939 22.6239L72.5739 20.8639C72.9365 21.2266 73.2672 21.4986 73.5659 21.6799C73.9819 21.9359 74.4299 22.0639 74.9099 22.0639C75.3685 22.0639 75.7419 21.9413 76.0299 21.6959C76.2859 21.4826 76.4139 21.1946 76.4139 20.8319C76.4139 20.5333 76.2912 20.2773 76.0459 20.0639C75.8539 19.9039 75.4379 19.7066 74.7979 19.4719L73.9179 19.1679C73.2245 18.9226 72.7285 18.6399 72.4299 18.3199C72.0032 17.8719 71.7899 17.2533 71.7899 16.4639C71.7899 15.4933 72.0992 14.6933 72.7179 14.0639C73.3579 13.4133 74.2379 13.0879 75.3579 13.0879C76.5205 13.0879 77.5765 13.4399 78.5259 14.1439Z" fill="#424242"/>
<path d="M92.8171 14.2079V15.6799C92.3904 15.2533 91.9264 14.9226 91.4251 14.6879C90.8171 14.4106 90.2038 14.2719 89.5851 14.2719C88.3584 14.2719 87.3344 14.7039 86.5131 15.5679C85.7024 16.4213 85.2971 17.4719 85.2971 18.7199C85.2971 20.0639 85.7398 21.1253 86.6251 21.9039C87.5211 22.6826 88.5131 23.0719 89.6011 23.0719C90.2838 23.0719 90.9451 22.9066 91.5851 22.5759C92.0331 22.3519 92.4438 22.0533 92.8171 21.6799V23.1519C91.8464 23.8453 90.7744 24.1919 89.6011 24.1919C88.0224 24.1919 86.7051 23.6639 85.6491 22.6079C84.6038 21.5519 84.0811 20.2506 84.0811 18.7039C84.0811 17.1146 84.6091 15.7919 85.6651 14.7359C86.7318 13.6799 88.0651 13.1519 89.6651 13.1519C90.8384 13.1519 91.8891 13.5039 92.8171 14.2079Z" fill="#424242"/>
<path d="M99.8009 18.3039V17.3599H100.953V23.9999H99.8009V23.0719C99.2249 23.8186 98.4675 24.1919 97.5289 24.1919C96.6329 24.1919 95.8702 23.8826 95.2409 23.2639C94.6115 22.6453 94.2969 21.7813 94.2969 20.6719C94.2969 19.5839 94.6062 18.7359 95.2249 18.1279C95.8542 17.5093 96.6222 17.1999 97.5289 17.1999C98.4889 17.1999 99.2462 17.5679 99.8009 18.3039ZM97.6569 18.2239C97.0489 18.2239 96.5315 18.4426 96.1049 18.8799C95.6889 19.3066 95.4809 19.9039 95.4809 20.6719C95.4809 21.4079 95.6729 22.0106 96.0569 22.4799C96.4515 22.9386 96.9849 23.1679 97.6569 23.1679C98.3289 23.1679 98.8622 22.9279 99.2569 22.4479C99.6622 21.9679 99.8649 21.3813 99.8649 20.6879C99.8649 19.8986 99.6409 19.2906 99.1929 18.8639C98.7449 18.4373 98.2329 18.2239 97.6569 18.2239Z" fill="#424242"/>
<path d="M104.287 23.0719V27.6799H103.135V17.3599H104.287V18.2879C104.873 17.5626 105.631 17.1999 106.559 17.1999C107.551 17.1999 108.335 17.5519 108.911 18.2559C109.497 18.9493 109.791 19.7706 109.791 20.7199C109.791 21.6799 109.503 22.5013 108.927 23.1839C108.351 23.8559 107.577 24.1919 106.607 24.1919C105.636 24.1919 104.863 23.8186 104.287 23.0719ZM106.447 23.1679C107.097 23.1679 107.62 22.9333 108.015 22.4639C108.409 21.9839 108.607 21.4026 108.607 20.7199C108.607 19.9519 108.388 19.3439 107.951 18.8959C107.513 18.4479 107.007 18.2239 106.431 18.2239C105.855 18.2239 105.343 18.4479 104.895 18.8959C104.447 19.3439 104.223 19.9466 104.223 20.7039C104.223 21.3973 104.425 21.9839 104.831 22.4639C105.247 22.9333 105.785 23.1679 106.447 23.1679Z" fill="#424242"/>
<path d="M111.557 17.3599H112.709V23.9999H111.557V17.3599ZM111.557 15.4239C111.397 15.2639 111.317 15.0719 111.317 14.8479C111.317 14.6239 111.397 14.4319 111.557 14.2719C111.717 14.1119 111.909 14.0319 112.133 14.0319C112.357 14.0319 112.549 14.1119 112.709 14.2719C112.869 14.4319 112.949 14.6239 112.949 14.8479C112.949 15.0719 112.869 15.2639 112.709 15.4239C112.549 15.5839 112.357 15.6639 112.133 15.6639C111.909 15.6639 111.717 15.5839 111.557 15.4239Z" fill="#424242"/>
<path d="M117.221 18.4159H116.069V23.9999H114.917V18.4159H114.213V17.3599H114.917V14.9599H116.069V17.3599H117.221V18.4159Z" fill="#424242"/>
<path d="M123.395 18.3039V17.3599H124.547V23.9999H123.395V23.0719C122.819 23.8186 122.061 24.1919 121.123 24.1919C120.227 24.1919 119.464 23.8826 118.835 23.2639C118.205 22.6453 117.891 21.7813 117.891 20.6719C117.891 19.5839 118.2 18.7359 118.819 18.1279C119.448 17.5093 120.216 17.1999 121.123 17.1999C122.083 17.1999 122.84 17.5679 123.395 18.3039ZM121.251 18.2239C120.643 18.2239 120.125 18.4426 119.699 18.8799C119.283 19.3066 119.075 19.9039 119.075 20.6719C119.075 21.4079 119.267 22.0106 119.651 22.4799C120.045 22.9386 120.579 23.1679 121.251 23.1679C121.923 23.1679 122.456 22.9279 122.851 22.4479C123.256 21.9679 123.459 21.3813 123.459 20.6879C123.459 19.8986 123.235 19.2906 122.787 18.8639C122.339 18.4373 121.827 18.2239 121.251 18.2239Z" fill="#424242"/>
<path d="M126.728 12.3359H127.88V23.9999H126.728V12.3359Z" fill="#424242"/>
</svg>
