<svg width="16" height="15" viewBox="0 0 16 15" fill="none" xmlns="http://www.w3.org/2000/svg">
<path d="M11.9512 0C13.024 0 14.056 0.424 14.8152 1.1848C15.5752 1.944 16 2.968 16 4.04V10.36C16 12.592 14.184 14.4 11.9512 14.4H4.048C1.8152 14.4 0 12.592 0 10.36V4.04C0 1.808 1.8072 0 4.048 0H11.9512ZM12.856 4.16C12.688 4.1512 12.528 4.208 12.4072 4.32L8.8 7.2C8.336 7.5848 7.6712 7.5848 7.2 7.2L3.6 4.32C3.3512 4.136 3.0072 4.16 2.8 4.376C2.584 4.592 2.56 4.936 2.7432 5.176L2.848 5.28L6.488 8.12C6.936 8.472 7.4792 8.664 8.048 8.664C8.6152 8.664 9.168 8.472 9.6152 8.12L13.224 5.232L13.288 5.168C13.4792 4.936 13.4792 4.6 13.2792 4.368C13.168 4.2488 13.0152 4.176 12.856 4.16Z" fill="#424242"/>
</svg>
