<svg width="25" height="25" viewBox="0 0 25 25" fill="none" xmlns="http://www.w3.org/2000/svg">
<path d="M7.10373 0C3.1089 0 0.853666 2.39856 0.841919 6.62743V18.241C0.841919 22.4686 3.1089 24.8684 7.10373 24.8684H18.0733C22.0682 24.8684 24.334 22.4686 24.334 18.241V6.62743C24.334 2.39856 22.0682 0 18.0733 0H7.10373ZM12.0007 5.13533C12.3307 4.92395 12.7301 4.92395 13.046 5.13533C13.3644 5.34547 13.5394 5.73217 13.5053 6.11763V18.7881C13.4454 19.3228 13.0237 19.7207 12.5304 19.7207C12.0241 19.7207 11.6025 19.3228 11.5555 18.7881V6.11763C11.5085 5.73217 11.6835 5.34547 12.0007 5.13533ZM17.486 9.21375C17.8032 9.00237 18.2037 9.00237 18.5197 9.21375C18.838 9.42513 19.013 9.80935 18.9778 10.1961V18.7881C18.932 19.3228 18.5091 19.7207 18.004 19.7207C17.4978 19.7207 17.0761 19.3228 17.0291 18.7881V10.1961C16.9927 9.80935 17.1701 9.42513 17.486 9.21375ZM6.6104 13.7274C6.92636 13.516 7.32573 13.516 7.65462 13.7274C7.97293 13.9387 8.14795 14.3105 8.10097 14.7097V18.7881C8.05398 19.3228 7.6323 19.7207 7.12605 19.7207C6.63271 19.7207 6.21103 19.3228 6.15112 18.7881V14.7097C6.11706 14.3105 6.29208 13.9387 6.6104 13.7274Z" fill="#424242"/>
</svg>
