<svg width="20" height="22" viewBox="0 0 20 22" fill="none" xmlns="http://www.w3.org/2000/svg">
<path d="M14.6567 0C18.0889 0 20 1.958 20 5.313V16.676C20 20.086 18.0889 22 14.6567 22H5.34444C1.96667 22 0 20.086 0 16.676V5.313C0 1.958 1.96667 0 5.34444 0H14.6567ZM5.64444 15.114C5.31111 15.081 4.98889 15.235 4.81111 15.521C4.63333 15.796 4.63333 16.159 4.81111 16.445C4.98889 16.72 5.31111 16.885 5.64444 16.841H14.3556C14.7989 16.797 15.1333 16.4219 15.1333 15.983C15.1333 15.532 14.7989 15.158 14.3556 15.114H5.64444ZM14.3556 10.0969H5.64444C5.16556 10.0969 4.77778 10.483 4.77778 10.956C4.77778 11.429 5.16556 11.814 5.64444 11.814H14.3556C14.8333 11.814 15.2222 11.429 15.2222 10.956C15.2222 10.483 14.8333 10.0969 14.3556 10.0969ZM8.96556 5.115H5.64444V5.126C5.16556 5.126 4.77778 5.511 4.77778 5.984C4.77778 6.457 5.16556 6.842 5.64444 6.842H8.96556C9.44445 6.842 9.83333 6.457 9.83333 5.9719C9.83333 5.5 9.44445 5.115 8.96556 5.115Z" fill="#424242"/>
</svg>
