<svg width="25" height="25" viewBox="0 0 25 25" fill="none" xmlns="http://www.w3.org/2000/svg" preserveAspectRatio="none">
<g clip-path="url(#clip0)">
<path d="M13.5675 10.4436C11.7435 6.17704 8.83777 1.71167 8.83777 1.71167C8.10843 0.590828 6.91051 0.587931 6.17573 1.7052C6.17573 1.7052 0 11.0958 0 15.8959C0 20.0408 3.3721 23.4129 7.51694 23.4129C9.27769 23.4129 10.8988 22.8041 12.1815 21.7863C11.4682 20.6271 11.0562 19.2637 11.0562 17.8057C11.0562 15.6629 12.1983 12.9393 13.5675 10.4436Z" fill="#424242"/>
<path d="M25.0005 17.8058C25.0005 13.9712 20.0683 6.95946 20.0683 6.95946C19.299 5.86573 18.0327 5.8605 17.2544 6.94788C17.2544 6.94788 12.3496 13.8002 12.3496 17.8058C12.3496 21.2936 15.1872 24.1313 18.675 24.1313C22.1629 24.1313 25.0005 21.2936 25.0005 17.8058Z" fill="#424242"/>
</g>
<defs>
<clipPath id="clip0">
<rect width="25" height="25" fill="white"/>
</clipPath>
</defs>
</svg>
