<svg width="23" height="23" viewBox="0 0 23 23" fill="none" xmlns="http://www.w3.org/2000/svg">
<path d="M16.491 0C20.3895 0 23 2.737 23 6.808V16.2046C23 20.263 20.3895 23 16.491 23H6.5205C2.622 23 0 20.263 0 16.2046V6.808C0 2.737 2.622 0 6.5205 0H16.491ZM16.307 8.05C15.916 7.659 15.272 7.659 14.881 8.05L10.1315 12.7995L8.119 10.787C7.728 10.396 7.084 10.396 6.693 10.787C6.302 11.178 6.302 11.8105 6.693 12.213L9.43 14.9385C9.6255 15.134 9.8785 15.226 10.1315 15.226C10.396 15.226 10.649 15.134 10.8445 14.9385L16.307 9.476C16.698 9.085 16.698 8.4525 16.307 8.05Z" fill="#424242"/>
</svg>
