<svg width="20" height="20" viewBox="0 0 20 20" fill="none" xmlns="http://www.w3.org/2000/svg" preserveAspectRatio="none">
<path d="M5 0C4.3125 0 3.75 0.5625 3.75 1.25V18.75C3.75 19.4375 4.3125 20 5 20H17.5C18.1875 20 18.75 19.4375 18.75 18.75V5L13.75 0H5Z" fill="#E2E5E7"/>
<path d="M15 5H18.75L13.75 0V3.75C13.75 4.4375 14.3125 5 15 5Z" fill="#B0B7BD"/>
<path d="M18.75 8.75L15 5H18.75V8.75Z" fill="#CAD1D8"/>
<path d="M16.25 16.25C16.25 16.5938 15.9688 16.875 15.625 16.875H1.875C1.53125 16.875 1.25 16.5938 1.25 16.25V10C1.25 9.65625 1.53125 9.375 1.875 9.375H15.625C15.9688 9.375 16.25 9.65625 16.25 10V16.25Z" fill="#F15642"/>
<path d="M3.97461 11.8416C3.97461 11.6766 4.10461 11.4966 4.31398 11.4966H5.46836C6.11836 11.4966 6.70336 11.9316 6.70336 12.7653C6.70336 13.5553 6.11836 13.9953 5.46836 13.9953H4.63398V14.6553C4.63398 14.8753 4.49398 14.9997 4.31398 14.9997C4.14898 14.9997 3.97461 14.8753 3.97461 14.6553V11.8416ZM4.63398 12.126V13.371H5.46836C5.80336 13.371 6.06836 13.0753 6.06836 12.7653C6.06836 12.416 5.80336 12.126 5.46836 12.126H4.63398Z" fill="white"/>
<path d="M7.68289 14.9991C7.51789 14.9991 7.33789 14.9091 7.33789 14.6898V11.851C7.33789 11.6716 7.51789 11.541 7.68289 11.541H8.82726C11.111 11.541 11.061 14.9991 8.87226 14.9991H7.68289ZM7.99789 12.151V14.3898H8.82726C10.1766 14.3898 10.2366 12.151 8.82726 12.151H7.99789Z" fill="white"/>
<path d="M11.8705 12.1907V12.985H13.1449C13.3249 12.985 13.5049 13.165 13.5049 13.3394C13.5049 13.5044 13.3249 13.6394 13.1449 13.6394H11.8705V14.6888C11.8705 14.8638 11.7462 14.9982 11.5712 14.9982C11.3512 14.9982 11.2168 14.8638 11.2168 14.6888V11.85C11.2168 11.6707 11.3518 11.54 11.5712 11.54H13.3255C13.5455 11.54 13.6755 11.6707 13.6755 11.85C13.6755 12.01 13.5455 12.19 13.3255 12.19H11.8705V12.1907Z" fill="white"/>
<path d="M15.625 16.875H3.75V17.5H15.625C15.9688 17.5 16.25 17.2188 16.25 16.875V16.25C16.25 16.5938 15.9688 16.875 15.625 16.875Z" fill="#CAD1D8"/>
</svg>
