<svg width="33" height="33" viewBox="0 0 33 33" fill="none" xmlns="http://www.w3.org/2000/svg" preserveAspectRatio="none">
<path d="M22.1924 2.93745C22.1264 3.34994 22.0934 3.76244 22.0934 4.17493C22.0934 7.88738 25.0964 10.8887 28.7924 10.8887C29.2049 10.8887 29.6009 10.8408 30.0134 10.7748V24.0885C30.0134 29.6836 26.7134 33 21.1034 33H8.91161C3.29998 33 0 29.6836 0 24.0885V11.8803C0 6.2704 3.29998 2.93745 8.91161 2.93745H22.1924ZM22.524 12.9693C22.0769 12.9198 21.633 13.1178 21.3674 13.4808L17.3761 18.6452L12.8039 15.0483C12.5234 14.8338 12.1934 14.7496 11.8634 14.7843C11.5351 14.8338 11.2381 15.0136 11.0384 15.2776L6.15612 21.6317L6.05547 21.7802C5.77497 22.3065 5.90697 22.983 6.40197 23.3476C6.63297 23.4961 6.88047 23.5951 7.16096 23.5951C7.54211 23.6116 7.90346 23.412 8.13446 23.1001L12.2759 17.7691L16.9784 21.3017L17.1269 21.399C17.6549 21.6795 18.3149 21.5492 18.6944 21.0525L23.4629 14.8998L23.3969 14.9328C23.6609 14.5698 23.7104 14.1078 23.5289 13.6953C23.349 13.2828 22.9514 13.0023 22.524 12.9693ZM29.0235 0C31.218 0 33 1.78197 33 3.97644C33 6.17091 31.218 7.95288 29.0235 7.95288C26.829 7.95288 25.047 6.17091 25.047 3.97644C25.047 1.78197 26.829 0 29.0235 0Z" fill="#424242"/>
</svg>
