<svg width="14" height="24" viewBox="0 0 14 24" fill="none" xmlns="http://www.w3.org/2000/svg">
<path d="M11.6826 15.6208V12.5726C11.6826 5.77199 8.78106 1.66426 7.56746 0.244044C7.4366 0.089589 7.2442 0.00154963 7.04167 5.08265e-06C6.83837 -0.000767193 6.64597 0.0864999 6.51277 0.23941C5.27892 1.65654 2.31892 5.76581 2.31892 12.5726V15.6216L1.75107 16.0008C0.656651 16.7329 0 17.9569 0 19.2667V22.9049C0 23.1204 0.119958 23.3196 0.311579 23.4223C0.503978 23.5243 0.736883 23.5127 0.917599 23.3922L2.76214 22.1743C3.28014 21.833 3.88772 21.65 4.5101 21.65H5.86624V23.4131C5.86624 23.7374 6.13108 24 6.45746 24H7.54332C7.86969 24 8.13453 23.7374 8.13453 23.4131V21.65H9.4899C10.1123 21.65 10.7206 21.8315 11.2394 22.1751L13.0824 23.3922C13.2631 23.5127 13.496 23.5243 13.6884 23.4223C13.88 23.3196 14 23.1204 14 22.9049V19.2667C14 17.9585 13.3426 16.7344 12.2489 16.0008L11.6826 15.6208ZM7.00117 10.8451C5.87481 10.8451 4.96033 9.93919 4.96033 8.82248C4.96033 7.70499 5.87481 6.79989 7.00117 6.79989C8.12675 6.79989 9.04123 7.70499 9.04123 8.82248C9.04123 9.93919 8.12675 10.8451 7.00117 10.8451Z" fill="#424242"/>
</svg>
