<svg width="22" height="25" viewBox="0 0 22 25" fill="none" xmlns="http://www.w3.org/2000/svg">
<path d="M11.7386 0.124455L20.3282 2.90815C21.2897 3.21826 21.9398 4.07139 21.9451 5.02748L21.9998 13.3283C22.0167 15.8448 21.0669 18.2853 19.3277 20.1974C18.5277 21.0751 17.5024 21.8289 16.193 22.5031L11.5758 24.8872C11.4312 24.9607 11.2722 24.9987 11.112 25C10.9517 25.0012 10.7915 24.9644 10.6482 24.8921L5.9879 22.5631C4.66422 21.9 3.62977 21.1572 2.82201 20.2918C1.05406 18.3992 0.071719 15.9698 0.0547821 13.4496L3.12872e-05 5.15496C-0.00514839 4.19764 0.633242 3.33839 1.58952 3.01601L10.1466 0.133036C10.6547 -0.0410218 11.2214 -0.0446991 11.7386 0.124455ZM15.8462 9.02332C15.4619 8.66663 14.843 8.66908 14.4639 9.03067L10.1046 13.1811L8.31972 11.5239C7.93539 11.1672 7.31784 11.1708 6.93741 11.5324C6.55829 11.894 6.5622 12.475 6.94653 12.8317L9.42583 15.1362C9.61865 15.3151 9.8688 15.4034 10.1189 15.401C10.3691 15.3997 10.6179 15.309 10.8081 15.1276L15.854 10.3226C16.2332 9.96102 16.2292 9.38001 15.8462 9.02332Z" fill="#424242"/>
</svg>
