<svg width="30" height="29" viewBox="0 0 30 29" fill="none" xmlns="http://www.w3.org/2000/svg">
<path d="M23.8752 18.0391C23.4867 18.4222 23.3083 18.9762 23.3968 19.5195L24.7301 27.0285C24.8426 27.6649 24.5786 28.309 24.0552 28.6768C23.5422 29.0584 22.8598 29.1042 22.3004 28.7989L15.6578 25.2734C15.4268 25.1482 15.1703 25.0811 14.9079 25.0734H14.5014C14.3604 25.0948 14.2225 25.1406 14.0965 25.2108L7.45234 28.7531C7.12388 28.921 6.75193 28.9805 6.38748 28.921C5.4996 28.7501 4.90717 27.8893 5.05265 26.9812L6.38748 19.4722C6.47597 18.9243 6.29749 18.3673 5.90904 17.9781L0.493249 12.6363C0.0403085 12.1891 -0.117171 11.5176 0.089802 10.9117C0.290776 10.3073 0.803709 9.86624 1.42313 9.76704L8.87715 8.66664C9.44408 8.60711 9.94201 8.25608 10.197 7.73717L13.4816 0.884472C13.5595 0.73185 13.66 0.591439 13.7815 0.472394L13.9165 0.365559C13.987 0.286196 14.068 0.220569 14.158 0.167151L14.3214 0.106103L14.5764 -0.000732422H15.2078C15.7718 0.0587899 16.2682 0.402188 16.5277 0.914996L19.8557 7.73717C20.0957 8.23624 20.5621 8.58269 21.1006 8.66664L28.5546 9.76704C29.1845 9.85861 29.7109 10.3012 29.9194 10.9117C30.1159 11.5237 29.9464 12.1952 29.4845 12.6363L23.8752 18.0391Z" fill="#424242"/>
</svg>
