<svg width="30" height="27" viewBox="0 0 30 27" fill="none" xmlns="http://www.w3.org/2000/svg">
<path d="M11.024 17.7859C17.002 17.7859 22.048 18.736 22.048 22.4098C22.048 26.0808 16.9697 26.9993 11.024 26.9993L10.6179 26.9978C4.81924 26.9547 0 25.9657 0 22.3753C0 18.7043 5.07829 17.7859 11.024 17.7859ZM20.3546 15.5741C22.628 15.531 25.0733 15.8371 25.9759 16.0527C27.8898 16.4192 29.1476 17.1652 29.6687 18.2533C30.1104 19.1445 30.1104 20.1793 29.6687 21.0705C28.8717 22.7551 26.3003 23.297 25.3007 23.4364C25.0938 23.4651 24.9279 23.2926 24.95 23.0885C25.4607 18.42 21.3996 16.2065 20.3487 15.6977C20.3046 15.6733 20.2944 15.6388 20.2988 15.6158C20.3017 15.6014 20.3208 15.5784 20.3546 15.5741ZM11.024 -0.000732422C15.0734 -0.000732422 18.3185 3.17724 18.3185 7.14289C18.3185 11.1085 15.0734 14.2865 11.024 14.2865C6.97605 14.2865 3.72946 11.1085 3.72946 7.14289C3.72946 3.17724 6.97605 -0.000732422 11.024 -0.000732422ZM20.7508 1.19241C24.6623 1.19241 27.7328 4.7944 26.6863 8.80604C25.9803 11.5097 23.425 13.3049 20.5776 13.2316C20.2914 13.2259 20.0111 13.1986 19.7381 13.154C19.5414 13.1195 19.4416 12.9025 19.5546 12.7415C20.6408 11.1762 21.2601 9.29186 21.2601 7.27239C21.2601 5.16236 20.585 3.19751 19.4093 1.58337C19.3712 1.53306 19.3433 1.45688 19.3815 1.39795C19.4108 1.35196 19.4695 1.32608 19.5238 1.31458C19.9201 1.23553 20.3267 1.19241 20.7508 1.19241Z" fill="#424242"/>
</svg>
