<svg width="14" height="12" viewBox="0 0 14 12" fill="none" xmlns="http://www.w3.org/2000/svg">
<path d="M4.52354 6.62163L11.2009 2.42871C11.5297 2.20783 11.6328 2.45422 11.4844 2.62439L5.9427 7.61356L5.65836 10.1037L4.52354 6.62163ZM12.9938 0.501439L1.27209 4.94353C0.631022 5.12875 0.651449 5.7625 1.12559 5.91493L4.06263 6.83236L5.18634 10.2806C5.32304 10.658 5.43465 10.8002 5.66792 10.8034C5.91313 10.8069 6.00701 10.7172 6.2616 10.4919C6.55975 10.2116 7.01388 9.77061 7.73143 9.07234L10.7864 11.3314C11.3487 11.6419 11.7546 11.481 11.8946 10.8089L13.8098 1.32663C14.0152 0.50283 13.5317 0.257096 12.9938 0.501439Z" fill="#424242"/>
</svg>
