<svg width="30" height="30" viewBox="0 0 30 30" fill="none" xmlns="http://www.w3.org/2000/svg">
<path d="M14.9472 0.000976562C6.69199 0.000976562 0 6.69297 0 14.9482C0 23.2034 6.69199 29.8954 14.9472 29.8954C23.2024 29.8954 29.8944 23.2034 29.8944 14.9482C29.8944 6.69297 23.2024 0.000976562 14.9472 0.000976562ZM20.6957 16.8649C20.6957 16.8649 22.0176 18.1696 22.343 18.7753C22.3523 18.7878 22.357 18.8002 22.3601 18.8064C22.4924 19.0291 22.5236 19.2019 22.4582 19.3311C22.3492 19.546 21.9755 19.6519 21.8478 19.6612H19.5123C19.3504 19.6612 19.011 19.6192 18.5999 19.3358C18.2839 19.1147 17.9725 18.7519 17.6688 18.3985C17.2158 17.8722 16.8234 17.4176 16.4279 17.4176C16.3777 17.4175 16.3278 17.4254 16.28 17.4409C15.9811 17.5375 15.598 17.9641 15.598 19.1007C15.598 19.4557 15.3178 19.6597 15.12 19.6597H14.0504C13.686 19.6597 11.7881 19.532 10.1065 17.7586C8.04814 15.5866 6.19531 11.2301 6.17974 11.1896C6.06296 10.9078 6.3043 10.7567 6.56743 10.7567H8.92629C9.2408 10.7567 9.34356 10.9483 9.41519 11.118C9.49926 11.3157 9.80755 12.102 10.3136 12.9864C11.1341 14.4282 11.637 15.0136 12.0403 15.0136C12.1159 15.0127 12.1902 14.9935 12.2567 14.9575C12.783 14.6648 12.6849 12.7886 12.6615 12.3994C12.6615 12.3262 12.66 11.5602 12.3906 11.1927C12.1975 10.9265 11.869 10.8252 11.6697 10.7879C11.7504 10.6766 11.8567 10.5863 11.9796 10.5247C12.3408 10.3441 12.9916 10.3177 13.6378 10.3177H13.9974C14.6981 10.327 14.8787 10.3722 15.1325 10.436C15.6463 10.559 15.6572 10.8906 15.6121 12.0257C15.598 12.348 15.584 12.7123 15.584 13.1421C15.584 13.2355 15.5794 13.3351 15.5794 13.441C15.5638 14.0187 15.5451 14.6742 15.953 14.9435C16.0062 14.9769 16.0677 14.9947 16.1305 14.9949C16.2722 14.9949 16.6988 14.9949 17.8541 13.0128C18.2104 12.3749 18.52 11.7119 18.7806 11.0292C18.8039 10.9887 18.8724 10.8642 18.9534 10.8159C19.0131 10.7854 19.0794 10.77 19.1464 10.7708H21.9195C22.2215 10.7708 22.4286 10.8159 22.4675 10.9327C22.536 11.118 22.4551 11.6832 21.1892 13.3974L20.624 14.1432C19.4765 15.6473 19.4765 15.7236 20.6957 16.8649Z" fill="#FFDD2D"/>
</svg>
