<svg width="19" height="20" viewBox="0 0 19 20" fill="none" xmlns="http://www.w3.org/2000/svg" preserveAspectRatio="none">
<path fill-rule="evenodd" clip-rule="evenodd" d="M14.2725 11.8624C14.0502 11.7406 12.9582 11.1512 12.7534 11.068C12.5487 10.9849 12.3992 10.9416 12.2396 11.1626C12.0802 11.3829 11.6271 11.8766 11.4898 12.0227C11.3519 12.169 11.2192 12.1828 10.9968 12.0607C10.775 11.9391 10.0544 11.6727 9.21859 10.8692C8.5683 10.244 8.14173 9.4859 8.01798 9.25453C7.89424 9.02294 8.01716 8.90496 8.13466 8.79652C8.24028 8.69868 8.37109 8.5402 8.48918 8.41245C8.60704 8.28458 8.6486 8.1918 8.72973 8.04345C8.81073 7.89533 8.77812 7.76158 8.72561 7.64619C8.67309 7.53128 8.26218 6.40002 8.09051 5.93989C7.91884 5.47976 7.72763 5.54817 7.59553 5.54287C7.46342 5.53839 7.3133 5.51355 7.16224 5.5079C7.0113 5.50225 6.76381 5.54982 6.5481 5.76846C6.33217 5.98722 5.72674 6.5127 5.68506 7.627C5.64327 8.74048 6.414 9.84736 6.52149 10.0023C6.62911 10.1577 7.99326 12.5721 10.2602 13.5651C12.5278 14.5578 12.5397 14.2551 12.9557 14.2329C13.372 14.211 14.3156 13.7352 14.5242 13.2139C14.7327 12.6927 14.7493 12.2394 14.6964 12.143C14.6433 12.0464 14.4947 11.9838 14.2725 11.8624ZM10.1142 17.23C8.61505 17.23 7.21864 16.7802 6.05265 16.0093L3.21557 16.9176L4.13771 14.176C3.25395 12.9588 2.73189 11.4632 2.73189 9.84736C2.73189 5.77635 6.0437 2.4643 10.1142 2.4643C14.1855 2.4643 17.4972 5.77635 17.4972 9.84736C17.4972 13.9181 14.1855 17.23 10.1142 17.23ZM10.1142 0.97876C5.21669 0.97876 1.24623 4.94922 1.24623 9.84736C1.24623 11.5228 1.71119 13.0899 2.51866 14.4267L0.917969 19.1846L5.82788 17.6128C7.09854 18.3152 8.55959 18.7158 10.1142 18.7158C15.0126 18.7158 18.983 14.7449 18.983 9.84736C18.983 4.94922 15.0126 0.97876 10.1142 0.97876Z" fill="#424242"/>
</svg>
