<svg width="31" height="28" viewBox="0 0 31 28" fill="none" xmlns="http://www.w3.org/2000/svg">
<path d="M22.4991 -0.000976562C27.8449 -0.000976562 31 3.08617 31 8.37071H24.4418V8.42464C21.3981 8.42464 18.9307 10.8389 18.9307 13.817C18.9307 16.7952 21.3981 19.2094 24.4418 19.2094H31V19.6947C31 24.9119 27.8449 27.999 22.4991 27.999H8.50089C3.15511 27.999 0 24.9119 0 19.6947V8.30331C0 3.08617 3.15511 -0.000976562 8.50089 -0.000976562H22.4991ZM29.8427 10.6894C30.4818 10.6894 31 11.1964 31 11.8218V15.7583C30.9926 16.3807 30.4787 16.8834 29.8427 16.8907H24.5658C23.0249 16.911 21.6775 15.8787 21.328 14.4102C21.153 13.4986 21.3987 12.5579 21.9993 11.8403C22.5998 11.1226 23.4939 10.7014 24.4418 10.6894H29.8427ZM25.1858 12.5094H24.676C24.363 12.5058 24.0616 12.6249 23.839 12.8402C23.6164 13.0555 23.4911 13.349 23.4911 13.6553C23.4911 14.2978 24.0194 14.8207 24.676 14.8281H25.1858C25.8402 14.8281 26.3707 14.309 26.3707 13.6687C26.3707 13.0284 25.8402 12.5094 25.1858 12.5094ZM16.0924 6.05198H7.34356C6.6945 6.05194 6.16621 6.56284 6.15867 7.19787C6.15867 7.84038 6.68694 8.36333 7.34356 8.37071H16.0924C16.7468 8.37071 17.2773 7.85165 17.2773 7.21135C17.2773 6.57105 16.7468 6.05198 16.0924 6.05198Z" fill="#424242"/>
</svg>
