<svg width="20" height="20" viewBox="0 0 20 20" fill="none" xmlns="http://www.w3.org/2000/svg">
<path d="M19.7778 18.4952L10.9084 7.2586V4.54616V0.910012C10.9084 0.407982 10.5014 0.000976562 9.99937 0.000976562H5.75721C5.25517 0.000976562 4.84817 0.407982 4.84817 0.910012V4.54616C4.84817 5.04819 5.25517 5.45519 5.75721 5.45519H9.09034V7.2586L0.195481 18.5275C-0.0203846 18.801 -0.060867 19.1737 0.0910025 19.4872C0.242933 19.8007 0.560671 19.9998 0.909014 19.9998H19.0897C19.0902 19.9998 19.0906 19.9998 19.0909 19.9998C19.593 19.9998 20 19.5928 20 19.0907C20 18.8629 19.9162 18.6547 19.7778 18.4952ZM11.1848 12.0007L10.407 11.6115C10.4013 11.6086 10.3953 11.6066 10.3895 11.6038C10.3747 11.5968 10.3597 11.5902 10.3445 11.584C10.3309 11.5785 10.3175 11.5731 10.3038 11.5683C10.2905 11.5636 10.2772 11.5594 10.2637 11.5553C10.2481 11.5506 10.2325 11.546 10.2168 11.5421C10.2046 11.5391 10.1923 11.5366 10.18 11.5342C10.1634 11.5308 10.1466 11.5276 10.13 11.5251C10.1174 11.5233 10.1049 11.5222 10.0923 11.5209C10.076 11.5192 10.0597 11.5176 10.0434 11.5169C10.0294 11.5162 10.0154 11.5162 10.0013 11.5162C9.98652 11.5162 9.97186 11.5162 9.95719 11.5169C9.9415 11.5176 9.9258 11.5192 9.91017 11.5208C9.89701 11.522 9.88386 11.5233 9.87083 11.5252C9.85453 11.5276 9.83829 11.5307 9.82205 11.534C9.80932 11.5366 9.79666 11.5391 9.78411 11.5422C9.7686 11.546 9.75327 11.5505 9.73787 11.5552C9.72424 11.5592 9.71072 11.5635 9.69733 11.5682C9.68363 11.5731 9.67006 11.5785 9.65648 11.584C9.64151 11.5902 9.62667 11.5966 9.612 11.6035C9.60606 11.6063 9.6 11.6085 9.59406 11.6114L8.8146 12.0009L8.01955 11.5499L9.99937 9.04134L11.9796 11.55L11.1848 12.0007Z" fill="#424242"/>
</svg>
